<svg width="16" height="20" viewBox="0 0 16 20" fill="none" xmlns="http://www.w3.org/2000/svg">
<path d="M5.35183 4.63339C5.43177 4.71334 5.5417 4.76331 5.65163 4.76331C5.77156 4.76331 5.88149 4.72334 5.96144 4.63339C6.04139 4.55345 6.09135 4.44352 6.09135 4.32359C6.09135 4.20367 6.05138 4.09374 5.96144 4.01379C5.88149 3.93384 5.77156 3.88387 5.65163 3.88387C5.5417 3.88387 5.43177 3.92385 5.35183 4.01379C5.27188 4.09374 5.2319 4.20367 5.2319 4.32359C5.2319 4.43352 5.27188 4.55345 5.35183 4.63339ZM10.0488 4.63339C10.1288 4.71334 10.2387 4.76331 10.3586 4.76331C10.4686 4.76331 10.5785 4.72334 10.6584 4.63339C10.7384 4.55345 10.7784 4.44352 10.7784 4.32359C10.7784 4.21366 10.7384 4.09374 10.6584 4.01379C10.5785 3.93384 10.4686 3.88387 10.3586 3.88387C10.2387 3.88387 10.1288 3.92385 10.0488 4.01379C9.96888 4.09374 9.91892 4.20367 9.91892 4.32359C9.91892 4.44352 9.96888 4.55345 10.0488 4.63339ZM1.3044 6.81201C1.60421 6.81201 1.89403 6.93193 2.10389 7.15179C2.32375 7.36166 2.44368 7.65148 2.44368 7.95129V12.7482C2.44368 13.058 2.33375 13.3478 2.11389 13.5677C1.90402 13.7876 1.61421 13.9075 1.3044 13.9075C0.994601 13.9075 0.704785 13.7876 0.494919 13.5677C0.275059 13.3578 0.155135 13.058 0.165129 12.7582V7.96128C0.165129 7.66147 0.285053 7.37165 0.504913 7.16179C0.714779 6.94193 1.01459 6.822 1.3144 6.822L1.3044 6.81201ZM13.1269 7.02188V14.4471C13.1269 14.7769 13.0069 15.0867 12.7671 15.3166C12.5472 15.5464 12.2274 15.6764 11.9076 15.6764H11.0682V18.2048C11.0682 18.5146 10.9483 18.8044 10.7284 19.0242C10.2787 19.4739 9.54915 19.4739 9.09944 19.0242C8.87958 18.8144 8.75965 18.5146 8.75965 18.2048V15.6764H7.22063V18.2048C7.22063 18.5146 7.10071 18.8044 6.88085 19.0242C6.67098 19.2441 6.37118 19.364 6.06137 19.364C5.76156 19.364 5.47175 19.2441 5.26188 19.0242C5.04202 18.8144 4.9221 18.5146 4.9221 18.2048V15.6764H4.08263C3.75284 15.6764 3.44304 15.5564 3.21319 15.3166C2.98333 15.0867 2.85342 14.7769 2.85342 14.4471V7.02188H13.0969H13.1269ZM10.5385 2.50475C11.318 2.89451 11.9776 3.48413 12.4473 4.21366C12.917 4.92321 13.1668 5.76268 13.1569 6.61214H2.84342C2.84342 5.76268 3.08327 4.92321 3.55297 4.21366C4.03267 3.48413 4.69225 2.89451 5.47175 2.50475L4.68225 1.04568C4.63228 0.98572 4.64228 0.885783 4.71223 0.835815C4.71223 0.835815 4.73222 0.825822 4.74221 0.815829C4.81217 0.765861 4.91211 0.795841 4.95208 0.865796C4.95208 0.865796 4.95208 0.87579 4.95208 0.885784L5.75157 2.35485C6.46112 2.04504 7.22063 1.88515 7.99014 1.88515C8.75965 1.88515 9.52916 2.04504 10.2287 2.35485L11.0282 0.885784C11.0682 0.805835 11.1581 0.775854 11.2381 0.805835C11.2381 0.805835 11.2481 0.805835 11.2581 0.805835C11.328 0.835816 11.368 0.925759 11.328 0.995715C11.328 1.00571 11.318 1.0157 11.308 1.02569L10.5285 2.48477L10.5385 2.50475ZM15.8551 7.95129V12.7482C15.8551 13.058 15.7352 13.3478 15.5154 13.5677C15.3055 13.7876 15.0057 13.9075 14.7059 13.9075C14.4061 13.9075 14.1162 13.7876 13.9064 13.5677C13.6865 13.3578 13.5666 13.058 13.5666 12.7482V7.95129C13.5666 7.65148 13.6865 7.35167 13.9064 7.1418C14.1162 6.93193 14.4061 6.81201 14.7059 6.81201C15.0157 6.81201 15.3055 6.92194 15.5154 7.1418C15.7352 7.35167 15.8551 7.64148 15.8551 7.95129Z" fill="#2E3D52"/>
</svg>
