<svg width="16" height="20" viewBox="0 0 16 20" fill="none" xmlns="http://www.w3.org/2000/svg">
<path d="M15.875 14.357C15.5552 15.3463 15.0955 16.2857 14.5059 17.1452C13.5465 18.6042 12.5871 19.3337 11.6377 19.3337C11.0981 19.2938 10.5784 19.1739 10.0787 18.974C9.53908 18.7541 8.96945 18.6342 8.38982 18.6142C7.84017 18.6342 7.31051 18.7641 6.80084 18.984C6.34114 19.2038 5.84146 19.3337 5.33179 19.3637C4.20251 19.3637 3.08323 18.4043 1.97395 16.4756C0.954601 14.7767 0.394961 12.8479 0.334999 10.8592C0.275038 9.37016 0.714755 7.9011 1.59419 6.69188C2.32372 5.67253 3.51296 5.07292 4.76215 5.08291C5.43172 5.1029 6.0913 5.21283 6.73089 5.42269C7.23056 5.59258 7.75023 5.70251 8.2699 5.76248C8.81954 5.71251 9.3592 5.59258 9.86887 5.38272C10.4885 5.15287 11.1381 5.03295 11.7976 5.00297C12.6471 4.99297 13.4765 5.24281 14.1761 5.7325C14.6158 6.05229 15.0056 6.42205 15.3354 6.85178C14.8557 7.23153 14.4259 7.68124 14.0662 8.17093C13.5865 8.85049 13.3366 9.64998 13.3366 10.4794C13.3266 11.3689 13.5965 12.2383 14.1061 12.9678C14.5159 13.6174 15.1355 14.1171 15.865 14.3669L15.875 14.357ZM11.6777 1.27536C11.6677 1.79503 11.5578 2.31469 11.3579 2.79438C11.1181 3.37401 10.7683 3.89368 10.3186 4.33339C9.98879 4.69316 9.56906 4.96299 9.11935 5.13288C8.73959 5.23282 8.34984 5.29278 7.9601 5.32276C7.9601 4.30342 8.2599 3.30406 8.82954 2.45461C9.51909 1.57517 10.5184 0.985548 11.6177 0.805664C11.6277 0.845638 11.6377 0.885612 11.6477 0.925586C11.6577 0.96556 11.6677 1.00554 11.6777 1.04551C11.6777 1.07549 11.6777 1.11547 11.6777 1.15544C11.6777 1.19541 11.6777 1.23539 11.6777 1.27536Z" fill="#2E3D52"/>
</svg>
