<svg width="20" height="21" viewBox="0 0 20 21" fill="none" xmlns="http://www.w3.org/2000/svg">
<path opacity="0.3" d="M5.81 20.5H14.19C17.3988 20.5 20 17.8988 20 14.69V6.31C20 3.10122 17.3988 0.5 14.19 0.5H5.81C2.60122 0.5 0 3.10122 0 6.31V14.69C0 17.8988 2.60122 20.5 5.81 20.5Z" fill="#223042"/>
<path d="M8.33001 15.07C8.07254 15.069 7.82539 14.9687 7.64001 14.79C7.45376 14.6026 7.34922 14.3492 7.34922 14.085C7.34922 13.8208 7.45376 13.5674 7.64001 13.38L10.41 10.5L7.49001 7.65C7.30376 7.46263 7.19922 7.20918 7.19922 6.945C7.19922 6.68081 7.30376 6.42736 7.49001 6.24C7.58297 6.14627 7.69358 6.07187 7.81543 6.02111C7.93729 5.97034 8.068 5.9442 8.20001 5.9442C8.33202 5.9442 8.46273 5.97034 8.58459 6.02111C8.70645 6.07187 8.81705 6.14627 8.91001 6.24L12.56 9.73C12.7463 9.91736 12.8508 10.1708 12.8508 10.435C12.8508 10.6992 12.7463 10.9526 12.56 11.14L9.06001 14.79C8.96338 14.8833 8.84893 14.9562 8.72351 15.0043C8.59809 15.0524 8.46426 15.0747 8.33001 15.07Z" fill="#223042"/>
</svg>
