<svg width="20" height="21" viewBox="0 0 20 21" fill="none" xmlns="http://www.w3.org/2000/svg">
<path opacity="0.3" d="M14.19 0.5H5.81C2.60123 0.5 0 3.10123 0 6.31V14.69C0 17.8988 2.60123 20.5 5.81 20.5H14.19C17.3988 20.5 20 17.8988 20 14.69V6.31C20 3.10123 17.3988 0.5 14.19 0.5Z" fill="#223042"/>
<path d="M11.67 15.07C11.5353 15.0695 11.4021 15.0418 11.2783 14.9885C11.1546 14.9352 11.0429 14.8575 10.95 14.76L7.44997 11.11C7.26372 10.9226 7.15918 10.6692 7.15918 10.405C7.15918 10.1408 7.26372 9.88737 7.44997 9.7L11.09 6.21C11.2809 6.02568 11.5373 5.92476 11.8027 5.92945C12.068 5.93414 12.3206 6.04405 12.505 6.235C12.6893 6.42596 12.7902 6.68232 12.7855 6.94768C12.7808 7.21304 12.6709 7.46568 12.48 7.65L9.58997 10.5L12.39 13.43C12.5762 13.6174 12.6808 13.8708 12.6808 14.135C12.6808 14.3992 12.5762 14.6526 12.39 14.84C12.1893 15.0079 11.9308 15.0905 11.67 15.07Z" fill="#223042"/>
</svg>
