<svg width="20" height="21" viewBox="0 0 20 21" fill="none" xmlns="http://www.w3.org/2000/svg">
<path opacity="0.5" d="M17.9401 4.06H2.06006C1.78294 4.06649 1.50983 4.12751 1.25631 4.23959C1.00279 4.35167 0.773832 4.5126 0.582529 4.71319C0.391225 4.91378 0.241319 5.1501 0.141376 5.40864C0.0414335 5.66719 -0.00658741 5.94289 5.70079e-05 6.22C-0.00658741 6.49711 0.0414335 6.77281 0.141376 7.03135C0.241319 7.2899 0.391225 7.52622 0.582529 7.72681C0.773832 7.9274 1.00279 8.08833 1.25631 8.20041C1.50983 8.31248 1.78294 8.37351 2.06006 8.38H17.9401C18.2172 8.37351 18.4903 8.31248 18.7438 8.20041C18.9973 8.08833 19.2263 7.9274 19.4176 7.72681C19.6089 7.52622 19.7588 7.2899 19.8587 7.03135C19.9587 6.77281 20.0067 6.49711 20.0001 6.22C20.0067 5.94289 19.9587 5.66719 19.8587 5.40864C19.7588 5.1501 19.6089 4.91378 19.4176 4.71319C19.2263 4.5126 18.9973 4.35167 18.7438 4.23959C18.4903 4.12751 18.2172 4.06649 17.9401 4.06Z" fill="#1B71F5"/>
<path d="M2.06006 8.37999L3.56006 17.71C3.68644 18.4797 4.07901 19.1806 4.6693 19.6905C5.2596 20.2004 6.01015 20.4869 6.79006 20.5H13.3001C14.0849 20.4876 14.84 20.1976 15.4314 19.6814C16.0227 19.1651 16.4119 18.456 16.5301 17.68L17.9401 8.37999H2.06006ZM8.42006 15.87C8.42006 16.0689 8.34104 16.2597 8.20039 16.4003C8.05974 16.541 7.86897 16.62 7.67006 16.62C7.47115 16.62 7.28038 16.541 7.13973 16.4003C6.99908 16.2597 6.92006 16.0689 6.92006 15.87V12.26C6.92006 12.0611 6.99908 11.8703 7.13973 11.7297C7.28038 11.589 7.47115 11.51 7.67006 11.51C7.86897 11.51 8.05974 11.589 8.20039 11.7297C8.34104 11.8703 8.42006 12.0611 8.42006 12.26V15.87ZM13.0701 15.87C13.0701 16.0689 12.991 16.2597 12.8504 16.4003C12.7097 16.541 12.519 16.62 12.3201 16.62C12.1211 16.62 11.9304 16.541 11.7897 16.4003C11.6491 16.2597 11.5701 16.0689 11.5701 15.87V12.26C11.5701 12.0611 11.6491 11.8703 11.7897 11.7297C11.9304 11.589 12.1211 11.51 12.3201 11.51C12.519 11.51 12.7097 11.589 12.8504 11.7297C12.991 11.8703 13.0701 12.0611 13.0701 12.26V15.87Z" fill="#142857"/>
<path d="M15.9001 5.30999C15.7739 5.31018 15.6498 5.27813 15.5396 5.21687C15.4293 5.15561 15.3365 5.06719 15.2701 4.95999L13.3201 1.95999C13.2217 1.7959 13.1907 1.6001 13.2336 1.41365C13.2765 1.22721 13.3899 1.06462 13.5501 0.959993C13.7142 0.865464 13.9077 0.835623 14.0927 0.876318C14.2776 0.917013 14.4408 1.02531 14.5501 1.17999L16.5001 4.22999C16.596 4.3947 16.6256 4.58974 16.5828 4.77548C16.5401 4.96122 16.4283 5.12373 16.2701 5.22999C16.1552 5.28664 16.0281 5.31411 15.9001 5.30999Z" fill="#142857"/>
<path d="M4.00005 5.32C3.85874 5.32397 3.71946 5.28567 3.60005 5.21C3.44183 5.10374 3.32999 4.94123 3.28727 4.75549C3.24455 4.56974 3.27415 4.3747 3.37005 4.21L5.37005 1.21C5.47468 1.04983 5.63727 0.936408 5.82371 0.893526C6.01015 0.850644 6.20596 0.881635 6.37005 0.979998C6.5264 1.0878 6.63672 1.25024 6.67929 1.43532C6.72186 1.6204 6.69359 1.81472 6.60005 1.98L4.65005 4.98C4.5806 5.08828 4.48413 5.17658 4.37014 5.23621C4.25616 5.29583 4.1286 5.32471 4.00005 5.32Z" fill="#142857"/>
</svg>
