<svg width="19" height="21" viewBox="0 0 19 21" fill="none" xmlns="http://www.w3.org/2000/svg">
<path opacity="0.3" d="M0.299988 9.39001V15.08C0.299988 16.5175 0.871022 17.8961 1.88747 18.9125C2.90392 19.929 4.28251 20.5 5.71999 20.5H13.28C13.9918 20.5 14.6965 20.3598 15.3541 20.0874C16.0117 19.8151 16.6092 19.4158 17.1125 18.9125C17.6158 18.4092 18.015 17.8117 18.2874 17.1542C18.5598 16.4966 18.7 15.7918 18.7 15.08V9.39001C18.7 9.17253 18.6136 8.96396 18.4598 8.81018C18.306 8.6564 18.0975 8.57001 17.88 8.57001H1.11999C0.90251 8.57001 0.69394 8.6564 0.54016 8.81018C0.38638 8.96396 0.299988 9.17253 0.299988 9.39001Z" fill="#3B1F0F"/>
<path d="M18.35 6.08C18.3966 6.20493 18.4124 6.33925 18.3961 6.47159C18.3798 6.60392 18.3318 6.73038 18.2563 6.84025C18.1807 6.95013 18.0798 7.04019 17.9621 7.10281C17.8444 7.16543 17.7133 7.19877 17.58 7.2H1.57999C1.41701 7.20115 1.25622 7.16245 1.11162 7.08726C0.967015 7.01207 0.842979 6.90268 0.75031 6.76861C0.65764 6.63453 0.599146 6.47984 0.57992 6.31799C0.560693 6.15615 0.581316 5.99205 0.639995 5.84C0.94334 5.11264 1.40082 4.45973 1.98089 3.92627C2.56097 3.39281 3.24983 2.9915 3.99999 2.75V1.19C3.99867 1.09986 4.01528 1.01036 4.04886 0.926703C4.08244 0.843044 4.13232 0.766897 4.19559 0.70269C4.25887 0.638483 4.33428 0.587499 4.41744 0.552702C4.5006 0.517905 4.58985 0.49999 4.67999 0.5C4.86299 0.5 5.0385 0.572696 5.1679 0.702096C5.2973 0.831496 5.36999 1.007 5.36999 1.19V2.5C5.49999 2.5 5.57999 2.5 5.68999 2.5H8.95999V1.19C8.95999 1.007 9.03269 0.831496 9.16209 0.702096C9.29149 0.572696 9.46699 0.5 9.64999 0.5C9.83299 0.5 10.0085 0.572696 10.1379 0.702096C10.2673 0.831496 10.34 1.007 10.34 1.19V2.5H13.24C13.35 2.5 13.45 2.5 13.56 2.5V1.19C13.5587 1.09986 13.5753 1.01036 13.6089 0.926703C13.6424 0.843044 13.6923 0.766897 13.7556 0.70269C13.8189 0.638483 13.8943 0.587499 13.9774 0.552702C14.0606 0.517905 14.1498 0.49999 14.24 0.5C14.423 0.5 14.5985 0.572696 14.7279 0.702096C14.8573 0.831496 14.93 1.007 14.93 1.19V2.75C15.715 3.00985 16.4307 3.44461 17.0232 4.02146C17.6156 4.59832 18.0693 5.3022 18.35 6.08ZM6.22999 11.5C6.06232 11.502 5.89898 11.5535 5.76052 11.6481C5.62206 11.7427 5.51467 11.8761 5.45186 12.0316C5.38906 12.1871 5.37365 12.3577 5.40756 12.5219C5.44148 12.6861 5.52322 12.8366 5.64248 12.9545C5.76174 13.0724 5.91321 13.1523 6.07781 13.1843C6.24242 13.2163 6.41281 13.1989 6.56754 13.1343C6.72228 13.0697 6.85444 12.9607 6.94741 12.8212C7.04037 12.6816 7.08998 12.5177 7.08999 12.35C7.08736 12.1237 6.99559 11.9075 6.8346 11.7483C6.6736 11.5892 6.45636 11.5 6.22999 11.5ZM9.43999 11.5C9.27232 11.502 9.10898 11.5535 8.97052 11.6481C8.83206 11.7427 8.72467 11.8761 8.66186 12.0316C8.59906 12.1871 8.58365 12.3577 8.61756 12.5219C8.65148 12.6861 8.73322 12.8366 8.85248 12.9545C8.97174 13.0724 9.12321 13.1523 9.28781 13.1843C9.45242 13.2163 9.62281 13.1989 9.77754 13.1343C9.93228 13.0697 10.0644 12.9607 10.1574 12.8212C10.2504 12.6816 10.3 12.5177 10.3 12.35C10.2974 12.1237 10.2056 11.9075 10.0446 11.7483C9.8836 11.5892 9.66636 11.5 9.43999 11.5ZM12.68 11.5C12.5684 11.5 12.4578 11.522 12.3547 11.5647C12.2516 11.6074 12.1579 11.67 12.079 11.749C12 11.8279 11.9374 11.9216 11.8947 12.0247C11.852 12.1278 11.83 12.2384 11.83 12.35C11.83 12.4616 11.852 12.5722 11.8947 12.6753C11.9374 12.7784 12 12.8721 12.079 12.951C12.1579 13.03 12.2516 13.0926 12.3547 13.1353C12.4578 13.178 12.5684 13.2 12.68 13.2C12.7916 13.2 12.9021 13.178 13.0053 13.1353C13.1084 13.0926 13.2021 13.03 13.281 12.951C13.36 12.8721 13.4226 12.7784 13.4653 12.6753C13.508 12.5722 13.53 12.4616 13.53 12.35C13.53 12.2384 13.508 12.1278 13.4653 12.0247C13.4226 11.9216 13.36 11.8279 13.281 11.749C13.2021 11.67 13.1084 11.6074 13.0053 11.5647C12.9021 11.522 12.7916 11.5 12.68 11.5ZM6.21999 14.7C6.05232 14.702 5.88898 14.7535 5.75051 14.8481C5.61205 14.9427 5.50467 15.0761 5.44186 15.2316C5.37906 15.3871 5.36365 15.5577 5.39756 15.7219C5.43148 15.8861 5.51322 16.0366 5.63248 16.1545C5.75174 16.2724 5.90321 16.3523 6.06781 16.3843C6.23242 16.4163 6.40281 16.3989 6.55754 16.3343C6.71228 16.2697 6.84444 16.1607 6.93741 16.0212C7.03037 15.8816 7.07998 15.7177 7.07999 15.55C7.08 15.4375 7.05769 15.3262 7.01435 15.2224C6.97101 15.1186 6.9075 15.0245 6.82751 14.9454C6.74752 14.8663 6.65263 14.8039 6.54835 14.7618C6.44406 14.7197 6.33246 14.6987 6.21999 14.7ZM9.42999 14.7C9.26232 14.702 9.09898 14.7535 8.96052 14.8481C8.82205 14.9427 8.71467 15.0761 8.65186 15.2316C8.58906 15.3871 8.57365 15.5577 8.60756 15.7219C8.64148 15.8861 8.72322 16.0366 8.84248 16.1545C8.96174 16.2724 9.11321 16.3523 9.27781 16.3843C9.44242 16.4163 9.61281 16.3989 9.76754 16.3343C9.92228 16.2697 10.0544 16.1607 10.1474 16.0212C10.2404 15.8816 10.29 15.7177 10.29 15.55C10.29 15.4375 10.2677 15.3262 10.2243 15.2224C10.181 15.1186 10.1175 15.0245 10.0375 14.9454C9.95752 14.8663 9.86263 14.8039 9.75835 14.7618C9.65406 14.7197 9.54246 14.6987 9.42999 14.7ZM12.66 14.7C12.4928 14.7039 12.3305 14.7571 12.1933 14.8529C12.0562 14.9486 11.9504 15.0827 11.8891 15.2383C11.8278 15.394 11.8138 15.5642 11.8488 15.7277C11.8839 15.8913 11.9663 16.0409 12.086 16.1578C12.2056 16.2746 12.3571 16.3536 12.5214 16.3848C12.6857 16.416 12.8556 16.3981 13.0097 16.3332C13.1639 16.2683 13.2955 16.1594 13.388 16.0201C13.4806 15.8808 13.5299 15.7173 13.53 15.55C13.5287 15.4371 13.5051 15.3255 13.4607 15.2216C13.4163 15.1178 13.3518 15.0237 13.2711 14.9448C13.1903 14.8659 13.0947 14.8036 12.9899 14.7616C12.885 14.7196 12.7729 14.6987 12.66 14.7Z" fill="#3B1F0F"/>
</svg>
