<svg width="25" height="24" viewBox="0 0 25 24" fill="none" xmlns="http://www.w3.org/2000/svg">
<g opacity="0.3">
<path d="M16.2694 21.91L8.71941 22C8.06537 22.0093 7.43258 21.7678 6.95094 21.3253C6.46929 20.8827 6.17534 20.2725 6.12941 19.62L5.39941 9.18C5.38824 9.02726 5.40909 8.87387 5.46062 8.72965C5.51214 8.58543 5.59322 8.45356 5.69865 8.34249C5.80408 8.23141 5.93154 8.14357 6.07287 8.08459C6.21421 8.02562 6.3663 7.9968 6.51941 7.99999H18.2794C18.4316 7.99692 18.5828 8.02547 18.7234 8.08384C18.864 8.14221 18.991 8.22914 19.0963 8.33912C19.2015 8.44909 19.2828 8.57972 19.335 8.72275C19.3872 8.86577 19.4091 9.01806 19.3994 9.16999L18.8094 19.49C18.7738 20.141 18.4911 20.7538 18.0191 21.2035C17.5471 21.6532 16.9213 21.9059 16.2694 21.91Z" fill="#F1416C"/>
</g>
<path d="M14.6299 13.6H10.1699C9.97101 13.6 9.78024 13.521 9.63959 13.3803C9.49894 13.2397 9.41992 13.0489 9.41992 12.85C9.41992 12.6511 9.49894 12.4603 9.63959 12.3197C9.78024 12.179 9.97101 12.1 10.1699 12.1H14.6299C14.8288 12.1 15.0196 12.179 15.1603 12.3197C15.3009 12.4603 15.3799 12.6511 15.3799 12.85C15.3799 13.0489 15.3009 13.2397 15.1603 13.3803C15.0196 13.521 14.8288 13.6 14.6299 13.6Z" fill="#F1416C"/>
<path d="M13.8492 17.3H10.9492C10.7503 17.3 10.5595 17.221 10.4189 17.0803C10.2782 16.9397 10.1992 16.7489 10.1992 16.55C10.1992 16.3511 10.2782 16.1603 10.4189 16.0197C10.5595 15.879 10.7503 15.8 10.9492 15.8H13.8492C14.0481 15.8 14.2389 15.879 14.3795 16.0197C14.5202 16.1603 14.5992 16.3511 14.5992 16.55C14.5992 16.7489 14.5202 16.9397 14.3795 17.0803C14.2389 17.221 14.0481 17.3 13.8492 17.3Z" fill="#F1416C"/>
<path d="M20.6498 7.16H20.5398C15.1419 6.41778 9.66774 6.41778 4.26981 7.16C4.07643 7.18546 3.88075 7.1346 3.72426 7.01819C3.56776 6.90179 3.46277 6.729 3.43155 6.53647C3.40033 6.34395 3.44534 6.14683 3.55702 5.98693C3.66871 5.82704 3.8383 5.71694 4.02981 5.68C9.57911 4.8987 15.2105 4.8987 20.7598 5.68C20.9447 5.71036 21.1115 5.80882 21.2275 5.95601C21.3434 6.1032 21.4 6.28845 21.3862 6.4753C21.3724 6.66216 21.2892 6.83708 21.1529 6.96565C21.0166 7.09422 20.8371 7.16712 20.6498 7.17V7.16Z" fill="#F1416C"/>
<path d="M16.4004 5.84H8.40039L8.85039 3.52C8.93059 3.09863 9.15321 2.71764 9.48093 2.4409C9.80865 2.16416 10.2215 2.00849 10.6504 2H14.1804C14.617 2.00166 15.0395 2.15526 15.3753 2.43444C15.711 2.71363 15.9391 3.10097 16.0204 3.53L16.4004 5.84Z" fill="#F1416C"/>
</svg>
