<svg width="21" height="22" viewBox="0 0 21 22" fill="none" xmlns="http://www.w3.org/2000/svg">
<path opacity="0.3" d="M14.2598 1.79999H6.19977C2.91919 1.79999 0.259766 4.45942 0.259766 7.73999V15.85C0.259766 19.1306 2.91919 21.79 6.19977 21.79H14.2598C17.5403 21.79 20.1998 19.1306 20.1998 15.85V7.73999C20.1998 4.45942 17.5403 1.79999 14.2598 1.79999Z" fill="#3E97FF"/>
<path d="M12.9592 2.51999L13.9592 1.20999C14.1506 0.948973 14.3922 0.728823 14.6699 0.562468C14.9475 0.396114 15.2556 0.286908 15.5761 0.241263C15.8965 0.195618 16.2229 0.214453 16.5359 0.296663C16.849 0.378873 17.1425 0.5228 17.3992 0.719995L19.5592 2.4C20.0819 2.81086 20.4243 3.40898 20.5139 4.06781C20.6035 4.72663 20.4332 5.39447 20.0392 5.92999L19.0392 7.23999C18.3288 7.37774 17.597 7.35966 16.8943 7.18701C16.1916 7.01436 15.5348 6.69125 14.9692 6.23999C14.3932 5.79443 13.9168 5.23328 13.5706 4.59262C13.2245 3.95196 13.0162 3.24596 12.9592 2.51999ZM13.9592 7.72C12.8673 6.87787 12.0411 5.73918 11.5792 4.43999L7.89917 9.37C7.5856 9.76268 7.40991 10.2476 7.39917 10.75V14C7.391 14.2908 7.45155 14.5795 7.5759 14.8425C7.70024 15.1056 7.88487 15.3356 8.11479 15.5139C8.34472 15.6921 8.61345 15.8137 8.89916 15.8686C9.18488 15.9236 9.47952 15.9103 9.75917 15.83L12.8392 14.89C13.3059 14.7471 13.7133 14.4557 13.9992 14.06L17.6492 9.13C16.2939 9.03852 14.996 8.5479 13.9192 7.72H13.9592Z" fill="#3E97FF"/>
</svg>
