<svg width="25" height="24" viewBox="0 0 25 24" fill="none" xmlns="http://www.w3.org/2000/svg">
<path d="M12.4008 14.85C13.9748 14.85 15.2508 13.574 15.2508 12C15.2508 10.426 13.9748 9.15001 12.4008 9.15001C10.8268 9.15001 9.55078 10.426 9.55078 12C9.55078 13.574 10.8268 14.85 12.4008 14.85Z" fill="#F6C000"/>
<path opacity="0.3" d="M12.4008 14.85C13.9748 14.85 15.2508 13.574 15.2508 12C15.2508 10.426 13.9748 9.15001 12.4008 9.15001C10.8268 9.15001 9.55078 10.426 9.55078 12C9.55078 13.574 10.8268 14.85 12.4008 14.85Z" fill="#F6C000"/>
<path opacity="0.3" d="M12.4004 3.44C7.67039 3.44 2.40039 8.06 2.40039 12C2.40039 15.76 7.67039 20.56 12.4004 20.56C17.4004 20.56 22.4004 15.97 22.4004 12C22.4004 8.18 17.1304 3.44 12.4004 3.44ZM12.4004 16.35C11.54 16.35 10.699 16.0949 9.98366 15.6169C9.26831 15.1389 8.71076 14.4595 8.38151 13.6647C8.05227 12.8698 7.96613 11.9952 8.13397 11.1514C8.30182 10.3075 8.71612 9.53245 9.32448 8.92409C9.93283 8.31573 10.7079 7.90143 11.5517 7.73359C12.3956 7.56574 13.2702 7.65189 14.0651 7.98113C14.8599 8.31037 15.5393 8.86792 16.0173 9.58327C16.4953 10.2986 16.7504 11.1397 16.7504 12C16.7504 13.1537 16.2921 14.2601 15.4763 15.0759C14.6605 15.8917 13.5541 16.35 12.4004 16.35Z" fill="#F6C000"/>
</svg>
