<svg width="21" height="20" viewBox="0 0 21 20" fill="none" xmlns="http://www.w3.org/2000/svg">
<path opacity="0.3" d="M20 10C20 15.2467 15.7467 19.5 10.5 19.5C5.25329 19.5 1 15.2467 1 10C1 4.75329 5.25329 0.5 10.5 0.5C15.7467 0.5 20 4.75329 20 10Z" fill="#EEF5F9" stroke="white"/>
<path d="M10.2099 13.71L16.2099 7.71C16.3032 7.61676 16.3771 7.50607 16.4276 7.38425C16.4781 7.26243 16.504 7.13186 16.504 7C16.504 6.86814 16.4781 6.73757 16.4276 6.61575C16.3771 6.49393 16.3032 6.38324 16.2099 6.29C16.1167 6.19676 16.006 6.1228 15.8842 6.07234C15.7624 6.02188 15.6318 5.99591 15.4999 5.99591C15.3681 5.99591 15.2375 6.02188 15.1157 6.07234C14.9939 6.1228 14.8832 6.19676 14.7899 6.29L9.49994 11.59L6.20994 8.29C6.02164 8.1017 5.76624 7.99591 5.49994 7.99591C5.23364 7.99591 4.97825 8.1017 4.78994 8.29C4.60164 8.47831 4.49585 8.7337 4.49585 9C4.49585 9.2663 4.60164 9.5217 4.78994 9.71L8.78994 13.71C8.8829 13.8037 8.99351 13.8781 9.11536 13.9289C9.23722 13.9797 9.36793 14.0058 9.49994 14.0058C9.63195 14.0058 9.76266 13.9797 9.88452 13.9289C10.0064 13.8781 10.117 13.8037 10.2099 13.71Z" fill="#EEF5F9"/>
</svg>
