<svg width="18" height="17" viewBox="0 0 18 17" fill="none" xmlns="http://www.w3.org/2000/svg">
<path d="M4.62521 5.32002V16.38H0.935211V5.32002H4.62521ZM4.85521 1.91002C4.87521 2.42002 4.66521 2.92002 4.29521 3.27002C3.88521 3.65002 3.33521 3.84002 2.78521 3.82002H2.75521C2.21521 3.84002 1.67521 3.65002 1.28521 3.27002C0.915211 2.91002 0.715211 2.42002 0.725211 1.91002C0.715211 1.39002 0.925211 0.890023 1.29521 0.540023C1.70521 0.170023 2.24521 -0.0199781 2.79521 2.19431e-05C3.34521 -0.0299781 3.87521 0.170023 4.27521 0.540023C4.64521 0.900023 4.85521 1.39002 4.84521 1.91002H4.85521ZM17.8652 10.05V16.39H14.1952V10.48C14.2352 9.84002 14.0752 9.20002 13.7452 8.64002C13.4252 8.19002 12.8852 7.93002 12.3352 7.98002C11.9052 7.97002 11.4952 8.10002 11.1552 8.36002C10.8452 8.61002 10.5952 8.94002 10.4452 9.31002C10.3552 9.60002 10.3152 9.91002 10.3252 10.21V16.39H6.65521C6.66521 13.42 6.67521 11.01 6.67521 9.17002C6.67521 7.33002 6.67521 6.22002 6.66521 5.87002V5.33002H10.3252V6.93002H10.3052C10.4452 6.71002 10.5952 6.50002 10.7652 6.31002C10.9552 6.10002 11.1652 5.90002 11.3952 5.73002C11.6852 5.51002 12.0152 5.34002 12.3652 5.25002C12.7852 5.13002 13.2152 5.07002 13.6452 5.08002C14.8052 5.03002 15.9252 5.50002 16.7152 6.35002C17.5552 7.40002 17.9752 8.72002 17.8752 10.06L17.8652 10.05Z" fill="#2E3D52"/>
</svg>
