<svg width="115" height="48" viewBox="0 0 115 48" fill="none" xmlns="http://www.w3.org/2000/svg">
<g clip-path="url(#clip0_3012_1853)">
<g clip-path="url(#clip1_3012_1853)">
<g clip-path="url(#clip2_3012_1853)">
<path d="M37.4973 46.6827C37.32 46.5784 37.1322 46.5159 36.934 46.4846C36.4959 46.3802 36.2769 46.2551 36.2769 46.109C36.2769 45.9108 36.4438 45.8065 36.7984 45.8065C37.0592 45.8065 37.32 45.8587 37.5599 45.9839C37.5599 45.8274 37.5599 45.6709 37.5599 45.5145C37.3408 45.4415 37.1009 45.4102 36.8714 45.4102C36.6315 45.4102 36.3916 45.4519 36.183 45.5562C35.9744 45.6709 35.8388 45.9004 35.8492 46.1403C35.8492 46.3594 35.9535 46.5576 36.1308 46.6723C36.2664 46.7349 36.402 46.7871 36.5481 46.8184C36.715 46.8601 36.8819 46.9122 37.0488 46.9748C37.2157 47.0478 37.2991 47.1313 37.2991 47.2252C37.2991 47.4651 37.1009 47.5902 36.715 47.5902C36.402 47.5902 36.0995 47.4964 35.8492 47.3086C35.8805 47.4755 35.9013 47.6528 35.9013 47.8302C36.1726 47.9449 36.4646 47.9971 36.7567 47.9866C36.9966 47.9971 37.247 47.9449 37.4556 47.8197C37.6642 47.6841 37.7789 47.4442 37.7685 47.1939C37.7685 46.9853 37.6746 46.7975 37.4973 46.6827Z" fill="white"/>
<path d="M39.9276 45.4512L38.6968 47.9129H39.187L39.3957 47.4644H40.8351L41.0751 47.9442H41.6383L40.4388 45.4512H39.9276ZM39.5834 47.0784L40.1363 45.9623L40.6787 47.0784H39.5834Z" fill="white"/>
<path d="M44.5278 46.7967C44.5278 46.9323 44.5278 47.0679 44.5278 47.2035C44.4965 47.3392 44.3922 47.4435 44.2671 47.4956C44.1732 47.5373 44.0584 47.5582 43.9541 47.5478C43.7872 47.5686 43.6203 47.5165 43.4847 47.4122C43.37 47.287 43.3178 47.1201 43.3283 46.9532V45.4824H42.8171V47.0158C42.8171 47.6625 43.1822 47.9859 43.9228 47.9859C44.6634 47.9859 45.0181 47.6625 45.0181 47.0158V45.4824H44.5487L44.5278 46.7967Z" fill="white"/>
<path d="M47.5006 45.4826H46.4575V47.913H47.5736C47.9074 47.9339 48.2308 47.8296 48.4916 47.621C48.7419 47.3915 48.8671 47.0577 48.8462 46.7239C48.8671 46.3797 48.7315 46.0355 48.4811 45.7955C48.2099 45.5661 47.8553 45.4513 47.5006 45.4826ZM47.5006 47.4645H46.9061V45.9416H47.4693C48.0013 45.9416 48.2621 46.1711 48.2621 46.703C48.3142 47.0681 48.0639 47.4019 47.6988 47.4645C47.6467 47.4645 47.5945 47.4645 47.5424 47.4645H47.5006Z" fill="white"/>
<path d="M50.5883 45.4824H50.0771V47.9129H50.5883V45.4824Z" fill="white"/>
<path d="M54.5417 47.329C54.3644 47.1516 54.2705 46.9013 54.2809 46.6509C54.2809 46.4215 54.3644 46.2024 54.5208 46.0355C54.6982 45.879 54.9277 45.806 55.1571 45.8165C55.4388 45.8165 55.71 45.8895 55.9603 46.0251C55.9603 45.9208 55.9603 45.8269 55.9603 45.7226V45.5348C55.6891 45.4514 55.4179 45.4096 55.1363 45.4096C54.7816 45.3888 54.4374 45.5035 54.1662 45.733C53.9054 45.9834 53.7698 46.3276 53.7907 46.6822C53.7907 46.8596 53.822 47.0369 53.8845 47.2038C54.0932 47.7358 54.6252 48.0487 55.1884 47.9861C55.4701 47.9965 55.7517 47.9548 56.0125 47.8505C56.0125 47.6732 56.0334 47.4959 56.0751 47.329C55.8247 47.4854 55.5327 47.5689 55.2406 47.5689C54.9798 47.5897 54.7295 47.5063 54.5417 47.329Z" fill="white"/>
<path d="M58.401 45.3785C58.0568 45.3681 57.723 45.4933 57.4726 45.7332C57.0137 46.2756 57.0137 47.0579 57.4726 47.6004C58.0046 48.0802 58.7974 48.0802 59.3294 47.6004C59.5693 47.35 59.684 47.0162 59.6736 46.672C59.684 46.3278 59.5693 45.9835 59.3294 45.7332C59.079 45.4933 58.7452 45.3681 58.401 45.3785ZM58.9643 47.2561C58.6826 47.5691 58.2028 47.5899 57.8899 47.3083C57.869 47.2874 57.8586 47.277 57.8377 47.2561C57.7021 47.0892 57.6291 46.8806 57.6395 46.672C57.6291 46.4529 57.7021 46.2443 57.8377 46.0774C58.1402 45.7645 58.6305 45.7541 58.9434 46.0566C58.9434 46.0566 58.9539 46.067 58.9643 46.0774C59.0999 46.2443 59.1625 46.4529 59.152 46.672C59.1729 46.891 59.0999 47.1101 58.9643 47.2874V47.2561Z" fill="white"/>
<path d="M62.6676 46.7967C62.6884 46.9323 62.6884 47.0679 62.6676 47.2035C62.6363 47.3392 62.5424 47.4435 62.4172 47.4956C62.3129 47.5373 62.2086 47.5478 62.1043 47.5478C61.9374 47.5582 61.76 47.5165 61.6244 47.4122C61.5097 47.287 61.4575 47.1201 61.468 46.9532V45.4824H60.9673V47.0158C60.9673 47.6625 61.3324 47.9859 62.0625 47.9859C62.7927 47.9859 63.1682 47.6625 63.1682 47.0158V45.4824H62.6988L62.6676 46.7967Z" fill="white"/>
<path d="M66.527 47.214L65.0562 45.4824H64.5659V47.9129H65.0562V46.1813L66.527 47.9129H67.0068V45.4824H66.527V47.214Z" fill="white"/>
<path d="M69.0408 47.3292C68.8635 47.1519 68.78 46.9015 68.7905 46.6512C68.78 46.4217 68.8635 46.2026 69.0199 46.0357C69.1973 45.8897 69.4267 45.8063 69.6562 45.8167C69.9379 45.8167 70.2195 45.8897 70.4698 46.0253C70.4594 45.921 70.4594 45.8271 70.4698 45.7228V45.5351C70.2091 45.4412 69.9274 45.389 69.6458 45.3786C69.2911 45.3682 68.9469 45.4829 68.6757 45.7019C68.4149 45.9523 68.2793 46.2965 68.3002 46.6512C68.3002 46.8285 68.3315 47.0058 68.3941 47.1727C68.6027 47.7047 69.1451 48.0281 69.7084 47.9551C69.99 47.9551 70.2612 47.9133 70.522 47.8195C70.522 47.6421 70.5429 47.4648 70.5846 47.2979C70.3342 47.4544 70.0526 47.5378 69.7605 47.5378C69.4998 47.5691 69.239 47.4961 69.0408 47.3292Z" fill="white"/>
<path d="M72.3056 45.4824H71.7944V47.9129H72.3056V45.4824Z" fill="white"/>
<path d="M74.2458 45.4824H73.7451V47.9129H75.4662V47.4643H74.2458V45.4824Z" fill="white"/>
<path d="M79.7013 45.3785C79.3571 45.3681 79.0233 45.4933 78.7729 45.7332C78.314 46.2756 78.314 47.0579 78.7729 47.6004C79.3049 48.0802 80.0977 48.0802 80.6297 47.6004C80.8696 47.35 80.9843 47.0162 80.9739 46.672C80.9843 46.3278 80.8696 45.9835 80.6297 45.7332C80.3793 45.4933 80.0455 45.3681 79.7013 45.3785ZM80.2646 47.2561C80.129 47.423 79.9204 47.5169 79.7013 47.5065C79.4822 47.5065 79.2736 47.423 79.138 47.2561C79.0024 47.0892 78.9294 46.8806 78.9398 46.672C78.9294 46.4529 78.992 46.2443 79.1276 46.0774C79.2736 45.9105 79.4822 45.8271 79.7013 45.8375C79.9204 45.8271 80.129 45.9105 80.2646 46.0774C80.4002 46.2443 80.4628 46.4529 80.4523 46.672C80.4732 46.891 80.4002 47.1101 80.2646 47.2874V47.2561Z" fill="white"/>
<path d="M82.2361 47.9129H82.7368V46.8906H83.6964V46.4838H82.7368V45.8997H83.8633V45.4824H82.2361V47.9129Z" fill="white"/>
<path d="M87.5455 46.8385H88.5052V46.4316H87.5455V45.8788H88.6512V45.4824H87.0344V47.9129H88.7138V47.5061H87.5455V46.8385Z" fill="white"/>
<path d="M91.9684 47.214L90.4976 45.4824H90.0073V47.9129H90.4976V46.1813L91.9684 47.9129H92.4482V45.4824H91.9684V47.214Z" fill="white"/>
<path d="M95.2124 47.1311H95.734V47.4649C95.5566 47.5275 95.3793 47.5588 95.1916 47.5588C94.9412 47.5588 94.7013 47.4858 94.5135 47.3293C94.3258 47.1624 94.2215 46.9225 94.2319 46.6722C94.211 46.4322 94.2945 46.2028 94.4614 46.0359C94.6387 45.869 94.8786 45.7855 95.1185 45.796C95.4523 45.8168 95.7861 45.9107 96.0782 46.0672C96.0678 45.9003 96.0678 45.7438 96.0782 45.5769C95.7861 45.4517 95.4732 45.3891 95.1603 45.3891C94.7847 45.3683 94.4197 45.483 94.1172 45.7125C93.846 45.9524 93.6895 46.3071 93.7103 46.6722C93.6895 47.0372 93.8459 47.3919 94.1276 47.6318C94.4197 47.8717 94.7952 47.9865 95.1707 47.9656C95.5253 47.9656 95.88 47.8926 96.2138 47.757V46.7139H95.2229V47.1311H95.2124Z" fill="white"/>
<path d="M98.0599 45.4824H97.5488V47.9129H98.0599V45.4824Z" fill="white"/>
<path d="M101.45 47.214L99.9793 45.4824H99.489V47.9129H99.9688V46.1813L101.45 47.9129H101.93V45.4824H101.45V47.214Z" fill="white"/>
<path d="M103.87 46.8385H104.83V46.4316H103.87V45.8788H104.976V45.4824H103.359V47.9129H105.038V47.5061H103.87V46.8385Z" fill="white"/>
<path d="M106.843 46.8385H107.803V46.4316H106.843V45.8788H107.949V45.4824H106.342V47.9129H108.022V47.5061H106.843V46.8385Z" fill="white"/>
<path d="M111.235 47.3916C111.182 47.2769 111.12 47.1726 111.047 47.0787C110.963 46.9953 110.859 46.9327 110.744 46.891C111.089 46.8701 111.36 46.578 111.339 46.2338V46.2129C111.36 45.973 111.245 45.7435 111.047 45.6184C110.838 45.5245 110.598 45.4723 110.369 45.4828H109.326V47.9132H109.837V47.0057H110.118C110.191 46.9848 110.275 46.9848 110.348 47.0057C110.504 47.0683 110.692 47.3708 110.901 47.8819H111.537C111.495 47.8298 111.464 47.7672 111.433 47.7046C111.36 47.6003 111.297 47.496 111.235 47.3916ZM110.348 46.6302H109.826V45.9H110.411C110.525 45.9 110.63 45.9104 110.734 45.9626C110.828 46.0252 110.88 46.1295 110.869 46.2338C110.869 46.505 110.692 46.6302 110.327 46.6302H110.348Z" fill="white"/>
<path d="M114.186 46.6827C114.019 46.5784 113.832 46.5159 113.634 46.4846C113.185 46.3802 112.966 46.2551 112.966 46.109C112.966 45.963 113.143 45.8065 113.487 45.8065C113.748 45.8065 114.009 45.8587 114.249 45.9839C114.249 45.8274 114.249 45.6709 114.249 45.5145C114.03 45.4415 113.8 45.4102 113.571 45.4102C113.331 45.4102 113.091 45.4519 112.872 45.5562C112.663 45.6709 112.538 45.9004 112.549 46.1403C112.549 46.349 112.643 46.5576 112.82 46.6723C112.956 46.7349 113.102 46.7871 113.248 46.8184C113.414 46.8601 113.581 46.9122 113.748 46.9748C113.915 47.0478 113.988 47.1313 113.988 47.2252C113.988 47.319 113.8 47.5902 113.414 47.5902C113.102 47.5902 112.799 47.4964 112.549 47.3086C112.559 47.4859 112.559 47.6528 112.549 47.8302C112.82 47.9449 113.122 47.9971 113.414 47.9866C113.654 47.9971 113.905 47.9449 114.113 47.8197C114.322 47.6841 114.437 47.4442 114.426 47.1939C114.447 46.9957 114.353 46.7975 114.186 46.6827Z" fill="white"/>
<path d="M37.5391 38.7445C37.7685 38.7445 37.8833 38.6193 37.8833 38.3794C37.8833 38.1395 37.7685 38.0039 37.5391 38.0039C37.3096 38.0039 37.1948 38.1291 37.1948 38.3794C37.1948 38.6298 37.3096 38.7445 37.5391 38.7445Z" fill="white"/>
<path d="M41.6071 42.1133C41.3672 42.1133 41.2524 42.2385 41.2524 42.4888C41.2524 42.7391 41.3672 42.8539 41.6071 42.8539C41.847 42.8539 41.9513 42.7391 41.9513 42.4888C41.9513 42.2385 41.8366 42.1133 41.6071 42.1133Z" fill="white"/>
<path d="M40.9291 42.4888C40.9291 42.2385 40.8144 42.1133 40.5849 42.1133C40.3554 42.1133 40.2302 42.2385 40.2302 42.4888C40.2302 42.7391 40.345 42.8539 40.5849 42.8539C40.8248 42.8539 40.9291 42.7391 40.9291 42.4888Z" fill="white"/>
<path d="M47.1877 38.6189H46.6244V41.3414H46.2071C46.009 41.3414 45.8212 41.2684 45.6856 41.1328C45.55 40.9867 45.477 40.799 45.477 40.6008V39.1196H44.9137V41.3205H44.4964C44.2983 41.3205 44.1105 41.2475 43.9749 41.1119C43.8393 40.9659 43.7663 40.7781 43.7663 40.5799V39.1196H43.203V41.3205H42.1599C41.9826 41.3205 41.8052 41.2684 41.6801 41.1432C41.5549 41.018 41.4819 40.8511 41.4923 40.6738V38.5876H40.8977V41.3101H40.0111C39.8338 41.3101 39.6669 41.2475 39.5313 41.1328C39.4061 41.0076 39.3435 40.8407 39.3539 40.6634V38.5771H38.7802V41.8316C38.8219 42.3636 38.436 42.833 37.8936 42.8852C37.8206 42.8852 37.7371 42.8852 37.6641 42.8852H37.3094C37.0591 42.8956 36.8192 42.7809 36.6627 42.5827C36.5063 42.3323 36.4228 42.0403 36.4437 41.7482C36.4332 41.2579 36.5063 40.7677 36.6731 40.3087H36.1099C35.9221 40.7781 35.8387 41.2788 35.8387 41.7899C35.8178 42.2176 35.943 42.6348 36.2038 42.9686C36.4437 43.2607 36.8088 43.4172 37.1843 43.4067H37.6641C38.4673 43.5215 39.2183 42.9686 39.3331 42.1654C39.3539 42.0403 39.3539 41.9047 39.3331 41.7691V41.4144C39.4582 41.6543 39.6982 41.8003 39.9694 41.7899H41.4819V41.404C41.6279 41.6752 41.9304 41.8212 42.2329 41.7899H43.808V41.404C43.954 41.6752 44.2565 41.8212 44.559 41.7899H45.5187V41.404C45.6647 41.6752 45.9672 41.8212 46.2697 41.7899H47.2294L47.1877 38.6293V38.6189Z" fill="white"/>
<path d="M52.5703 38.004C52.7998 38.004 52.9145 37.8788 52.9145 37.6284C52.9145 37.3781 52.7998 37.2529 52.5703 37.2529C52.3408 37.2529 52.2261 37.3781 52.2261 37.6284C52.2261 37.8788 52.3408 38.004 52.5703 38.004Z" fill="white"/>
<path d="M66.5165 41.3416H65.4734C65.2961 41.3416 65.1188 41.2894 64.9936 41.1643C64.8684 41.0391 64.7954 40.8722 64.8058 40.6949V36.7832H64.2113V41.3416H62.2606C62.438 41.2164 62.5736 41.0391 62.657 40.8409C62.7509 40.6323 62.8031 40.3924 62.8031 40.1629C62.8239 39.7248 62.6779 39.2971 62.3858 38.9737C62.0937 38.6817 61.6869 38.5356 61.2801 38.5461C60.842 38.5252 60.4248 38.7234 60.1431 39.0572C59.8406 39.4118 59.6842 39.8708 59.705 40.3402C59.6842 40.7053 59.7572 41.0599 59.9345 41.3833H58.4324V39.7456C58.4742 39.1406 58.2551 38.5461 57.8483 38.0975C57.3893 37.6803 56.7843 37.4612 56.1585 37.5029C55.6891 37.5029 55.2197 37.5655 54.7711 37.7116L54.9276 38.2227C55.324 38.0975 55.7412 38.0349 56.1585 38.0349C56.6279 37.9932 57.0973 38.1497 57.4519 38.473C57.7544 38.8486 57.9109 39.318 57.8692 39.7978V41.3833H56.8261V38.9946H56.0854C55.6056 38.9633 55.1362 39.0989 54.7398 39.3701C54.4165 39.6205 54.2392 40.0064 54.26 40.4132C54.2287 40.7992 54.406 41.1643 54.7294 41.3729H53.5507C53.3734 41.3729 53.196 41.3207 53.0709 41.1955C52.9457 41.0704 52.8831 40.9035 52.8935 40.7261V38.6399H52.299V41.3624H51.4019C51.2141 41.3624 51.0368 41.279 50.9012 41.1538C50.7552 41.0391 50.6509 40.8826 50.6091 40.7053C50.4631 39.7248 49.8581 38.8798 48.9715 38.4313L48.7524 38.9424C49.5973 39.464 50.1293 40.3715 50.171 41.3624H47.9492V41.884H50.7447V41.5085C50.8803 41.7275 51.1203 41.8631 51.381 41.8736H52.8935V41.4876C53.0396 41.7588 53.3421 41.9049 53.6446 41.8736H64.8475V41.4876C65.004 41.7484 65.2961 41.9049 65.5986 41.8736H67.1319V36.7936H66.5165V41.3416ZM56.3149 41.3416H55.7621C55.5117 41.3416 55.2614 41.2581 55.0841 41.0808C54.9067 40.9035 54.8233 40.6531 54.8337 40.4028C54.8337 39.7874 55.2405 39.4744 56.0437 39.4744H56.3149V41.3416ZM61.9477 41.0182C61.7495 41.2373 61.4574 41.3624 61.1654 41.3416H60.5604C60.3726 41.0287 60.2892 40.6636 60.3205 40.2985C60.2996 39.9647 60.4039 39.6413 60.6021 39.3701C60.915 38.9737 61.4887 38.9111 61.8747 39.2241C61.906 39.2449 61.9373 39.2762 61.9686 39.3075C62.1459 39.5266 62.2398 39.8082 62.2293 40.1003C62.2606 40.4341 62.1563 40.7574 61.9477 41.0182Z" fill="white"/>
<path d="M70.8559 38.004C71.0959 38.004 71.2106 37.8788 71.2106 37.6284C71.2106 37.3781 71.0959 37.2529 70.8559 37.2529C70.616 37.2529 70.5117 37.3781 70.5117 37.6284C70.5117 37.8788 70.6265 38.004 70.8559 38.004Z" fill="white"/>
<path d="M71.8883 38.004C72.1178 38.004 72.2326 37.8788 72.2326 37.6284C72.2326 37.3781 72.1178 37.2529 71.8883 37.2529C71.6484 37.2529 71.5337 37.3781 71.5337 37.6284C71.5337 37.8788 71.6484 38.004 71.8883 38.004Z" fill="white"/>
<path d="M74.2041 42.4888C74.2041 42.2385 74.0893 42.1133 73.8598 42.1133C73.6304 42.1133 73.5156 42.2385 73.5156 42.4888C73.5156 42.7391 73.6304 42.8539 73.8598 42.8539C74.0893 42.8539 74.2041 42.7391 74.2041 42.4888Z" fill="white"/>
<path d="M74.7882 38.6189H74.1937V41.3414H72.6186V38.6189H71.5755C71.0956 38.5981 70.6158 38.765 70.2507 39.0779C69.9065 39.4013 69.7292 39.8707 69.75 40.3401C69.6874 41.112 70.2611 41.8004 71.033 41.863C71.1165 41.863 71.1895 41.863 71.273 41.863H74.7569L74.7882 38.6189ZM72.0553 41.3414H71.2834C70.6784 41.3414 70.3759 40.9972 70.3759 40.2983C70.355 39.975 70.4698 39.6516 70.6993 39.4221C70.96 39.2031 71.2938 39.0883 71.6276 39.1092H72.0553V41.3414Z" fill="white"/>
<path d="M74.5381 42.4888C74.5381 42.7391 74.6528 42.8539 74.8823 42.8539C75.1118 42.8539 75.2265 42.7391 75.2265 42.4888C75.2265 42.2385 75.1118 42.1133 74.8823 42.1133C74.6528 42.1133 74.5381 42.2489 74.5381 42.4888Z" fill="white"/>
<path d="M76.551 38.4102L76.332 38.9213C77.1769 39.4428 77.7089 40.3503 77.7506 41.3413H75.5288V41.8628H78.3243V41.3517C78.0531 39.7453 77.4586 38.7648 76.551 38.4102Z" fill="white"/>
<path d="M92.6879 41.3417H91.8013C91.6239 41.3417 91.457 41.2791 91.3214 41.1643C91.1963 41.0392 91.1232 40.8723 91.1337 40.6949V38.6087H90.5704V41.3312H90.1532C89.955 41.3312 89.7672 41.2582 89.6316 41.1226C89.496 40.9766 89.423 40.7888 89.423 40.5906V39.1198H88.8597V41.3208H88.4216C88.2234 41.3208 88.0357 41.2478 87.9001 41.1122C87.7644 40.9661 87.6914 40.7784 87.6914 40.5802V39.1198H87.1281V41.3208H85.4279C85.1775 41.3208 84.9272 41.2686 84.6873 41.1748C85.0732 40.914 85.3757 40.5489 85.5635 40.1317C85.7721 39.7144 85.8869 39.2659 85.8869 38.7965C85.4696 38.494 84.9481 38.3375 84.4265 38.3688C84.0614 38.3688 83.7068 38.4523 83.3834 38.5983C83.06 38.7339 82.7888 38.9634 82.5802 39.245C82.6532 39.6205 82.7888 39.9752 82.9974 40.2881C83.1852 40.6115 83.4355 40.9036 83.7381 41.133C83.4877 41.2269 83.2165 41.2686 82.9453 41.2686H81.6936V38.5461H80.8174C80.3375 38.5253 79.8577 38.6922 79.4926 39.0051C79.1484 39.3285 78.9711 39.7979 78.9919 40.2673C78.9606 40.6845 79.1067 41.0913 79.3779 41.3938C79.6804 41.6755 80.0768 41.8111 80.4836 41.7902H81.1303V41.978C81.1407 42.2283 81.0468 42.4682 80.8695 42.6351C80.6713 42.802 80.421 42.8855 80.1706 42.875C79.8368 42.8646 79.5135 42.7707 79.2214 42.6038L78.9502 43.0524C79.3049 43.2818 79.7221 43.407 80.1498 43.3966C80.567 43.4174 80.9738 43.2818 81.2868 43.0106C81.5684 42.7394 81.7144 42.3535 81.6936 41.9675V41.8111H82.9557C83.3938 41.8111 83.8215 41.6963 84.197 41.4773C84.5725 41.6859 85.0002 41.8006 85.4383 41.8111H87.6706V41.4251C87.8166 41.6963 88.1191 41.8424 88.4216 41.8111H89.4647V41.4251C89.6107 41.6963 89.9132 41.8424 90.2157 41.8111H91.1754V41.4251C91.3006 41.6546 91.5509 41.8006 91.8117 41.8006H93.3242V36.7207H92.7296L92.6879 41.3417ZM81.2137 41.3417H80.5879C79.9724 41.3417 79.6699 40.9974 79.6699 40.2986C79.6491 39.9752 79.7638 39.6518 79.9933 39.4223C80.2541 39.2033 80.5879 39.0886 80.9217 39.1094H81.2137V41.3417ZM84.2909 40.9036C83.7902 40.5489 83.446 40.0378 83.2999 39.4432C83.446 39.2867 83.6337 39.1616 83.8319 39.0781C84.0406 38.9738 84.2805 38.9217 84.51 38.9217C84.802 38.9008 85.0837 38.9634 85.334 39.1094C85.2923 39.85 84.8855 40.5176 84.2492 40.9036H84.2909Z" fill="white"/>
<path d="M95.014 36.7832H94.4194V41.8631H95.014V36.7832Z" fill="white"/>
<path d="M99.7917 38.004C100.021 38.004 100.136 37.8788 100.136 37.6284C100.136 37.3781 100.021 37.2529 99.7917 37.2529C99.5517 37.2529 99.437 37.3781 99.437 37.6284C99.437 37.8788 99.5517 38.004 99.7917 38.004Z" fill="white"/>
<path d="M98.7692 38.004C98.9987 38.004 99.1134 37.8788 99.1134 37.6284C99.1134 37.3781 98.9987 37.2529 98.7692 37.2529C98.5293 37.2529 98.4146 37.3781 98.4146 37.6284C98.4146 37.8788 98.5293 38.004 98.7692 38.004Z" fill="white"/>
<path d="M103.025 37.9835V37.6497L102.472 37.7227H102.358C102.232 37.6706 102.149 37.5454 102.149 37.4098C102.149 37.1803 102.264 37.0655 102.504 37.0655C102.618 37.0655 102.733 37.0968 102.837 37.149L102.931 36.8465C102.796 36.7735 102.65 36.7422 102.493 36.7422C102.316 36.7422 102.139 36.7839 101.992 36.8987C101.878 37.0134 101.805 37.1803 101.815 37.3472C101.815 37.5141 101.899 37.681 102.045 37.7644H101.732V38.0669L102.42 37.9731H103.025V37.9835Z" fill="white"/>
<path d="M105.111 42.1133C104.882 42.1133 104.767 42.2385 104.767 42.4888C104.767 42.7391 104.882 42.8539 105.111 42.8539C105.341 42.8539 105.456 42.7391 105.456 42.4888C105.456 42.2385 105.362 42.1133 105.111 42.1133Z" fill="white"/>
<path d="M104.465 42.4888C104.465 42.2385 104.339 42.1133 104.11 42.1133C103.88 42.1133 103.766 42.2385 103.766 42.4888C103.766 42.7391 103.88 42.8539 104.11 42.8539C104.287 42.8748 104.444 42.7391 104.465 42.5618C104.465 42.541 104.465 42.5097 104.465 42.4888Z" fill="white"/>
<path d="M111.37 41.8631H112.716V36.7832H112.121V41.3416H110.567V39.7039C110.608 39.0989 110.389 38.5043 109.983 38.0558C109.524 37.6386 108.919 37.4195 108.293 37.4612C107.823 37.4612 107.354 37.5238 106.905 37.6698L107.062 38.181C107.458 38.0558 107.876 37.9932 108.293 37.9932C108.762 37.9515 109.232 38.108 109.586 38.4313C109.889 38.8068 110.045 39.2762 110.003 39.7561V41.3416H108.96V38.9529H108.157C107.677 38.9216 107.198 39.0572 106.801 39.3284C106.478 39.5787 106.3 39.9647 106.321 40.3715C106.29 40.7574 106.467 41.1225 106.791 41.3311H105.633C105.445 41.3624 105.257 41.3207 105.111 41.206C104.986 41.0808 104.924 40.9139 104.934 40.7366V38.6504H104.339V41.3729H103.296C103.119 41.3729 102.942 41.3207 102.816 41.1955C102.691 41.0704 102.618 40.9035 102.629 40.7261V38.6399H102.034V41.3624H100.522V38.6399H99.4785C98.9987 38.6191 98.5189 38.786 98.1538 39.0989C97.8096 39.4223 97.6322 39.8917 97.6531 40.3611C97.5905 41.133 98.1642 41.8214 98.9361 41.884C99.0196 41.884 99.0926 41.884 99.176 41.884H102.66V41.498C102.816 41.7588 103.109 41.9153 103.411 41.884H104.944V41.498C105.09 41.7693 105.393 41.9153 105.695 41.884H111.37V41.8631ZM99.9688 41.3416H99.2073C98.5919 41.3416 98.2894 40.9974 98.2894 40.2985C98.2685 39.9751 98.3833 39.6517 98.6128 39.4223C98.8735 39.2032 99.2073 39.0885 99.5411 39.1093H99.9688V41.3416ZM108.428 41.3416H107.876C107.625 41.3416 107.385 41.2581 107.208 41.0808C107.031 40.9035 106.937 40.6531 106.947 40.4028C106.947 39.7874 107.354 39.4744 108.157 39.4744H108.428V41.3416Z" fill="white"/>
<path d="M114.437 36.7832H113.842V41.8631H114.437V36.7832Z" fill="white"/>
<path d="M55.2404 30.1907C53.0916 31.6302 50.1292 32.3395 46.4261 32.3395C42.744 32.423 39.0722 31.745 35.6613 30.3472C35.6195 28.1775 35.4109 26.0079 35.0354 23.8695C38.2064 26.1748 42.0346 27.3952 45.9567 27.343C50.7967 27.343 53.2585 25.8201 53.2585 22.816C53.2585 21.606 52.2154 20.5211 50.1292 19.6241C48.0742 18.8417 45.9672 18.1846 43.8184 17.6735C41.9825 17.2875 40.1988 16.6721 38.5089 15.8376C36.2454 14.3981 34.9207 11.8529 35.0354 9.17213C34.8685 6.12626 36.4957 3.26815 39.2078 1.87039C41.899 0.535209 44.8928 -0.101086 47.8969 0.0345181C50.8176 0.0553802 53.7174 0.472623 56.5234 1.28625C56.5234 2.84047 56.6381 4.83281 56.8676 7.21109C53.9261 5.70902 50.6611 4.95798 47.3545 5.031C42.9526 5.031 40.7621 6.27229 40.7621 8.73403C40.7621 10.6429 43.5471 12.218 49.1069 13.4489C51.5791 13.8557 53.9574 14.711 56.127 15.9523C58.2237 17.4127 59.3919 19.8744 59.2042 22.4196C59.1416 25.9036 57.8586 28.5113 55.2404 30.1907Z" fill="white"/>
<path d="M90.2888 30.7016C87.0134 31.8803 83.5503 32.4331 80.0768 32.3392C71.6068 32.3392 66.1513 29.0639 63.6166 22.4714C62.8238 20.3852 62.4274 18.1738 62.4483 15.952C62.4483 10.8825 64.0025 6.95002 67.1214 4.10234C70.2403 1.25466 74.225 0.00292969 79.3362 0.00292969C82.8514 0.00292969 86.3459 0.545345 89.7047 1.59888C89.7047 2.64199 89.6316 3.39303 89.6316 3.90415C89.6316 5.1976 89.7673 6.49105 90.0176 7.76364C86.8883 6.05295 83.4043 5.11415 79.8369 5.0307C76.9266 4.8951 74.0789 5.91734 71.9197 7.87838C69.8752 9.91244 68.7799 12.7184 68.9156 15.6078C68.7382 18.758 69.9065 21.8247 72.1179 24.0674C74.4649 26.1953 77.5629 27.3115 80.7339 27.1446C84.4161 27.0507 88.0044 25.9971 91.165 24.1091C90.6852 26.2788 90.3931 28.4797 90.2888 30.7016Z" fill="white"/>
<path d="M115 6.16769C114.781 4.1232 114.677 2.05785 114.687 0.00292969H94.4092L100.803 5.0307C100.803 5.0307 111.203 4.31096 115 6.16769Z" fill="white"/>
<path d="M108.522 18.685V13.6572C102.837 13.6572 94.4092 16.1711 94.4092 16.1711C94.4092 16.1711 102.764 18.685 108.522 18.685Z" fill="#E3AD56"/>
<path d="M115 26.1748C114.781 28.2193 114.677 30.2742 114.687 32.3291H94.4092L100.803 27.3014C100.803 27.3014 111.203 28.0315 115 26.1748Z" fill="white"/>
<path d="M26.8784 17.2346L29.361 13.5107L14.8305 23.6184L0.300049 13.5107L2.78264 17.2346L12.3375 25.3604L2.31324 32.3284H9.1143L14.8305 27.4779L20.5467 32.3284H27.3478L17.3235 25.3604L26.8784 17.2346Z" fill="#E3AD56"/>
<path d="M23.7491 8.86974C23.77 8.5881 23.77 8.29603 23.7491 8.01439C20.8284 6.0012 18.7839 5.51094 16.5725 5.64654C18.6587 5.01025 20.8493 4.82249 23.0085 5.07283C22.4869 3.86283 21.7046 2.778 20.7345 1.88093C18.8152 2.27731 17.0628 3.26826 15.7172 4.69732C16.4056 3.37257 16.9376 1.97481 17.2923 0.524889C15.7068 0.0659223 14.0378 0.0659223 12.4523 0.524889C12.8069 1.97481 13.3389 3.37257 14.0273 4.69732C12.6817 3.27869 10.9398 2.29817 9.02044 1.90179C8.05035 2.79886 7.26802 3.88369 6.74647 5.0937C8.91613 4.84335 11.1067 5.03111 13.1929 5.66741C10.971 5.5318 8.92656 6.02206 6.00586 8.03526V8.8906C6.00586 10.0172 6.20405 11.1437 6.60043 12.1973C8.50932 10.2988 10.5851 8.57767 12.8069 7.05474C10.293 9.02621 8.67621 11.926 8.32156 15.1075C9.31251 16.2445 10.5642 17.1207 11.9829 17.6423C12.2019 14.0644 12.9842 10.5491 14.2986 7.2112C14.3611 11.3002 13.8396 18.1012 13.631 21.387L14.9349 22.2945L16.1866 21.4183C15.9884 18.1534 15.4668 11.3106 15.519 7.2112C16.8333 10.5491 17.6156 14.0644 17.8451 17.6423C19.2637 17.1207 20.5155 16.2445 21.5064 15.1075C21.1518 11.926 19.5245 9.02621 17.0106 7.05474C19.2325 8.57767 21.3082 10.2988 23.2171 12.1973C23.5926 11.1333 23.77 10.0067 23.7491 8.86974Z" fill="url(#paint0_radial_3012_1853)"/>
<path d="M23.749 8.7862V7.93085C20.8179 5.90722 18.763 5.41696 16.5307 5.55257C18.6274 4.91627 20.8283 4.72851 22.998 4.97886C22.4764 3.75842 21.6941 2.66316 20.7136 1.77652C18.7943 2.18333 17.0419 3.15342 15.6963 4.58248C16.3951 3.2473 16.9271 1.82868 17.2818 0.357897C15.6963 -0.10107 14.0064 -0.10107 12.4209 0.357897C12.7756 1.82868 13.3075 3.2473 13.996 4.58248C12.6504 3.15342 10.898 2.1729 8.97864 1.77652C7.99812 2.66316 7.21579 3.75842 6.69424 4.97886C8.8639 4.72851 11.0649 4.91627 13.1615 5.55257C10.9397 5.41696 8.88476 5.90722 5.95363 7.93085C5.93277 8.21249 5.93277 8.50456 5.95363 8.7862C5.95363 9.92319 6.15182 11.0497 6.54821 12.1137C8.46752 10.2048 10.5642 8.47327 12.8068 6.95033C10.2825 8.93223 8.65528 11.8425 8.30063 15.0344C9.29158 16.1818 10.5642 17.058 11.9828 17.5796C12.2018 13.9809 12.9842 10.4447 14.3089 7.08593C14.3089 11.1853 13.85 18.0177 13.6413 21.3243L14.9452 22.2318L16.2074 21.3452C15.9988 18.0698 15.4772 11.2062 15.5294 7.08593C16.8541 10.4447 17.6364 13.9809 17.8659 17.5796C19.2845 17.058 20.5467 16.1818 21.5376 15.0344C21.183 11.8425 19.5557 8.93223 17.0314 6.95033C19.2741 8.4837 21.3603 10.2048 23.2901 12.1137C23.6343 11.0393 23.7908 9.91275 23.749 8.7862Z" fill="url(#paint1_radial_3012_1853)"/>
<path opacity="0.7" d="M16.4472 5.55256C17.3756 5.3648 18.377 5.10402 19.4722 4.94756C19.3575 4.72851 19.2219 4.50945 19.0654 4.31126C18.6378 3.77928 18.0953 3.35161 17.4695 3.05954C16.7915 3.48721 16.1656 3.99833 15.6128 4.58247C15.9465 3.97747 16.2282 3.35161 16.4681 2.70488C15.3311 2.4441 14.1628 2.39195 13.005 2.55885C13.2553 3.25773 13.5578 3.93575 13.9125 4.58247C13.2553 3.87316 12.4834 3.27859 11.6385 2.80919C9.94869 3.20557 8.31101 3.821 6.76721 4.63463L6.61074 4.97885C8.78041 4.72851 10.9814 4.91627 13.078 5.55256C10.8562 5.41696 8.80127 5.90722 5.87014 7.93084C5.84928 8.21248 5.84928 8.50455 5.87014 8.78619C5.87014 9.92318 6.06833 11.0497 6.46471 12.1137C8.38403 10.2048 10.4807 8.47326 12.7233 6.95032C10.199 8.93223 8.57178 11.8425 8.21713 15.0344C9.20808 16.1818 10.4807 17.058 11.8993 17.5796C12.1183 13.9809 12.9007 10.4447 14.2254 7.08593C14.2254 10.1318 13.9959 14.6589 13.7665 18.1533C14.4758 17.4961 15.1434 16.7972 15.7797 16.0671C15.5919 12.9899 15.4146 9.51637 15.4459 7.0442C16.3429 9.30774 17.0001 11.6547 17.386 14.0539C18.3353 12.75 19.0759 11.3209 19.5974 9.79801C18.8881 8.68188 17.991 7.71179 16.9479 6.9086C17.9389 7.55533 18.8985 8.25421 19.8165 8.99481C20.0877 7.97257 20.119 6.89817 19.9104 5.86549C18.7838 5.5317 17.6155 5.42739 16.4472 5.55256Z" fill="url(#paint2_linear_3012_1853)"/>
<path opacity="0.6" d="M2.88702 17.2974L8.47808 22.0436C9.22911 21.6368 9.94886 21.1882 10.6477 20.698L0.425293 13.584L2.88702 17.2974Z" fill="url(#paint3_linear_3012_1853)"/>
</g>
</g>
</g>
<defs>
<radialGradient id="paint0_radial_3012_1853" cx="0" cy="0" r="1" gradientUnits="userSpaceOnUse" gradientTransform="translate(14.8827 11.2063) scale(10.0347)">
<stop stop-color="#E3AD57"/>
<stop offset="1" stop-color="#D7A552"/>
</radialGradient>
<radialGradient id="paint1_radial_3012_1853" cx="0" cy="0" r="1" gradientUnits="userSpaceOnUse" gradientTransform="translate(14.8096 11.1228) scale(10.0868)">
<stop stop-color="#E3AD57"/>
<stop offset="1" stop-color="#D7A552"/>
</radialGradient>
<linearGradient id="paint2_linear_3012_1853" x1="16.3742" y1="16.7138" x2="11.7324" y2="5.47954" gradientUnits="userSpaceOnUse">
<stop stop-color="white"/>
<stop offset="1" stop-color="white" stop-opacity="0"/>
</linearGradient>
<linearGradient id="paint3_linear_3012_1853" x1="7.60187" y1="22.1583" x2="4.28479" y2="14.116" gradientUnits="userSpaceOnUse">
<stop stop-color="white"/>
<stop offset="1" stop-color="white" stop-opacity="0"/>
</linearGradient>
<clipPath id="clip0_3012_1853">
<rect width="114.7" height="48" fill="white" transform="translate(0.300049)"/>
</clipPath>
<clipPath id="clip1_3012_1853">
<rect width="114.7" height="48" fill="white" transform="translate(0.300049)"/>
</clipPath>
<clipPath id="clip2_3012_1853">
<rect width="114.7" height="47.9933" fill="white" transform="translate(0.300049 0.00292969)"/>
</clipPath>
</defs>
</svg>
