<svg width="165" height="70" viewBox="0 0 165 70" fill="none" xmlns="http://www.w3.org/2000/svg">
<g clip-path="url(#clip0_2092_6651)">
<g clip-path="url(#clip1_2092_6651)">
<g clip-path="url(#clip2_2092_6651)">
<path d="M53.5913 67.6073C53.3363 67.4573 53.0663 67.3673 52.7813 67.3223C52.1513 67.1723 51.8363 66.9923 51.8363 66.7823C51.8363 66.4973 52.0763 66.3473 52.5863 66.3473C52.9613 66.3473 53.3363 66.4223 53.6813 66.6023C53.6813 66.3773 53.6813 66.1523 53.6813 65.9273C53.3663 65.8223 53.0213 65.7773 52.6913 65.7773C52.3463 65.7773 52.0013 65.8373 51.7013 65.9873C51.4013 66.1523 51.2063 66.4823 51.2213 66.8273C51.2213 67.1423 51.3713 67.4273 51.6263 67.5923C51.8213 67.6823 52.0163 67.7573 52.2263 67.8023C52.4663 67.8623 52.7063 67.9373 52.9463 68.0273C53.1863 68.1323 53.3063 68.2523 53.3063 68.3873C53.3063 68.7323 53.0213 68.9123 52.4663 68.9123C52.0163 68.9123 51.5813 68.7773 51.2213 68.5073C51.2663 68.7473 51.2963 69.0023 51.2963 69.2573C51.6863 69.4223 52.1063 69.4973 52.5263 69.4823C52.8713 69.4973 53.2313 69.4223 53.5313 69.2423C53.8313 69.0473 53.9963 68.7023 53.9813 68.3423C53.9813 68.0423 53.8463 67.7723 53.5913 67.6073Z" fill="#2E3D52"/>
<path d="M57.0841 65.8359L55.3147 69.3747H56.0194L56.3193 68.7299H58.3886L58.7335 69.4196H59.5432L57.8188 65.8359H57.0841ZM56.5892 68.1751L57.3839 66.5707L58.1637 68.1751H56.5892Z" fill="#2E3D52"/>
<path d="M63.6978 67.7709C63.6978 67.9659 63.6978 68.1609 63.6978 68.3559C63.6528 68.5509 63.5028 68.7009 63.3228 68.7759C63.1878 68.8359 63.0228 68.8659 62.8728 68.8509C62.6328 68.8809 62.3928 68.8059 62.1978 68.6559C62.0328 68.4759 61.9578 68.2359 61.9728 67.9959V65.8809H61.2378V68.0859C61.2378 69.0159 61.7628 69.4809 62.8278 69.4809C63.8928 69.4809 64.4028 69.0159 64.4028 68.0859V65.8809H63.7278L63.6978 67.7709Z" fill="#2E3D52"/>
<path d="M67.9709 65.8813H66.4709V69.3763H68.0759C68.5559 69.4063 69.0209 69.2563 69.3959 68.9563C69.7559 68.6263 69.9359 68.1463 69.9059 67.6663C69.9359 67.1713 69.7409 66.6763 69.3809 66.3313C68.9909 66.0013 68.4809 65.8363 67.9709 65.8813ZM67.9709 68.7313H67.1159V66.5413H67.9259C68.6909 66.5413 69.0659 66.8713 69.0659 67.6363C69.1409 68.1613 68.7809 68.6413 68.2559 68.7313C68.1809 68.7313 68.1059 68.7313 68.0309 68.7313H67.9709Z" fill="#2E3D52"/>
<path d="M72.4091 65.8809H71.6741V69.3759H72.4091V65.8809Z" fill="#2E3D52"/>
<path d="M78.092 68.5369C77.837 68.2819 77.702 67.9219 77.717 67.5619C77.717 67.2319 77.837 66.9169 78.062 66.6769C78.317 66.4519 78.647 66.3469 78.977 66.3619C79.382 66.3619 79.772 66.4669 80.132 66.6619C80.132 66.5119 80.132 66.3769 80.132 66.2269V65.9569C79.742 65.8369 79.352 65.7769 78.947 65.7769C78.437 65.7469 77.942 65.9119 77.552 66.2419C77.177 66.6019 76.982 67.0969 77.012 67.6069C77.012 67.8619 77.057 68.1169 77.147 68.3569C77.447 69.1219 78.212 69.5719 79.022 69.4819C79.427 69.4969 79.832 69.4369 80.207 69.2869C80.207 69.0319 80.2371 68.7769 80.2971 68.5369C79.9371 68.7619 79.517 68.8819 79.097 68.8819C78.722 68.9119 78.362 68.7919 78.092 68.5369Z" fill="#2E3D52"/>
<path d="M83.6401 65.7313C83.1451 65.7163 82.6651 65.8963 82.3051 66.2413C81.6451 67.0213 81.6451 68.1463 82.3051 68.9263C83.0701 69.6163 84.2101 69.6163 84.9751 68.9263C85.3201 68.5663 85.4851 68.0863 85.4701 67.5913C85.4851 67.0963 85.3201 66.6013 84.9751 66.2413C84.6151 65.8963 84.1351 65.7163 83.6401 65.7313ZM84.4501 68.4313C84.0451 68.8813 83.3551 68.9113 82.9051 68.5063C82.8751 68.4763 82.8601 68.4613 82.8301 68.4313C82.6351 68.1913 82.5301 67.8913 82.5451 67.5913C82.5301 67.2763 82.6351 66.9763 82.8301 66.7363C83.2651 66.2863 83.9701 66.2713 84.4201 66.7063C84.4201 66.7063 84.4351 66.7213 84.4501 66.7363C84.6451 66.9763 84.7351 67.2763 84.7201 67.5913C84.7501 67.9063 84.6451 68.2213 84.4501 68.4763V68.4313Z" fill="#2E3D52"/>
<path d="M89.7731 67.7709C89.8031 67.9659 89.8031 68.1609 89.7731 68.3559C89.7281 68.5509 89.5931 68.7009 89.4131 68.7759C89.2631 68.8359 89.1131 68.8509 88.9631 68.8509C88.7231 68.8659 88.4681 68.8059 88.2731 68.6559C88.1081 68.4759 88.0331 68.2359 88.0481 67.9959V65.8809H87.3281V68.0859C87.3281 69.0159 87.8531 69.4809 88.9031 69.4809C89.9531 69.4809 90.4931 69.0159 90.4931 68.0859V65.8809H89.8181L89.7731 67.7709Z" fill="#2E3D52"/>
<path d="M95.3212 68.3709L93.2062 65.8809H92.5012V69.3759H93.2062V66.8859L95.3212 69.3759H96.0112V65.8809H95.3212V68.3709Z" fill="#2E3D52"/>
<path d="M98.9342 68.5364C98.6792 68.2814 98.5592 67.9214 98.5742 67.5614C98.5592 67.2314 98.6792 66.9164 98.9042 66.6764C99.1592 66.4664 99.4892 66.3464 99.8192 66.3614C100.224 66.3614 100.629 66.4664 100.989 66.6614C100.974 66.5114 100.974 66.3764 100.989 66.2264V65.9564C100.614 65.8214 100.209 65.7464 99.8042 65.7314C99.2942 65.7164 98.7992 65.8814 98.4092 66.1964C98.0342 66.5564 97.8392 67.0514 97.8692 67.5614C97.8692 67.8164 97.9142 68.0714 98.0042 68.3114C98.3042 69.0764 99.0842 69.5414 99.8942 69.4364C100.299 69.4364 100.689 69.3764 101.064 69.2414C101.064 68.9864 101.094 68.7314 101.154 68.4914C100.794 68.7164 100.389 68.8364 99.9692 68.8364C99.5942 68.8814 99.2192 68.7764 98.9342 68.5364Z" fill="#2E3D52"/>
<path d="M103.628 65.8809H102.893V69.3759H103.628V65.8809Z" fill="#2E3D52"/>
<path d="M106.417 65.8809H105.697V69.3759H108.172V68.7309H106.417V65.8809Z" fill="#2E3D52"/>
<path d="M114.259 65.7313C113.764 65.7163 113.284 65.8963 112.924 66.2413C112.264 67.0213 112.264 68.1463 112.924 68.9263C113.689 69.6163 114.829 69.6163 115.594 68.9263C115.939 68.5663 116.104 68.0863 116.089 67.5913C116.104 67.0963 115.939 66.6013 115.594 66.2413C115.234 65.8963 114.754 65.7163 114.259 65.7313ZM115.069 68.4313C114.874 68.6713 114.574 68.8063 114.259 68.7913C113.944 68.7913 113.644 68.6713 113.449 68.4313C113.254 68.1913 113.149 67.8913 113.164 67.5913C113.149 67.2763 113.239 66.9763 113.434 66.7363C113.644 66.4963 113.944 66.3763 114.259 66.3913C114.574 66.3763 114.874 66.4963 115.069 66.7363C115.264 66.9763 115.354 67.2763 115.339 67.5913C115.369 67.9063 115.264 68.2213 115.069 68.4763V68.4313Z" fill="#2E3D52"/>
<path d="M117.902 69.3759H118.622V67.9059H120.002V67.3209H118.622V66.4809H120.242V65.8809H117.902V69.3759Z" fill="#2E3D52"/>
<path d="M125.535 67.8309H126.915V67.2459H125.535V66.4509H127.125V65.8809H124.8V69.3759H127.215V68.7909H125.535V67.8309Z" fill="#2E3D52"/>
<path d="M131.893 68.3709L129.778 65.8809H129.073V69.3759H129.778V66.8859L131.893 69.3759H132.583V65.8809H131.893V68.3709Z" fill="#2E3D52"/>
<path d="M136.556 68.2526H137.306V68.7326C137.051 68.8226 136.796 68.8676 136.526 68.8676C136.166 68.8676 135.821 68.7626 135.551 68.5376C135.281 68.2976 135.131 67.9526 135.146 67.5926C135.116 67.2476 135.236 66.9176 135.476 66.6776C135.731 66.4376 136.076 66.3176 136.421 66.3326C136.901 66.3626 137.381 66.4976 137.801 66.7226C137.786 66.4826 137.786 66.2576 137.801 66.0176C137.381 65.8376 136.931 65.7476 136.481 65.7476C135.941 65.7176 135.416 65.8826 134.981 66.2126C134.591 66.5576 134.366 67.0676 134.396 67.5926C134.366 68.1176 134.591 68.6276 134.996 68.9726C135.416 69.3176 135.956 69.4826 136.496 69.4526C137.006 69.4526 137.516 69.3476 137.996 69.1526V67.6526H136.571V68.2526H136.556Z" fill="#2E3D52"/>
<path d="M140.65 65.8809H139.915V69.3759H140.65V65.8809Z" fill="#2E3D52"/>
<path d="M145.523 68.3709L143.408 65.8809H142.703V69.3759H143.393V66.8859L145.523 69.3759H146.213V65.8809H145.523V68.3709Z" fill="#2E3D52"/>
<path d="M149.001 67.8309H150.381V67.2459H149.001V66.4509H150.591V65.8809H148.266V69.3759H150.681V68.7909H149.001V67.8309Z" fill="#2E3D52"/>
<path d="M153.275 67.8309H154.655V67.2459H153.275V66.4509H154.865V65.8809H152.555V69.3759H154.97V68.7909H153.275V67.8309Z" fill="#2E3D52"/>
<path d="M159.588 68.6268C159.513 68.4618 159.423 68.3118 159.318 68.1768C159.198 68.0568 159.048 67.9668 158.883 67.9068C159.378 67.8768 159.768 67.4568 159.738 66.9618V66.9318C159.768 66.5868 159.603 66.2568 159.318 66.0768C159.018 65.9418 158.673 65.8668 158.343 65.8818H156.843V69.3768H157.578V68.0718H157.983C158.088 68.0418 158.208 68.0418 158.313 68.0718C158.538 68.1618 158.808 68.5968 159.108 69.3318H160.023C159.963 69.2568 159.918 69.1668 159.873 69.0768C159.768 68.9268 159.678 68.7768 159.588 68.6268ZM158.313 67.5318H157.563V66.4818H158.403C158.568 66.4818 158.718 66.4968 158.868 66.5718C159.003 66.6618 159.078 66.8118 159.063 66.9618C159.063 67.3518 158.808 67.5318 158.283 67.5318H158.313Z" fill="#2E3D52"/>
<path d="M163.831 67.6073C163.591 67.4573 163.321 67.3673 163.036 67.3223C162.391 67.1723 162.076 66.9923 162.076 66.7823C162.076 66.5723 162.331 66.3473 162.826 66.3473C163.201 66.3473 163.576 66.4223 163.921 66.6023C163.921 66.3773 163.921 66.1523 163.921 65.9273C163.606 65.8223 163.276 65.7773 162.946 65.7773C162.601 65.7773 162.256 65.8373 161.941 65.9873C161.641 66.1523 161.461 66.4823 161.476 66.8273C161.476 67.1273 161.611 67.4273 161.866 67.5923C162.061 67.6823 162.271 67.7573 162.481 67.8023C162.721 67.8623 162.961 67.9373 163.201 68.0273C163.441 68.1323 163.546 68.2523 163.546 68.3873C163.546 68.5223 163.276 68.9123 162.721 68.9123C162.271 68.9123 161.836 68.7773 161.476 68.5073C161.491 68.7623 161.491 69.0023 161.476 69.2573C161.866 69.4223 162.301 69.4973 162.721 69.4823C163.066 69.4973 163.426 69.4223 163.726 69.2423C164.026 69.0473 164.191 68.7023 164.176 68.3423C164.206 68.0573 164.071 67.7723 163.831 67.6073Z" fill="#2E3D52"/>
<path d="M53.6505 56.1959C53.9805 56.1959 54.1455 56.0159 54.1455 55.6709C54.1455 55.3259 53.9805 55.1309 53.6505 55.1309C53.3205 55.1309 53.1555 55.3109 53.1555 55.6709C53.1555 56.0309 53.3205 56.1959 53.6505 56.1959Z" fill="#2E3D52"/>
<path d="M59.4985 61.0391C59.1535 61.0391 58.9885 61.2191 58.9885 61.5791C58.9885 61.9391 59.1535 62.1041 59.4985 62.1041C59.8435 62.1041 59.9935 61.9391 59.9935 61.5791C59.9935 61.2191 59.8285 61.0391 59.4985 61.0391Z" fill="#2E3D52"/>
<path d="M58.5243 61.5791C58.5243 61.2191 58.3593 61.0391 58.0293 61.0391C57.6993 61.0391 57.5193 61.2191 57.5193 61.5791C57.5193 61.9391 57.6843 62.1041 58.0293 62.1041C58.3743 62.1041 58.5243 61.9391 58.5243 61.5791Z" fill="#2E3D52"/>
<path d="M67.5209 56.0151H66.7112V59.9286H66.1114C65.8265 59.9286 65.5566 59.8237 65.3617 59.6287C65.1667 59.4188 65.0618 59.1489 65.0618 58.864V56.7348H64.2521V59.8986H63.6523C63.3674 59.8986 63.0975 59.7937 62.9026 59.5988C62.7076 59.3888 62.6027 59.1189 62.6027 58.834V56.7348H61.793V59.8986H60.2935C60.0386 59.8986 59.7837 59.8237 59.6038 59.6437C59.4238 59.4638 59.3189 59.2239 59.3339 58.969V55.9701H58.4792V59.8836H57.2046C56.9497 59.8836 56.7098 59.7937 56.5149 59.6287C56.335 59.4488 56.245 59.2089 56.26 58.954V55.9551H55.4353V60.6334C55.4953 61.3981 54.9405 62.0729 54.1608 62.1478C54.0558 62.1478 53.9358 62.1478 53.8309 62.1478H53.3211C52.9612 62.1628 52.6163 61.9979 52.3914 61.713C52.1665 61.3531 52.0465 60.9333 52.0765 60.5134C52.0615 59.8087 52.1665 59.1039 52.4064 58.4442H51.5967C51.3268 59.1189 51.2068 59.8387 51.2068 60.5734C51.1768 61.1882 51.3568 61.788 51.7316 62.2678C52.0765 62.6876 52.6013 62.9125 53.1411 62.8976H53.8309C54.9855 63.0625 56.0651 62.2678 56.23 61.1132C56.26 60.9333 56.26 60.7383 56.23 60.5434V60.0336C56.4099 60.3785 56.7548 60.5884 57.1447 60.5734H59.3189V60.0186C59.5288 60.4085 59.9636 60.6184 60.3985 60.5734H62.6627V60.0186C62.8726 60.4085 63.3074 60.6184 63.7423 60.5734H65.1218V60.0186C65.3317 60.4085 65.7665 60.6184 66.2014 60.5734H67.5809L67.5209 56.03V56.0151Z" fill="#2E3D52"/>
<path d="M75.2577 55.1308C75.5877 55.1308 75.7527 54.9508 75.7527 54.5908C75.7527 54.2308 75.5877 54.0508 75.2577 54.0508C74.9277 54.0508 74.7627 54.2308 74.7627 54.5908C74.7627 54.9508 74.9277 55.1308 75.2577 55.1308Z" fill="#2E3D52"/>
<path d="M95.3058 59.9286H93.8063C93.5514 59.9286 93.2965 59.8536 93.1166 59.6737C92.9366 59.4938 92.8317 59.2538 92.8467 58.9989V53.376H91.992V59.9286H89.188C89.4429 59.7487 89.6378 59.4938 89.7578 59.2089C89.8927 58.909 89.9677 58.5641 89.9677 58.2342C89.9977 57.6044 89.7878 56.9897 89.3679 56.5248C88.9481 56.105 88.3633 55.8951 87.7785 55.9101C87.1487 55.8801 86.549 56.165 86.1441 56.6448C85.7093 57.1546 85.4843 57.8144 85.5143 58.4891C85.4843 59.0139 85.5893 59.5237 85.8442 59.9886H83.685V57.6344C83.745 56.7647 83.4301 55.9101 82.8453 55.2653C82.1855 54.6655 81.3159 54.3506 80.4162 54.4106C79.7414 54.4106 79.0667 54.5006 78.4219 54.7105L78.6468 55.4452C79.2166 55.2653 79.8164 55.1753 80.4162 55.1753C81.0909 55.1153 81.7657 55.3403 82.2755 55.8051C82.7104 56.3449 82.9353 57.0197 82.8753 57.7094V59.9886H81.3758V56.5548H80.3112C79.6215 56.5098 78.9467 56.7048 78.3769 57.0946C77.9121 57.4545 77.6572 58.0093 77.6872 58.5941C77.6422 59.1489 77.8971 59.6737 78.3619 59.9736H76.6675C76.4126 59.9736 76.1577 59.8986 75.9778 59.7187C75.7979 59.5387 75.7079 59.2988 75.7229 59.0439V56.045H74.8682V59.9586H73.5787C73.3088 59.9586 73.0539 59.8386 72.8589 59.6587C72.649 59.4938 72.4991 59.2688 72.4391 59.0139C72.2292 57.6044 71.3595 56.3899 70.0849 55.7451L69.7701 56.4799C70.9846 57.2296 71.7493 58.5341 71.8093 59.9586H68.6155V60.7083H72.634V60.1685C72.8289 60.4834 73.1738 60.6783 73.5487 60.6933H75.7229V60.1385C75.9328 60.5284 76.3677 60.7383 76.8025 60.6933H92.9066V60.1385C93.1316 60.5134 93.5514 60.7383 93.9862 60.6933H96.1904V53.391H95.3058V59.9286ZM80.6411 59.9286H79.8464C79.4865 59.9286 79.1267 59.8086 78.8717 59.5537C78.6168 59.2988 78.4969 58.939 78.5119 58.5791C78.5119 57.6944 79.0967 57.2446 80.2512 57.2446H80.6411V59.9286ZM88.7382 59.4638C88.4533 59.7786 88.0334 59.9586 87.6136 59.9286H86.7439C86.474 59.4788 86.354 58.954 86.399 58.4291C86.369 57.9493 86.519 57.4845 86.8039 57.0946C87.2537 56.5248 88.0784 56.4349 88.6332 56.8847C88.6782 56.9147 88.7232 56.9597 88.7681 57.0047C89.0231 57.3195 89.158 57.7244 89.143 58.1442C89.188 58.6241 89.038 59.0889 88.7382 59.4638Z" fill="#2E3D52"/>
<path d="M101.544 55.1308C101.889 55.1308 102.054 54.9508 102.054 54.5908C102.054 54.2308 101.889 54.0508 101.544 54.0508C101.199 54.0508 101.049 54.2308 101.049 54.5908C101.049 54.9508 101.214 55.1308 101.544 55.1308Z" fill="#2E3D52"/>
<path d="M103.028 55.1308C103.358 55.1308 103.523 54.9508 103.523 54.5908C103.523 54.2308 103.358 54.0508 103.028 54.0508C102.683 54.0508 102.518 54.2308 102.518 54.5908C102.518 54.9508 102.683 55.1308 103.028 55.1308Z" fill="#2E3D52"/>
<path d="M106.357 61.5791C106.357 61.2191 106.192 61.0391 105.862 61.0391C105.532 61.0391 105.367 61.2191 105.367 61.5791C105.367 61.9391 105.532 62.1041 105.862 62.1041C106.192 62.1041 106.357 61.9391 106.357 61.5791Z" fill="#2E3D52"/>
<path d="M107.196 56.0152H106.341V59.9288H104.077V56.0152H102.578C101.888 55.9852 101.198 56.2251 100.673 56.675C100.179 57.1398 99.9237 57.8145 99.9537 58.4893C99.8638 59.5989 100.688 60.5885 101.798 60.6785C101.918 60.6785 102.023 60.6785 102.143 60.6785H107.151L107.196 56.0152ZM103.268 59.9288H102.158C101.288 59.9288 100.853 59.434 100.853 58.4293C100.823 57.9645 100.988 57.4997 101.318 57.1698C101.693 56.8549 102.173 56.69 102.653 56.72H103.268V59.9288Z" fill="#2E3D52"/>
<path d="M106.836 61.5791C106.836 61.9391 107.001 62.1041 107.331 62.1041C107.661 62.1041 107.826 61.9391 107.826 61.5791C107.826 61.2191 107.661 61.0391 107.331 61.0391C107.001 61.0391 106.836 61.2341 106.836 61.5791Z" fill="#2E3D52"/>
<path d="M109.73 55.7148L109.415 56.4496C110.63 57.1993 111.395 58.5038 111.455 59.9283H108.261V60.678H112.279V59.9433C111.889 57.6341 111.035 56.2247 109.73 55.7148Z" fill="#2E3D52"/>
<path d="M132.927 59.9297H131.652C131.397 59.9297 131.157 59.8397 130.962 59.6748C130.783 59.4948 130.678 59.2549 130.693 59V56.0011H129.883V59.9147H129.283C128.998 59.9147 128.728 59.8097 128.533 59.6148C128.338 59.4049 128.233 59.135 128.233 58.8501V56.7359H127.424V59.8997H126.794C126.509 59.8997 126.239 59.7947 126.044 59.5998C125.849 59.3899 125.744 59.12 125.744 58.8351V56.7359H124.935V59.8997H122.491C122.131 59.8997 121.771 59.8247 121.426 59.6898C121.981 59.3149 122.416 58.7901 122.685 58.1903C122.985 57.5905 123.15 56.9458 123.15 56.271C122.551 55.8362 121.801 55.6113 121.051 55.6562C120.526 55.6562 120.016 55.7762 119.552 55.9861C119.087 56.1811 118.697 56.5109 118.397 56.9158C118.502 57.4556 118.697 57.9654 118.997 58.4152C119.267 58.8801 119.627 59.2999 120.061 59.6298C119.702 59.7648 119.312 59.8247 118.922 59.8247H117.123V55.9112H115.863C115.173 55.8812 114.483 56.1211 113.959 56.5709C113.464 57.0357 113.209 57.7105 113.239 58.3853C113.194 58.985 113.404 59.5698 113.794 60.0047C114.229 60.4095 114.798 60.6044 115.383 60.5745H116.313V60.8444C116.328 61.2042 116.193 61.5491 115.938 61.789C115.653 62.0289 115.293 62.1489 114.933 62.1339C114.453 62.1189 113.989 61.9839 113.569 61.744L113.179 62.3888C113.689 62.7187 114.289 62.8986 114.903 62.8836C115.503 62.9136 116.088 62.7187 116.538 62.3288C116.943 61.939 117.153 61.3842 117.123 60.8294V60.6044H118.937C119.567 60.6044 120.181 60.4395 120.721 60.1246C121.261 60.4245 121.876 60.5895 122.506 60.6044H125.714V60.0496C125.924 60.4395 126.359 60.6494 126.794 60.6044H128.293V60.0496C128.503 60.4395 128.938 60.6494 129.373 60.6044H130.753V60.0496C130.932 60.3795 131.292 60.5894 131.667 60.5894H133.841V53.2871H132.987L132.927 59.9297ZM116.433 59.9297H115.533C114.648 59.9297 114.214 59.4349 114.214 58.4302C114.184 57.9654 114.349 57.5006 114.678 57.1707C115.053 56.8558 115.533 56.6909 116.013 56.7209H116.433V59.9297ZM120.856 59.2999C120.136 58.7901 119.642 58.0554 119.432 57.2007C119.642 56.9758 119.912 56.7958 120.196 56.6759C120.496 56.5259 120.841 56.451 121.171 56.451C121.591 56.421 121.996 56.5109 122.356 56.7209C122.296 57.7855 121.711 58.7451 120.796 59.2999H120.856Z" fill="#2E3D52"/>
<path d="M136.271 53.376H135.416V60.6783H136.271V53.376Z" fill="#2E3D52"/>
<path d="M143.138 55.1308C143.468 55.1308 143.633 54.9508 143.633 54.5908C143.633 54.2308 143.468 54.0508 143.138 54.0508C142.793 54.0508 142.628 54.2308 142.628 54.5908C142.628 54.9508 142.793 55.1308 143.138 55.1308Z" fill="#2E3D52"/>
<path d="M141.669 55.1308C141.999 55.1308 142.164 54.9508 142.164 54.5908C142.164 54.2308 141.999 54.0508 141.669 54.0508C141.324 54.0508 141.159 54.2308 141.159 54.5908C141.159 54.9508 141.324 55.1308 141.669 55.1308Z" fill="#2E3D52"/>
<path d="M147.787 55.1014V54.6214L146.992 54.7264H146.827C146.647 54.6514 146.527 54.4714 146.527 54.2764C146.527 53.9464 146.692 53.7814 147.037 53.7814C147.202 53.7814 147.367 53.8264 147.517 53.9014L147.652 53.4664C147.457 53.3614 147.247 53.3164 147.022 53.3164C146.767 53.3164 146.512 53.3764 146.302 53.5414C146.137 53.7064 146.032 53.9464 146.047 54.1864C146.047 54.4264 146.167 54.6664 146.377 54.7864H145.927V55.2214L146.917 55.0864H147.787V55.1014Z" fill="#2E3D52"/>
<path d="M150.786 61.0391C150.456 61.0391 150.291 61.2191 150.291 61.5791C150.291 61.9391 150.456 62.1041 150.786 62.1041C151.116 62.1041 151.281 61.9391 151.281 61.5791C151.281 61.2191 151.146 61.0391 150.786 61.0391Z" fill="#2E3D52"/>
<path d="M149.856 61.5791C149.856 61.2191 149.676 61.0391 149.346 61.0391C149.016 61.0391 148.851 61.2191 148.851 61.5791C148.851 61.9391 149.016 62.1041 149.346 62.1041C149.601 62.1341 149.826 61.9391 149.856 61.6841C149.856 61.6541 149.856 61.6091 149.856 61.5791Z" fill="#2E3D52"/>
<path d="M159.782 60.6783H161.716V53.376H160.862V59.9286H158.627V57.5745C158.687 56.7048 158.372 55.8501 157.788 55.2053C157.128 54.6055 156.258 54.2906 155.359 54.3506C154.684 54.3506 154.009 54.4406 153.364 54.6505L153.589 55.3852C154.159 55.2053 154.759 55.1153 155.359 55.1153C156.033 55.0554 156.708 55.2803 157.218 55.7451C157.653 56.2849 157.878 56.9597 157.818 57.6494V59.9286H156.318V56.4948H155.164C154.474 56.4499 153.784 56.6448 153.214 57.0346C152.749 57.3945 152.495 57.9493 152.525 58.5341C152.48 59.0889 152.734 59.6137 153.199 59.9136H151.535C151.265 59.9586 150.995 59.8986 150.785 59.7337C150.605 59.5537 150.515 59.3138 150.53 59.0589V56.06H149.676V59.9736H148.176C147.921 59.9736 147.666 59.8986 147.486 59.7187C147.306 59.5387 147.201 59.2988 147.216 59.0439V56.045H146.362V59.9586H144.188V56.045H142.688C141.998 56.015 141.309 56.2549 140.784 56.7048C140.289 57.1696 140.034 57.8444 140.064 58.5191C139.974 59.6287 140.799 60.6183 141.908 60.7083C142.028 60.7083 142.133 60.7083 142.253 60.7083H147.261V60.1535C147.486 60.5284 147.906 60.7533 148.341 60.7083H150.545V60.1535C150.755 60.5434 151.19 60.7533 151.625 60.7083H159.782V60.6783ZM143.393 59.9286H142.298C141.414 59.9286 140.979 59.4338 140.979 58.4291C140.949 57.9643 141.114 57.4995 141.444 57.1696C141.818 56.8547 142.298 56.6898 142.778 56.7198H143.393V59.9286ZM155.553 59.9286H154.759C154.399 59.9286 154.054 59.8086 153.799 59.5537C153.544 59.2988 153.409 58.939 153.424 58.5791C153.424 57.6944 154.009 57.2446 155.164 57.2446H155.553V59.9286Z" fill="#2E3D52"/>
<path d="M164.191 53.376H163.336V60.6783H164.191V53.376Z" fill="#2E3D52"/>
<path d="M79.0967 43.8994C76.0078 45.9686 71.7493 46.9883 66.4263 46.9883C61.1332 47.1082 55.8551 46.1336 50.9519 44.1243C50.8919 41.0055 50.592 37.8866 50.0522 34.8127C54.6106 38.1265 60.1136 39.8809 65.7515 39.8059C72.709 39.8059 76.2477 37.6167 76.2477 33.2983C76.2477 31.5589 74.7483 29.9995 71.7493 28.7099C68.7954 27.5853 65.7665 26.6407 62.6777 25.9059C60.0386 25.3511 57.4745 24.4665 55.0454 23.2669C51.7916 21.1977 49.8873 17.539 50.0522 13.6854C49.8123 9.30698 52.1515 5.19848 56.0501 3.18921C59.9187 1.26991 64.2221 0.35524 68.5405 0.550169C72.739 0.580158 76.9075 1.17994 80.941 2.34951C80.941 4.5837 81.1059 7.44766 81.4358 10.8664C77.2074 8.7072 72.5141 7.62759 67.7608 7.73256C61.4331 7.73256 58.2842 9.51691 58.2842 13.0556C58.2842 15.7996 62.2878 18.0638 70.2799 19.8332C73.8336 20.4179 77.2523 21.6475 80.3712 23.4318C83.3851 25.5311 85.0645 29.0698 84.7946 32.7285C84.7046 37.7366 82.8603 41.4853 79.0967 43.8994Z" fill="url(#paint0_linear_2092_6651)"/>
<path d="M129.478 44.6348C124.77 46.3292 119.792 47.1239 114.798 46.9889C102.623 46.9889 94.7807 42.2807 91.1371 32.8041C89.9975 29.8052 89.4277 26.6264 89.4577 23.4325C89.4577 16.1452 91.6918 10.4922 96.1752 6.39872C100.659 2.3052 106.386 0.505859 113.734 0.505859C118.787 0.505859 123.81 1.28558 128.638 2.80002C128.638 4.29948 128.533 5.37909 128.533 6.11382C128.533 7.97314 128.728 9.83247 129.088 11.6618C124.59 9.20269 119.582 7.85319 114.454 7.73323C110.27 7.5383 106.177 9.00777 103.073 11.8267C100.134 14.7507 98.5594 18.7842 98.7543 22.9377C98.4994 27.466 100.179 31.8744 103.358 35.0983C106.731 38.1572 111.185 39.7616 115.743 39.5217C121.036 39.3867 126.194 37.8723 130.738 35.1583C130.048 38.2771 129.628 41.441 129.478 44.6348Z" fill="url(#paint1_linear_2092_6651)"/>
<path d="M165 9.36763C164.685 6.4287 164.535 3.45978 164.55 0.505859H135.401L144.592 7.73323C144.592 7.73323 159.542 6.69861 165 9.36763Z" fill="url(#paint2_linear_2092_6651)"/>
<path d="M155.688 27.3602V20.1328C147.516 20.1328 135.401 23.7465 135.401 23.7465C135.401 23.7465 147.411 27.3602 155.688 27.3602Z" fill="#E3AD56"/>
<path d="M165 38.127C164.685 41.0659 164.535 44.0198 164.55 46.9737H135.401L144.592 39.7464C144.592 39.7464 159.542 40.796 165 38.127Z" fill="url(#paint3_linear_2092_6651)"/>
<path d="M38.3262 25.2769L41.8949 19.9238L21.0075 34.4535L0.120117 19.9238L3.68882 25.2769L17.4238 36.9576L3.01406 46.974H12.7905L21.0075 40.0015L29.2245 46.974H39.001L24.5912 36.9576L38.3262 25.2769Z" fill="url(#paint4_radial_2092_6651)"/>
<path d="M33.8275 13.2502C33.8575 12.8454 33.8575 12.4255 33.8275 12.0207C29.629 9.12672 26.6901 8.42198 23.5113 8.61691C26.5102 7.70224 29.659 7.43234 32.7629 7.79221C32.0132 6.05284 30.8886 4.49341 29.4941 3.20388C26.7351 3.77367 24.216 5.19815 22.2817 7.2524C23.2713 5.3481 24.0361 3.33883 24.5459 1.25459C22.2667 0.594826 19.8676 0.594826 17.5884 1.25459C18.0982 3.33883 18.8629 5.3481 19.8526 7.2524C17.9183 5.21314 15.4142 3.80366 12.6552 3.23387C11.2607 4.5234 10.1361 6.08283 9.38639 7.8222C12.5053 7.46233 15.6541 7.73223 18.653 8.6469C15.4592 8.45197 12.5202 9.15671 8.32178 12.0507V13.2802C8.32178 14.8996 8.60667 16.519 9.17647 18.0335C11.9205 15.3045 14.9044 12.8304 18.0982 10.6412C14.4845 13.4751 12.1604 17.6436 11.6506 22.217C13.075 23.8514 14.8744 25.1109 16.9137 25.8606C17.2285 20.7175 18.3531 15.6643 20.2424 10.8661C20.3324 16.7439 19.5827 26.5204 19.2828 31.2437L21.1571 32.5482L22.9565 31.2887C22.6716 26.5954 21.9218 16.7589 21.9968 10.8661C23.8861 15.6643 25.0107 20.7175 25.3406 25.8606C27.3798 25.1109 29.1792 23.8514 30.6037 22.217C30.0939 17.6436 27.7547 13.4751 24.141 10.6412C27.3349 12.8304 30.3188 15.3045 33.0628 18.0335C33.6026 16.504 33.8575 14.8846 33.8275 13.2502Z" fill="url(#paint5_radial_2092_6651)"/>
<path d="M33.8275 13.1299V11.9004C29.6141 8.99145 26.6602 8.28671 23.4513 8.48163C26.4652 7.56697 29.6291 7.29706 32.7479 7.65693C31.9982 5.90257 30.8736 4.32815 29.4641 3.05361C26.7051 3.6384 24.1861 5.03289 22.2518 7.08714C23.2564 5.16784 24.0211 3.12858 24.5309 1.01435C22.2518 0.354591 19.8226 0.354591 17.5435 1.01435C18.0533 3.12858 18.818 5.16784 19.8077 7.08714C17.8734 5.03289 15.3543 3.6234 12.5953 3.05361C11.1858 4.32815 10.0612 5.90257 9.31147 7.65693C12.4303 7.29706 15.5942 7.56697 18.6081 8.48163C15.4142 8.28671 12.4603 8.99145 8.24686 11.9004C8.21687 12.3052 8.21687 12.7251 8.24686 13.1299C8.24686 14.7643 8.53175 16.3838 9.10155 17.9132C11.8605 15.1692 14.8744 12.6801 18.0983 10.4909C14.4696 13.3399 12.1304 17.5233 11.6206 22.1117C13.0451 23.7611 14.8744 25.0206 16.9137 25.7703C17.2286 20.5972 18.3532 15.5141 20.2575 10.6858C20.2575 16.5787 19.5977 26.4001 19.2978 31.1534L21.1722 32.4579L22.9865 31.1834C22.6866 26.4751 21.9369 16.6087 22.0118 10.6858C23.9162 15.5141 25.0407 20.5972 25.3706 25.7703C27.4099 25.0206 29.2242 23.7611 30.6487 22.1117C30.1389 17.5233 27.7997 13.3399 24.1711 10.4909C27.3949 12.6951 30.3938 15.1692 33.1678 17.9132C33.6626 16.3688 33.8875 14.7494 33.8275 13.1299Z" fill="url(#paint6_radial_2092_6651)"/>
<path opacity="0.7" d="M23.3319 8.48238C24.6665 8.21248 26.1059 7.83762 27.6804 7.6127C27.5154 7.29781 27.3205 6.98293 27.0956 6.69803C26.4808 5.93331 25.7011 5.31853 24.8014 4.89869C23.8268 5.51346 22.9271 6.2482 22.1324 7.08789C22.6122 6.21821 23.0171 5.31853 23.3619 4.38887C21.7275 4.01401 20.0481 3.93904 18.3837 4.17895C18.7436 5.18358 19.1785 6.15823 19.6883 7.08789C18.7436 6.06826 17.634 5.21357 16.4195 4.53882C13.9903 5.10861 11.6362 5.99329 9.417 7.16286L9.19208 7.65768C12.3109 7.29781 15.4748 7.56772 18.4887 8.48238C15.2949 8.28745 12.3409 8.9922 8.12747 11.9011C8.09748 12.306 8.09748 12.7258 8.12747 13.1307C8.12747 14.7651 8.41237 16.3845 8.98216 17.9139C11.7412 15.1699 14.7551 12.6809 17.9789 10.4917C14.3502 13.3406 12.0111 17.5241 11.5012 22.1124C12.9257 23.7618 14.7551 25.0214 16.7943 25.7711C17.1092 20.598 18.2338 15.5148 20.1381 10.6866C20.1381 15.065 19.8082 21.5726 19.4783 26.5958C20.498 25.6511 21.4576 24.6465 22.3723 23.5969C22.1024 19.1735 21.8475 14.1803 21.8925 10.6266C23.182 13.8804 24.1266 17.2542 24.6814 20.7029C26.046 18.8286 27.1106 16.7744 27.8603 14.5852C26.8407 12.9807 25.5511 11.5863 24.0517 10.4317C25.4762 11.3613 26.8557 12.366 28.1752 13.4306C28.565 11.9611 28.61 10.4167 28.3101 8.93222C26.6907 8.45239 25.0113 8.30245 23.3319 8.48238Z" fill="url(#paint7_linear_2092_6651)"/>
<path opacity="0.6" d="M3.83901 25.3674L11.8761 32.1899C12.9557 31.6051 13.9903 30.9603 14.9949 30.2556L0.300293 20.0293L3.83901 25.3674Z" fill="url(#paint8_linear_2092_6651)"/>
</g>
</g>
</g>
<defs>
<linearGradient id="paint0_linear_2092_6651" x1="49.9858" y1="23.7539" x2="84.7723" y2="23.7539" gradientUnits="userSpaceOnUse">
<stop stop-color="#222F42"/>
<stop offset="0.34" stop-color="#31415C"/>
<stop offset="0.67" stop-color="#405372"/>
<stop offset="1" stop-color="#222F42"/>
</linearGradient>
<linearGradient id="paint1_linear_2092_6651" x1="89.3977" y1="23.7474" x2="130.678" y2="23.7474" gradientUnits="userSpaceOnUse">
<stop stop-color="#222F42"/>
<stop offset="0.34" stop-color="#31415C"/>
<stop offset="0.67" stop-color="#405372"/>
<stop offset="1" stop-color="#222F42"/>
</linearGradient>
<linearGradient id="paint2_linear_2092_6651" x1="135.358" y1="4.93535" x2="164.957" y2="4.93535" gradientUnits="userSpaceOnUse">
<stop stop-color="#222F42"/>
<stop offset="0.34" stop-color="#31415C"/>
<stop offset="0.67" stop-color="#405372"/>
<stop offset="1" stop-color="#222F42"/>
</linearGradient>
<linearGradient id="paint3_linear_2092_6651" x1="135.358" y1="42.5489" x2="164.957" y2="42.5489" gradientUnits="userSpaceOnUse">
<stop stop-color="#222F42"/>
<stop offset="0.34" stop-color="#31415C"/>
<stop offset="0.67" stop-color="#405372"/>
<stop offset="1" stop-color="#222F42"/>
</linearGradient>
<radialGradient id="paint4_radial_2092_6651" cx="0" cy="0" r="1" gradientUnits="userSpaceOnUse" gradientTransform="translate(20.7526 36.2979) scale(12.0106 12.0106)">
<stop stop-color="#E3AD57"/>
<stop offset="1" stop-color="#D7A552"/>
</radialGradient>
<radialGradient id="paint5_radial_2092_6651" cx="0" cy="0" r="1" gradientUnits="userSpaceOnUse" gradientTransform="translate(21.0821 16.609) scale(14.4248)">
<stop stop-color="#E3AD57"/>
<stop offset="1" stop-color="#D7A552"/>
</radialGradient>
<radialGradient id="paint6_radial_2092_6651" cx="0" cy="0" r="1" gradientUnits="userSpaceOnUse" gradientTransform="translate(20.9772 16.4887) scale(14.4997)">
<stop stop-color="#E3AD57"/>
<stop offset="1" stop-color="#D7A552"/>
</radialGradient>
<linearGradient id="paint7_linear_2092_6651" x1="23.227" y1="24.5265" x2="16.5544" y2="8.37742" gradientUnits="userSpaceOnUse">
<stop stop-color="white"/>
<stop offset="1" stop-color="white" stop-opacity="0"/>
</linearGradient>
<linearGradient id="paint8_linear_2092_6651" x1="10.6165" y1="32.3548" x2="5.84827" y2="20.794" gradientUnits="userSpaceOnUse">
<stop stop-color="white"/>
<stop offset="1" stop-color="white" stop-opacity="0"/>
</linearGradient>
<clipPath id="clip0_2092_6651">
<rect width="164.88" height="69" fill="white" transform="translate(0.120117 0.5)"/>
</clipPath>
<clipPath id="clip1_2092_6651">
<rect width="164.88" height="69" fill="white" transform="translate(0.120117 0.5)"/>
</clipPath>
<clipPath id="clip2_2092_6651">
<rect width="164.88" height="68.9899" fill="white" transform="translate(0.120117 0.504883)"/>
</clipPath>
</defs>
</svg>
