<svg width="110" height="46" viewBox="0 0 110 46" fill="none" xmlns="http://www.w3.org/2000/svg">
<g clip-path="url(#clip0_3009_789)">
<g clip-path="url(#clip1_3009_789)">
<path d="M35.7276 44.7375C35.5576 44.6375 35.3776 44.5775 35.1876 44.5475C34.7676 44.4475 34.5576 44.3275 34.5576 44.1875C34.5576 43.9975 34.7176 43.8975 35.0576 43.8975C35.3076 43.8975 35.5576 43.9475 35.7876 44.0675C35.7876 43.9175 35.7876 43.7675 35.7876 43.6175C35.5776 43.5475 35.3476 43.5175 35.1276 43.5175C34.8976 43.5175 34.6676 43.5575 34.4676 43.6575C34.2676 43.7675 34.1376 43.9875 34.1476 44.2175C34.1476 44.4275 34.2476 44.6175 34.4176 44.7275C34.5476 44.7875 34.6776 44.8375 34.8176 44.8675C34.9776 44.9075 35.1376 44.9575 35.2976 45.0175C35.4576 45.0875 35.5376 45.1675 35.5376 45.2575C35.5376 45.4875 35.3476 45.6075 34.9776 45.6075C34.6776 45.6075 34.3876 45.5175 34.1476 45.3375C34.1776 45.4975 34.1976 45.6675 34.1976 45.8375C34.4576 45.9475 34.7376 45.9975 35.0176 45.9875C35.2476 45.9975 35.4876 45.9475 35.6876 45.8275C35.8876 45.6975 35.9976 45.4675 35.9876 45.2275C35.9876 45.0275 35.8976 44.8475 35.7276 44.7375Z" fill="#2E3D52"/>
<path d="M38.0562 43.5575L36.8766 45.9166H37.3464L37.5464 45.4868H38.9259L39.1558 45.9466H39.6956L38.546 43.5575H38.0562ZM37.7263 45.1169L38.2561 44.0473L38.7759 45.1169H37.7263Z" fill="#2E3D52"/>
<path d="M42.4652 44.8475C42.4652 44.9775 42.4652 45.1075 42.4652 45.2375C42.4352 45.3675 42.3352 45.4675 42.2152 45.5175C42.1252 45.5575 42.0152 45.5775 41.9152 45.5675C41.7552 45.5875 41.5952 45.5375 41.4652 45.4375C41.3552 45.3175 41.3052 45.1575 41.3152 44.9975V43.5875H40.8252V45.0575C40.8252 45.6775 41.1752 45.9875 41.8852 45.9875C42.5952 45.9875 42.9352 45.6775 42.9352 45.0575V43.5875H42.4852L42.4652 44.8475Z" fill="#2E3D52"/>
<path d="M45.3139 43.5875H44.3139V45.9175H45.3839C45.7039 45.9375 46.0139 45.8375 46.2639 45.6375C46.5039 45.4175 46.6239 45.0975 46.6039 44.7775C46.6239 44.4475 46.4939 44.1175 46.2539 43.8875C45.9939 43.6675 45.6539 43.5575 45.3139 43.5875ZM45.3139 45.4875H44.7439V44.0275H45.2839C45.7939 44.0275 46.0439 44.2475 46.0439 44.7575C46.0939 45.1075 45.8539 45.4275 45.5039 45.4875C45.4539 45.4875 45.4039 45.4875 45.3539 45.4875H45.3139Z" fill="#2E3D52"/>
<path d="M48.2727 43.5875H47.7827V45.9175H48.2727V43.5875Z" fill="#2E3D52"/>
<path d="M52.0614 45.3575C51.8914 45.1875 51.8014 44.9475 51.8114 44.7075C51.8114 44.4875 51.8914 44.2775 52.0414 44.1175C52.2114 43.9675 52.4314 43.8975 52.6514 43.9075C52.9214 43.9075 53.1814 43.9775 53.4214 44.1075C53.4214 44.0075 53.4214 43.9175 53.4214 43.8175V43.6375C53.1614 43.5575 52.9014 43.5175 52.6314 43.5175C52.2914 43.4975 51.9614 43.6075 51.7014 43.8275C51.4514 44.0675 51.3214 44.3975 51.3414 44.7375C51.3414 44.9075 51.3714 45.0775 51.4314 45.2375C51.6314 45.7475 52.1414 46.0475 52.6814 45.9875C52.9514 45.9975 53.2214 45.9575 53.4714 45.8575C53.4714 45.6875 53.4914 45.5175 53.5314 45.3575C53.2914 45.5075 53.0114 45.5875 52.7314 45.5875C52.4814 45.6075 52.2414 45.5275 52.0614 45.3575Z" fill="#2E3D52"/>
<path d="M55.7602 43.4875C55.4302 43.4775 55.1102 43.5975 54.8702 43.8275C54.4302 44.3475 54.4302 45.0975 54.8702 45.6175C55.3802 46.0775 56.1402 46.0775 56.6502 45.6175C56.8802 45.3775 56.9902 45.0575 56.9802 44.7275C56.9902 44.3975 56.8802 44.0675 56.6502 43.8275C56.4102 43.5975 56.0902 43.4775 55.7602 43.4875ZM56.3002 45.2875C56.0302 45.5875 55.5702 45.6075 55.2702 45.3375C55.2502 45.3175 55.2402 45.3075 55.2202 45.2875C55.0902 45.1275 55.0202 44.9275 55.0302 44.7275C55.0202 44.5175 55.0902 44.3175 55.2202 44.1575C55.5102 43.8575 55.9802 43.8475 56.2802 44.1375C56.2802 44.1375 56.2902 44.1475 56.3002 44.1575C56.4302 44.3175 56.4902 44.5175 56.4802 44.7275C56.5002 44.9375 56.4302 45.1475 56.3002 45.3175V45.2875Z" fill="#2E3D52"/>
<path d="M59.8489 44.8475C59.8689 44.9775 59.8689 45.1075 59.8489 45.2375C59.8189 45.3675 59.7289 45.4675 59.6089 45.5175C59.5089 45.5575 59.4089 45.5675 59.3089 45.5675C59.1489 45.5775 58.9789 45.5375 58.8489 45.4375C58.7389 45.3175 58.6889 45.1575 58.6989 44.9975V43.5875H58.2189V45.0575C58.2189 45.6775 58.5689 45.9875 59.2689 45.9875C59.9689 45.9875 60.3289 45.6775 60.3289 45.0575V43.5875H59.8789L59.8489 44.8475Z" fill="#2E3D52"/>
<path d="M63.5476 45.2475L62.1376 43.5875H61.6676V45.9175H62.1376V44.2575L63.5476 45.9175H64.0076V43.5875H63.5476V45.2475Z" fill="#2E3D52"/>
<path d="M65.9563 45.3576C65.7863 45.1876 65.7063 44.9476 65.7163 44.7076C65.7063 44.4876 65.7863 44.2776 65.9363 44.1176C66.1063 43.9776 66.3263 43.8976 66.5463 43.9076C66.8163 43.9076 67.0863 43.9776 67.3263 44.1076C67.3163 44.0076 67.3163 43.9176 67.3263 43.8176V43.6376C67.0763 43.5476 66.8063 43.4976 66.5363 43.4876C66.1963 43.4776 65.8663 43.5876 65.6063 43.7976C65.3563 44.0376 65.2263 44.3676 65.2463 44.7076C65.2463 44.8776 65.2763 45.0476 65.3363 45.2076C65.5363 45.7176 66.0563 46.0276 66.5963 45.9576C66.8663 45.9576 67.1263 45.9176 67.3763 45.8276C67.3763 45.6576 67.3963 45.4876 67.4363 45.3276C67.1963 45.4776 66.9263 45.5576 66.6463 45.5576C66.3963 45.5876 66.1463 45.5176 65.9563 45.3576Z" fill="#2E3D52"/>
<path d="M69.0851 43.5875H68.5951V45.9175H69.0851V43.5875Z" fill="#2E3D52"/>
<path d="M70.9444 43.5875H70.4644V45.9175H72.1144V45.4875H70.9444V43.5875Z" fill="#2E3D52"/>
<path d="M76.1728 43.4875C75.8428 43.4775 75.5228 43.5975 75.2828 43.8275C74.8428 44.3475 74.8428 45.0975 75.2828 45.6175C75.7928 46.0775 76.5528 46.0775 77.0628 45.6175C77.2928 45.3775 77.4028 45.0575 77.3928 44.7275C77.4028 44.3975 77.2928 44.0675 77.0628 43.8275C76.8228 43.5975 76.5028 43.4775 76.1728 43.4875ZM76.7128 45.2875C76.5828 45.4475 76.3828 45.5375 76.1728 45.5275C75.9628 45.5275 75.7628 45.4475 75.6328 45.2875C75.5028 45.1275 75.4328 44.9275 75.4428 44.7275C75.4328 44.5175 75.4928 44.3175 75.6228 44.1575C75.7628 43.9975 75.9628 43.9175 76.1728 43.9275C76.3828 43.9175 76.5828 43.9975 76.7128 44.1575C76.8428 44.3175 76.9028 44.5175 76.8928 44.7275C76.9128 44.9375 76.8428 45.1475 76.7128 45.3175V45.2875Z" fill="#2E3D52"/>
<path d="M78.6014 45.9175H79.0814V44.9375H80.0014V44.5475H79.0814V43.9875H80.1614V43.5875H78.6014V45.9175Z" fill="#2E3D52"/>
<path d="M83.6898 44.8875H84.6098V44.4975H83.6898V43.9675H84.7498V43.5875H83.1998V45.9175H84.8098V45.5275H83.6898V44.8875Z" fill="#2E3D52"/>
<path d="M87.9287 45.2475L86.5187 43.5875H86.0487V45.9175H86.5187V44.2575L87.9287 45.9175H88.3887V43.5875H87.9287V45.2475Z" fill="#2E3D52"/>
<path d="M91.0374 45.1676H91.5374V45.4876C91.3674 45.5476 91.1974 45.5776 91.0174 45.5776C90.7774 45.5776 90.5474 45.5076 90.3674 45.3576C90.1874 45.1976 90.0874 44.9676 90.0974 44.7276C90.0774 44.4976 90.1574 44.2776 90.3174 44.1176C90.4874 43.9576 90.7174 43.8776 90.9474 43.8876C91.2674 43.9076 91.5874 43.9976 91.8674 44.1476C91.8574 43.9876 91.8574 43.8376 91.8674 43.6776C91.5874 43.5576 91.2874 43.4976 90.9874 43.4976C90.6274 43.4776 90.2774 43.5876 89.9874 43.8076C89.7274 44.0376 89.5774 44.3776 89.5974 44.7276C89.5774 45.0776 89.7274 45.4176 89.9974 45.6476C90.2774 45.8776 90.6374 45.9876 90.9974 45.9676C91.3374 45.9676 91.6774 45.8976 91.9974 45.7676V44.7676H91.0474V45.1676H91.0374Z" fill="#2E3D52"/>
<path d="M93.7661 43.5875H93.2761V45.9175H93.7661V43.5875Z" fill="#2E3D52"/>
<path d="M97.0154 45.2475L95.6054 43.5875H95.1354V45.9175H95.5954V44.2575L97.0154 45.9175H97.4754V43.5875H97.0154V45.2475Z" fill="#2E3D52"/>
<path d="M99.3341 44.8875H100.254V44.4975H99.3341V43.9675H100.394V43.5875H98.8441V45.9175H100.454V45.5275H99.3341V44.8875Z" fill="#2E3D52"/>
<path d="M102.183 44.8875H103.103V44.4975H102.183V43.9675H103.243V43.5875H101.703V45.9175H103.313V45.5275H102.183V44.8875Z" fill="#2E3D52"/>
<path d="M106.392 45.4175C106.342 45.3075 106.282 45.2075 106.212 45.1175C106.132 45.0375 106.032 44.9775 105.922 44.9375C106.252 44.9175 106.512 44.6375 106.492 44.3075V44.2875C106.512 44.0575 106.402 43.8375 106.212 43.7175C106.012 43.6275 105.782 43.5775 105.562 43.5875H104.562V45.9175H105.052V45.0475H105.322C105.392 45.0275 105.472 45.0275 105.542 45.0475C105.692 45.1075 105.872 45.3975 106.072 45.8875H106.682C106.642 45.8375 106.612 45.7775 106.582 45.7175C106.512 45.6175 106.452 45.5175 106.392 45.4175ZM105.542 44.6875H105.042V43.9875H105.602C105.712 43.9875 105.812 43.9975 105.912 44.0475C106.002 44.1075 106.052 44.2075 106.042 44.3075C106.042 44.5675 105.872 44.6875 105.522 44.6875H105.542Z" fill="#2E3D52"/>
<path d="M109.221 44.7375C109.061 44.6375 108.881 44.5775 108.691 44.5475C108.261 44.4475 108.051 44.3275 108.051 44.1875C108.051 44.0475 108.221 43.8975 108.551 43.8975C108.801 43.8975 109.051 43.9475 109.281 44.0675C109.281 43.9175 109.281 43.7675 109.281 43.6175C109.071 43.5475 108.851 43.5175 108.631 43.5175C108.401 43.5175 108.171 43.5575 107.961 43.6575C107.761 43.7675 107.641 43.9875 107.651 44.2175C107.651 44.4175 107.741 44.6175 107.911 44.7275C108.041 44.7875 108.181 44.8375 108.321 44.8675C108.481 44.9075 108.641 44.9575 108.801 45.0175C108.961 45.0875 109.031 45.1675 109.031 45.2575C109.031 45.3475 108.851 45.6075 108.481 45.6075C108.181 45.6075 107.891 45.5175 107.651 45.3375C107.661 45.5075 107.661 45.6675 107.651 45.8375C107.911 45.9475 108.201 45.9975 108.481 45.9875C108.711 45.9975 108.951 45.9475 109.151 45.8275C109.351 45.6975 109.461 45.4675 109.451 45.2275C109.471 45.0375 109.381 44.8475 109.221 44.7375Z" fill="#2E3D52"/>
<path d="M35.7671 37.1301C35.9871 37.1301 36.0971 37.0101 36.0971 36.7801C36.0971 36.5501 35.9871 36.4201 35.7671 36.4201C35.5471 36.4201 35.4371 36.5401 35.4371 36.7801C35.4371 37.0201 35.5471 37.1301 35.7671 37.1301Z" fill="#2E3D52"/>
<path d="M39.6657 40.3586C39.4357 40.3586 39.3257 40.4786 39.3257 40.7186C39.3257 40.9586 39.4357 41.0686 39.6657 41.0686C39.8957 41.0686 39.9957 40.9586 39.9957 40.7186C39.9957 40.4786 39.8857 40.3586 39.6657 40.3586Z" fill="#2E3D52"/>
<path d="M39.0161 40.7186C39.0161 40.4786 38.9061 40.3586 38.6861 40.3586C38.4661 40.3586 38.3461 40.4786 38.3461 40.7186C38.3461 40.9586 38.4561 41.0686 38.6861 41.0686C38.9161 41.0686 39.0161 40.9586 39.0161 40.7186Z" fill="#2E3D52"/>
<path d="M45.0137 37.0099H44.4739V39.6189H44.074C43.8841 39.6189 43.7041 39.549 43.5742 39.419C43.4442 39.2791 43.3743 39.0991 43.3743 38.9092V37.4897H42.8344V39.599H42.4346C42.2447 39.599 42.0647 39.529 41.9348 39.399C41.8048 39.2591 41.7348 39.0791 41.7348 38.8892V37.4897H41.195V39.599H40.1954C40.0255 39.599 39.8555 39.549 39.7356 39.429C39.6156 39.3091 39.5456 39.1491 39.5556 38.9792V36.9799H38.9858V39.589H38.1362C37.9662 39.589 37.8063 39.529 37.6763 39.419C37.5564 39.2991 37.4964 39.1391 37.5064 38.9692V36.9699H36.9566V40.0888C36.9966 40.5986 36.6267 41.0484 36.1069 41.0984C36.0369 41.0984 35.957 41.0984 35.887 41.0984H35.5471C35.3072 41.1084 35.0773 40.9984 34.9273 40.8085C34.7774 40.5686 34.6974 40.2887 34.7174 40.0088C34.7074 39.539 34.7774 39.0691 34.9373 38.6293H34.3975C34.2176 39.0791 34.1376 39.559 34.1376 40.0488C34.1176 40.4586 34.2376 40.8585 34.4875 41.1784C34.7174 41.4583 35.0673 41.6082 35.4271 41.5982H35.887C36.6567 41.7082 37.3764 41.1784 37.4864 40.4087C37.5064 40.2887 37.5064 40.1588 37.4864 40.0288V39.6889C37.6063 39.9188 37.8363 40.0588 38.0962 40.0488H39.5456V39.6789C39.6856 39.9388 39.9755 40.0788 40.2654 40.0488H41.7748V39.6789C41.9148 39.9388 42.2047 40.0788 42.4946 40.0488H43.4142V39.6789C43.5542 39.9388 43.8441 40.0788 44.134 40.0488H45.0536L45.0137 37.0199V37.0099Z" fill="#2E3D52"/>
<path d="M50.1719 36.4204C50.3919 36.4204 50.5019 36.3004 50.5019 36.0604C50.5019 35.8204 50.3919 35.7004 50.1719 35.7004C49.9519 35.7004 49.8419 35.8204 49.8419 36.0604C49.8419 36.3004 49.9519 36.4204 50.1719 36.4204Z" fill="#2E3D52"/>
<path d="M63.5369 39.619H62.5373C62.3674 39.619 62.1974 39.569 62.0775 39.449C61.9575 39.3291 61.8875 39.1691 61.8975 38.9992V35.2505H61.3277V39.619H59.4584C59.6284 39.499 59.7583 39.3291 59.8383 39.1391C59.9282 38.9392 59.9782 38.7093 59.9782 38.4894C59.9982 38.0695 59.8583 37.6597 59.5784 37.3498C59.2985 37.0699 58.9086 36.9299 58.5188 36.9399C58.0989 36.9199 57.6991 37.1099 57.4292 37.4298C57.1393 37.7696 56.9893 38.2095 57.0093 38.6593C56.9893 39.0092 57.0593 39.3491 57.2292 39.6589H55.7898V38.0895C55.8297 37.5097 55.6198 36.9399 55.23 36.5101C54.7901 36.1102 54.2103 35.9003 53.6105 35.9403C53.1607 35.9403 52.7109 36.0003 52.281 36.1402L52.431 36.63C52.8108 36.5101 53.2107 36.4501 53.6105 36.4501C54.0604 36.4101 54.5102 36.5601 54.8501 36.87C55.14 37.2298 55.2899 37.6797 55.2499 38.1395V39.6589H54.2503V37.3698H53.5406C53.0807 37.3398 52.6309 37.4697 52.251 37.7297C51.9412 37.9696 51.7712 38.3394 51.7912 38.7293C51.7612 39.0992 51.9312 39.449 52.241 39.649H51.1115C50.9415 39.649 50.7716 39.599 50.6516 39.479C50.5317 39.3591 50.4717 39.1991 50.4817 39.0292V37.0299H49.9119V39.639H49.0522C48.8723 39.639 48.7023 39.559 48.5724 39.439C48.4324 39.3291 48.3325 39.1791 48.2925 39.0092C48.1525 38.0695 47.5727 37.2598 46.7231 36.83L46.5131 37.3198C47.3228 37.8196 47.8326 38.6893 47.8726 39.639H45.7434V40.1388H48.4224V39.7789C48.5524 39.9888 48.7823 40.1188 49.0322 40.1288H50.4817V39.7589C50.6216 40.0188 50.9115 40.1588 51.2014 40.1288H61.9375V39.7589C62.0875 40.0088 62.3674 40.1588 62.6573 40.1288H64.1267V35.2605H63.5369V39.619ZM53.7605 39.619H53.2307C52.9908 39.619 52.7509 39.539 52.5809 39.3691C52.411 39.1991 52.331 38.9592 52.341 38.7193C52.341 38.1295 52.7309 37.8296 53.5006 37.8296H53.7605V39.619ZM59.1585 39.3091C58.9686 39.519 58.6887 39.639 58.4088 39.619H57.829C57.6491 39.3191 57.5691 38.9692 57.5991 38.6193C57.5791 38.2994 57.6791 37.9896 57.869 37.7297C58.1689 37.3498 58.7187 37.2898 59.0886 37.5897C59.1185 37.6097 59.1485 37.6397 59.1785 37.6697C59.3485 37.8796 59.4384 38.1495 59.4284 38.4294C59.4584 38.7493 59.3585 39.0592 59.1585 39.3091Z" fill="#2E3D52"/>
<path d="M67.6955 36.4204C67.9255 36.4204 68.0355 36.3004 68.0355 36.0604C68.0355 35.8204 67.9255 35.7004 67.6955 35.7004C67.4655 35.7004 67.3655 35.8204 67.3655 36.0604C67.3655 36.3004 67.4755 36.4204 67.6955 36.4204Z" fill="#2E3D52"/>
<path d="M68.6852 36.4204C68.9052 36.4204 69.0152 36.3004 69.0152 36.0604C69.0152 35.8204 68.9052 35.7004 68.6852 35.7004C68.4552 35.7004 68.3452 35.8204 68.3452 36.0604C68.3452 36.3004 68.4552 36.4204 68.6852 36.4204Z" fill="#2E3D52"/>
<path d="M70.9045 40.7186C70.9045 40.4786 70.7945 40.3586 70.5745 40.3586C70.3545 40.3586 70.2445 40.4786 70.2445 40.7186C70.2445 40.9586 70.3545 41.0686 70.5745 41.0686C70.7945 41.0686 70.9045 40.9586 70.9045 40.7186Z" fill="#2E3D52"/>
<path d="M71.464 37.0099H70.8942V39.619H69.3848V37.0099H68.3852C67.9253 36.9899 67.4655 37.1499 67.1156 37.4498C66.7857 37.7596 66.6158 38.2095 66.6358 38.6593C66.5758 39.399 67.1256 40.0588 67.8653 40.1188C67.9453 40.1188 68.0153 40.1188 68.0953 40.1188H71.434L71.464 37.0099ZM68.845 39.619H68.1053C67.5255 39.619 67.2356 39.2891 67.2356 38.6193C67.2156 38.3094 67.3255 37.9996 67.5455 37.7796C67.7954 37.5697 68.1153 37.4598 68.4351 37.4797H68.845V39.619Z" fill="#2E3D52"/>
<path d="M71.2241 40.7186C71.2241 40.9586 71.3341 41.0686 71.5541 41.0686C71.7741 41.0686 71.8841 40.9586 71.8841 40.7186C71.8841 40.4786 71.7741 40.3586 71.5541 40.3586C71.3341 40.3586 71.2241 40.4886 71.2241 40.7186Z" fill="#2E3D52"/>
<path d="M73.1534 36.8099L72.9435 37.2998C73.7532 37.7996 74.263 38.6693 74.303 39.6189H72.1738V40.1187H74.8528V39.6289C74.5929 38.0895 74.0231 37.1498 73.1534 36.8099Z" fill="#2E3D52"/>
<path d="M88.6178 39.6189H87.7681C87.5982 39.6189 87.4382 39.559 87.3083 39.449C87.1883 39.329 87.1183 39.1691 87.1283 38.9992V36.9999H86.5885V39.6089H86.1887C85.9987 39.6089 85.8188 39.539 85.6888 39.409C85.5589 39.2691 85.4889 39.0891 85.4889 38.8992V37.4897H84.9491V39.5989H84.5293C84.3393 39.5989 84.1594 39.529 84.0295 39.399C83.8995 39.2591 83.8295 39.0791 83.8295 38.8892V37.4897H83.2897V39.5989H81.6603C81.4204 39.5989 81.1805 39.549 80.9506 39.459C81.3204 39.2091 81.6103 38.8592 81.7903 38.4594C81.9902 38.0595 82.1002 37.6297 82.1002 37.1798C81.7003 36.8899 81.2005 36.74 80.7007 36.77C80.3508 36.77 80.0109 36.8499 79.701 36.9899C79.3911 37.1198 79.1312 37.3398 78.9313 37.6097C79.0013 37.9695 79.1312 38.3094 79.3312 38.6093C79.5111 38.9192 79.751 39.1991 80.0409 39.419C79.801 39.509 79.5411 39.549 79.2812 39.549H78.0816V36.9399H77.2419C76.7821 36.9199 76.3223 37.0799 75.9724 37.3798C75.6425 37.6896 75.4726 38.1395 75.4926 38.5893C75.4626 38.9892 75.6025 39.379 75.8624 39.6689C76.1523 39.9388 76.5322 40.0688 76.922 40.0488H77.5418V40.2287C77.5518 40.4686 77.4618 40.6985 77.2919 40.8585C77.102 41.0184 76.8621 41.0984 76.6221 41.0884C76.3023 41.0784 75.9924 40.9884 75.7125 40.8285L75.4526 41.2583C75.7925 41.4783 76.1923 41.5982 76.6022 41.5882C77.002 41.6082 77.3919 41.4783 77.6918 41.2184C77.9617 40.9585 78.1016 40.5886 78.0816 40.2187V40.0688H79.2912C79.711 40.0688 80.1209 39.9588 80.4807 39.7489C80.8406 39.9488 81.2505 40.0588 81.6703 40.0688H83.8095V39.6989C83.9495 39.9588 84.2394 40.0988 84.5293 40.0688H85.5289V39.6989C85.6689 39.9588 85.9587 40.0988 86.2486 40.0688H87.1683V39.6989C87.2883 39.9188 87.5282 40.0588 87.7781 40.0588H89.2276V35.1906H88.6578L88.6178 39.6189ZM77.6218 39.6189H77.022C76.4322 39.6189 76.1423 39.2891 76.1423 38.6193C76.1223 38.3094 76.2323 37.9995 76.4522 37.7796C76.7021 37.5697 77.022 37.4597 77.3419 37.4797H77.6218V39.6189ZM80.5707 39.1991C80.0909 38.8592 79.761 38.3694 79.6211 37.7996C79.761 37.6497 79.9409 37.5297 80.1309 37.4497C80.3308 37.3498 80.5607 37.2998 80.7806 37.2998C81.0605 37.2798 81.3304 37.3398 81.5703 37.4797C81.5304 38.1895 81.1405 38.8292 80.5307 39.1991H80.5707Z" fill="#2E3D52"/>
<path d="M90.847 35.2505H90.2772V40.1188H90.847V35.2505Z" fill="#2E3D52"/>
<path d="M95.4254 36.4204C95.6454 36.4204 95.7554 36.3004 95.7554 36.0604C95.7554 35.8204 95.6454 35.7004 95.4254 35.7004C95.1954 35.7004 95.0854 35.8204 95.0854 36.0604C95.0854 36.3004 95.1954 36.4204 95.4254 36.4204Z" fill="#2E3D52"/>
<path d="M94.4458 36.4204C94.6658 36.4204 94.7758 36.3004 94.7758 36.0604C94.7758 35.8204 94.6658 35.7004 94.4458 35.7004C94.2158 35.7004 94.1058 35.8204 94.1058 36.0604C94.1058 36.3004 94.2158 36.4204 94.4458 36.4204Z" fill="#2E3D52"/>
<path d="M98.5247 36.4006V36.0806L97.9947 36.1506H97.8847C97.7647 36.1006 97.6847 35.9806 97.6847 35.8506C97.6847 35.6306 97.7947 35.5206 98.0247 35.5206C98.1347 35.5206 98.2447 35.5506 98.3447 35.6006L98.4347 35.3106C98.3047 35.2406 98.1647 35.2106 98.0147 35.2106C97.8447 35.2106 97.6747 35.2506 97.5347 35.3606C97.4247 35.4706 97.3547 35.6306 97.3647 35.7906C97.3647 35.9506 97.4447 36.1106 97.5847 36.1906H97.2847V36.4806L97.9447 36.3906H98.5247V36.4006Z" fill="#2E3D52"/>
<path d="M100.524 40.3586C100.304 40.3586 100.194 40.4786 100.194 40.7186C100.194 40.9586 100.304 41.0686 100.524 41.0686C100.744 41.0686 100.854 40.9586 100.854 40.7186C100.854 40.4786 100.764 40.3586 100.524 40.3586Z" fill="#2E3D52"/>
<path d="M99.9039 40.7186C99.9039 40.4786 99.7839 40.3586 99.5639 40.3586C99.3439 40.3586 99.2339 40.4786 99.2339 40.7186C99.2339 40.9586 99.3439 41.0686 99.5639 41.0686C99.7339 41.0886 99.8839 40.9586 99.9039 40.7886C99.9039 40.7686 99.9039 40.7386 99.9039 40.7186Z" fill="#2E3D52"/>
<path d="M106.521 40.1188H107.811V35.2505H107.241V39.619H105.752V38.0495C105.792 37.4697 105.582 36.9 105.192 36.4701C104.752 36.0703 104.172 35.8603 103.572 35.9003C103.123 35.9003 102.673 35.9603 102.243 36.1002L102.393 36.5901C102.773 36.4701 103.172 36.4101 103.572 36.4101C104.022 36.3701 104.472 36.5201 104.812 36.83C105.102 37.1898 105.252 37.6397 105.212 38.0995V39.619H104.212V37.3298H103.442C102.983 37.2998 102.523 37.4298 102.143 37.6897C101.833 37.9296 101.663 38.2994 101.683 38.6893C101.653 39.0592 101.823 39.409 102.133 39.609H101.023C100.843 39.639 100.663 39.599 100.523 39.489C100.404 39.3691 100.344 39.2091 100.354 39.0392V37.0399H99.7837V39.649H98.7841C98.6141 39.649 98.4442 39.599 98.3243 39.479C98.2043 39.3591 98.1343 39.1991 98.1443 39.0292V37.0299H97.5745V39.639H96.1251V37.0299H95.1254C94.6656 37.0099 94.2058 37.1699 93.8559 37.4697C93.526 37.7796 93.3561 38.2295 93.3761 38.6793C93.3161 39.419 93.8659 40.0788 94.6056 40.1388C94.6856 40.1388 94.7556 40.1388 94.8355 40.1388H98.1743V39.7689C98.3243 40.0188 98.6042 40.1688 98.894 40.1388H100.364V39.7689C100.503 40.0288 100.793 40.1688 101.083 40.1388H106.521V40.1188ZM95.5953 39.619H94.8655C94.2757 39.619 93.9858 39.2891 93.9858 38.6193C93.9658 38.3094 94.0758 37.9996 94.2957 37.7796C94.5456 37.5697 94.8655 37.4597 95.1854 37.4797H95.5953V39.619ZM103.702 39.619H103.172C102.933 39.619 102.703 39.539 102.533 39.3691C102.363 39.1991 102.273 38.9592 102.283 38.7193C102.283 38.1295 102.673 37.8296 103.442 37.8296H103.702V39.619Z" fill="#2E3D52"/>
<path d="M109.46 35.2505H108.89V40.1188H109.46V35.2505Z" fill="#2E3D52"/>
<path d="M52.7309 28.9328C50.6716 30.3123 47.8327 30.9921 44.2839 30.9921C40.7552 31.0721 37.2365 30.4223 33.9677 29.0828C33.9277 27.0035 33.7278 24.9243 33.3679 22.875C36.4068 25.0842 40.0755 26.2538 43.8341 26.2038C48.4724 26.2038 50.8316 24.7444 50.8316 21.8654C50.8316 20.7058 49.8319 19.6662 47.8327 18.8065C45.8634 18.0568 43.8441 17.427 41.7849 16.9372C40.0255 16.5673 38.3161 15.9775 36.6967 15.1778C34.5275 13.7983 33.258 11.3592 33.3679 8.79016C33.208 5.87122 34.7674 3.13222 37.3665 1.7927C39.9455 0.513169 42.8145 -0.0966085 45.6934 0.0333442C48.4924 0.0533369 51.2714 0.453191 53.9604 1.23291C53.9604 2.72237 54.0704 4.63167 54.2903 6.91084C51.4713 5.47136 48.3425 4.75163 45.1736 4.8216C40.9552 4.8216 38.8559 6.01117 38.8559 8.37031C38.8559 10.1996 41.525 11.7091 46.853 12.8887C49.2221 13.2785 51.5013 14.0982 53.5806 15.2878C55.5898 16.6873 56.7094 19.0464 56.5295 21.4855C56.4695 24.8243 55.24 27.3234 52.7309 28.9328Z" fill="url(#paint0_linear_3009_789)"/>
<path d="M86.3186 29.4227C83.1798 30.5522 79.861 31.082 76.5322 30.9921C68.4152 30.9921 63.1871 27.8532 60.7579 21.5355C59.9982 19.5362 59.6184 17.417 59.6384 15.2878C59.6384 10.4296 61.1278 6.66093 64.1167 3.93193C67.1056 1.20292 70.9242 0.00335693 75.8225 0.00335693C79.1912 0.00335693 82.54 0.523168 85.7588 1.5328C85.7588 2.53244 85.6889 3.25217 85.6889 3.742C85.6889 4.98155 85.8188 6.22109 86.0587 7.44065C83.0598 5.80125 79.721 4.90157 76.3023 4.8216C73.5133 4.69165 70.7843 5.67129 68.7151 7.55061C66.7558 9.4999 65.7061 12.1889 65.8361 14.9579C65.6662 17.9768 66.7857 20.9157 68.905 23.065C71.1542 25.1042 74.1231 26.1738 77.162 26.0139C80.6907 25.9239 84.1294 24.9143 87.1583 23.1049C86.6985 25.1842 86.4186 27.2934 86.3186 29.4227Z" fill="url(#paint1_linear_3009_789)"/>
<path d="M110 5.91121C109.79 3.95192 109.69 1.97264 109.7 0.00335693H90.2672L96.395 4.8216C96.395 4.8216 106.361 4.13185 110 5.91121Z" fill="url(#paint2_linear_3009_789)"/>
<path d="M103.792 17.9069V13.0886C98.3443 13.0886 90.2672 15.4977 90.2672 15.4977C90.2672 15.4977 98.2743 17.9069 103.792 17.9069Z" fill="#E3AD56"/>
<path d="M110 25.0842C109.79 27.0435 109.69 29.0128 109.7 30.9821H90.2672L96.395 26.1638C96.395 26.1638 106.361 26.8636 110 25.0842Z" fill="url(#paint3_linear_3009_789)"/>
<path d="M25.5507 16.5174L27.9299 12.9487L14.005 22.6351L0.0800171 12.9487L2.45915 16.5174L11.6158 24.3045L2.00932 30.9821H8.52694L14.005 26.3338L19.483 30.9821H26.0006L16.3941 24.3045L25.5507 16.5174Z" fill="url(#paint4_radial_3009_789)"/>
<path d="M22.5518 8.50025C22.5718 8.23035 22.5718 7.95045 22.5518 7.68055C19.7529 5.75125 17.7936 5.28142 15.6744 5.41137C17.6736 4.80159 19.7729 4.62166 21.8421 4.86157C21.3423 3.70199 20.5926 2.66237 19.6629 1.80269C17.8236 2.18255 16.1442 3.1322 14.8546 4.5017C15.5144 3.23217 16.0242 1.89265 16.3641 0.503159C14.8447 0.0633188 13.2452 0.0633188 11.7258 0.503159C12.0657 1.89265 12.5755 3.23217 13.2352 4.5017C11.9457 3.1422 10.2763 2.20254 8.43698 1.82268C7.50732 2.68237 6.75759 3.72199 6.25778 4.88157C8.33702 4.64165 10.4363 4.82159 12.4355 5.43137C10.3063 5.30141 8.34702 5.77124 5.54803 7.70054V8.52024C5.54803 9.59985 5.73797 10.6795 6.11783 11.6891C7.94716 9.86975 9.93644 8.22035 12.0657 6.76088C9.65654 8.65019 8.1071 11.4292 7.76723 14.4781C8.71688 15.5677 9.91644 16.4074 11.276 16.9072C11.4859 13.4784 12.2356 10.1097 13.4951 6.91083C13.5551 10.8294 13.0553 17.347 12.8554 20.4959L14.1049 21.3656L15.3045 20.5259C15.1146 17.397 14.6147 10.8394 14.6647 6.91083C15.9243 10.1097 16.674 13.4784 16.8939 16.9072C18.2534 16.4074 19.453 15.5677 20.4026 14.4781C20.0628 11.4292 18.5033 8.65019 16.0942 6.76088C18.2234 8.22035 20.2127 9.86975 22.042 11.6891C22.4019 10.6695 22.5718 9.58985 22.5518 8.50025Z" fill="url(#paint5_radial_3009_789)"/>
<path d="M22.5518 8.42031V7.60061C19.7429 5.66131 17.7736 5.19148 15.6344 5.32143C17.6436 4.71166 19.7529 4.53172 21.8321 4.77164C21.3323 3.60206 20.5826 2.55244 19.6429 1.70275C17.8036 2.09261 16.1242 3.02227 14.8347 4.39177C15.5044 3.11224 16.0142 1.75273 16.3541 0.343247C14.8347 -0.0965933 13.2152 -0.0965933 11.6958 0.343247C12.0357 1.75273 12.5455 3.11224 13.2053 4.39177C11.9157 3.02227 10.2363 2.08261 8.397 1.70275C7.45734 2.55244 6.70762 3.60206 6.2078 4.77164C8.28704 4.53172 10.3963 4.71166 12.4055 5.32143C10.2763 5.19148 8.30703 5.66131 5.49806 7.60061C5.47806 7.87051 5.47806 8.15041 5.49806 8.42031C5.49806 9.50991 5.68799 10.5895 6.06785 11.6091C7.90718 9.77981 9.91645 8.12042 12.0657 6.66095C9.64655 8.56026 8.08712 11.3492 7.74724 14.4081C8.69689 15.5077 9.91645 16.3474 11.276 16.8472C11.4859 13.3985 12.2356 10.0097 13.5051 6.7909C13.5051 10.7195 13.0653 17.2671 12.8654 20.4359L14.1149 21.3056L15.3245 20.4559C15.1246 17.3171 14.6247 10.7395 14.6747 6.7909C15.9443 10.0097 16.694 13.3985 16.9139 16.8472C18.2734 16.3474 19.483 15.5077 20.4326 14.4081C20.0927 11.3492 18.5333 8.56026 16.1142 6.66095C18.2634 8.13041 20.2627 9.77981 22.112 11.6091C22.4419 10.5795 22.5918 9.49991 22.5518 8.42031Z" fill="url(#paint6_radial_3009_789)"/>
<path opacity="0.7" d="M15.5544 5.32145C16.4441 5.14151 17.4037 4.8916 18.4533 4.74166C18.3434 4.53173 18.2134 4.32181 18.0635 4.13188C17.6536 3.62206 17.1338 3.21221 16.534 2.93232C15.8843 3.34217 15.2845 3.83199 14.7547 4.39178C15.0746 3.812 15.3445 3.21221 15.5744 2.59244C14.4848 2.34253 13.3652 2.29255 12.2556 2.45249C12.4955 3.12225 12.7854 3.77201 13.1253 4.39178C12.4955 3.71203 11.7558 3.14224 10.9461 2.6924C9.32665 3.07226 7.75722 3.66205 6.27776 4.44177L6.12781 4.77165C8.20706 4.53173 10.3163 4.71167 12.3256 5.32145C10.1963 5.19149 8.22705 5.66132 5.41807 7.60062C5.39808 7.87052 5.39808 8.15042 5.41807 8.42032C5.41807 9.50992 5.608 10.5895 5.98786 11.6092C7.82719 9.77982 9.83646 8.12043 11.9857 6.66096C9.56656 8.56027 8.00713 11.3493 7.66725 14.4081C8.61691 15.5077 9.83646 16.3474 11.196 16.8473C11.4059 13.3985 12.1556 10.0097 13.4252 6.79091C13.4252 9.70985 13.2052 14.0483 12.9853 17.3971C13.6651 16.7673 14.3048 16.0975 14.9146 15.3978C14.7347 12.4489 14.5647 9.12006 14.5947 6.75093C15.4544 8.92014 16.0842 11.1693 16.4541 13.4685C17.3637 12.2189 18.0735 10.8494 18.5733 9.38997C17.8935 8.32036 17.0338 7.39069 16.0342 6.62097C16.9839 7.24075 17.9035 7.9105 18.7832 8.62025C19.0431 7.6406 19.0731 6.61098 18.8732 5.62134C17.7936 5.30145 16.674 5.20149 15.5544 5.32145Z" fill="url(#paint7_linear_3009_789)"/>
<path opacity="0.6" d="M2.55912 16.5773L7.91717 21.1257C8.63691 20.7358 9.32666 20.306 9.99642 19.8361L0.199982 13.0186L2.55912 16.5773Z" fill="url(#paint8_linear_3009_789)"/>
</g>
</g>
<defs>
<linearGradient id="paint0_linear_3009_789" x1="33.3236" y1="15.5025" x2="56.5146" y2="15.5025" gradientUnits="userSpaceOnUse">
<stop stop-color="#222F42"/>
<stop offset="0.34" stop-color="#31415C"/>
<stop offset="0.67" stop-color="#405372"/>
<stop offset="1" stop-color="#222F42"/>
</linearGradient>
<linearGradient id="paint1_linear_3009_789" x1="59.5984" y1="15.4977" x2="87.1183" y2="15.4977" gradientUnits="userSpaceOnUse">
<stop stop-color="#222F42"/>
<stop offset="0.34" stop-color="#31415C"/>
<stop offset="0.67" stop-color="#405372"/>
<stop offset="1" stop-color="#222F42"/>
</linearGradient>
<linearGradient id="paint2_linear_3009_789" x1="90.2391" y1="2.95635" x2="109.971" y2="2.95635" gradientUnits="userSpaceOnUse">
<stop stop-color="#222F42"/>
<stop offset="0.34" stop-color="#31415C"/>
<stop offset="0.67" stop-color="#405372"/>
<stop offset="1" stop-color="#222F42"/>
</linearGradient>
<linearGradient id="paint3_linear_3009_789" x1="90.2391" y1="28.0322" x2="109.971" y2="28.0322" gradientUnits="userSpaceOnUse">
<stop stop-color="#222F42"/>
<stop offset="0.34" stop-color="#31415C"/>
<stop offset="0.67" stop-color="#405372"/>
<stop offset="1" stop-color="#222F42"/>
</linearGradient>
<radialGradient id="paint4_radial_3009_789" cx="0" cy="0" r="1" gradientUnits="userSpaceOnUse" gradientTransform="translate(13.835 23.8647) scale(8.00709)">
<stop stop-color="#E3AD57"/>
<stop offset="1" stop-color="#D7A552"/>
</radialGradient>
<radialGradient id="paint5_radial_3009_789" cx="0" cy="0" r="1" gradientUnits="userSpaceOnUse" gradientTransform="translate(14.0549 10.7394) scale(9.6165)">
<stop stop-color="#E3AD57"/>
<stop offset="1" stop-color="#D7A552"/>
</radialGradient>
<radialGradient id="paint6_radial_3009_789" cx="0" cy="0" r="1" gradientUnits="userSpaceOnUse" gradientTransform="translate(13.985 10.6595) scale(9.66648)">
<stop stop-color="#E3AD57"/>
<stop offset="1" stop-color="#D7A552"/>
</radialGradient>
<linearGradient id="paint7_linear_3009_789" x1="15.4844" y1="16.0176" x2="11.036" y2="5.25147" gradientUnits="userSpaceOnUse">
<stop stop-color="white"/>
<stop offset="1" stop-color="white" stop-opacity="0"/>
</linearGradient>
<linearGradient id="paint8_linear_3009_789" x1="7.07748" y1="21.2356" x2="3.89864" y2="13.5284" gradientUnits="userSpaceOnUse">
<stop stop-color="white"/>
<stop offset="1" stop-color="white" stop-opacity="0"/>
</linearGradient>
<clipPath id="clip0_3009_789">
<rect width="109.92" height="46" fill="white" transform="translate(0.0800171)"/>
</clipPath>
<clipPath id="clip1_3009_789">
<rect width="109.92" height="45.9933" fill="white" transform="translate(0.0800171 0.00335693)"/>
</clipPath>
</defs>
</svg>
