<svg width="76" height="50" viewBox="0 0 76 50" fill="none" xmlns="http://www.w3.org/2000/svg">
<g clip-path="url(#clip0_3012_1679)">
<g clip-path="url(#clip1_3012_1679)">
<g clip-path="url(#clip2_3012_1679)">
<path d="M44.6809 2.23244H45.6399V1.27344H44.6809V2.23244Z" fill="white"/>
<path d="M46.187 2.23244H47.146V1.27344H46.187V2.23244Z" fill="white"/>
<path d="M62.792 12.336H63.751V11.377H62.792V12.336Z" fill="white"/>
<path d="M60.875 12.336H61.834V11.377H60.875V12.336Z" fill="white"/>
<path d="M72.2439 9.96777C72.4366 9.87984 72.6021 9.74168 72.7229 9.56777C72.8508 9.37355 72.9382 9.15554 72.9799 8.92677C73.0337 8.64635 73.0595 8.36129 73.0569 8.07577V2.46777H72.2469V8.07577C72.2492 8.26803 72.2375 8.46021 72.2119 8.65077C72.1958 8.78424 72.1548 8.91348 72.0909 9.03177C72.037 9.12471 71.9551 9.19822 71.8569 9.24177C71.7367 9.28919 71.6081 9.31132 71.4789 9.30677C71.4148 9.30734 71.3507 9.304 71.2869 9.29677C71.2119 9.28611 71.1377 9.27007 71.0649 9.24877L70.8569 10.0198C71.0706 10.0789 71.2912 10.1091 71.5129 10.1098C71.7639 10.1174 72.0135 10.0696 72.2439 9.96977" fill="white"/>
<mask id="mask0_3012_1679" style="mask-type:luminance" maskUnits="userSpaceOnUse" x="67" y="0" width="3" height="2">
<path d="M67.7 0H69.468V1.666H67.7V0Z" fill="white"/>
</mask>
<g mask="url(#mask0_3012_1679)">
<path d="M69.468 1.04821H68.36V0.86221C68.3545 0.778782 68.3774 0.695949 68.425 0.62721C68.4597 0.599449 68.4997 0.579019 68.5425 0.567158C68.5853 0.555297 68.63 0.552253 68.674 0.55821H69.229V0.00220962H68.658C68.3983 -0.0152287 68.1422 0.0710838 67.946 0.24221C67.8568 0.347979 67.7894 0.470423 67.7479 0.602434C67.7064 0.734444 67.6914 0.873391 67.704 1.01121V1.66621H69.468V1.04821Z" fill="white"/>
</g>
<mask id="mask1_3012_1679" style="mask-type:luminance" maskUnits="userSpaceOnUse" x="0" y="0" width="76" height="50">
<path d="M0 50H75.14V0H0V50Z" fill="white"/>
</mask>
<g mask="url(#mask1_3012_1679)">
<path d="M66.848 10.5833C66.5944 10.5831 66.3417 10.5532 66.095 10.4943C65.8031 10.422 65.5157 10.3328 65.234 10.2273L65.498 9.4203C65.7275 9.52566 65.9662 9.60968 66.211 9.6713C66.4408 9.72253 66.6756 9.74736 66.911 9.74531C67.2878 9.76741 67.6617 9.66823 67.978 9.46231C68.1125 9.34689 68.2171 9.20069 68.2829 9.03615C68.3487 8.87162 68.3738 8.69362 68.356 8.5173V7.6833L68.072 8.2753H67.856C67.4023 8.27832 66.9501 8.22389 66.51 8.11331C66.1113 8.01603 65.7337 7.84657 65.396 7.61331C65.0769 7.38701 64.8161 7.08814 64.635 6.7413C64.4395 6.34539 64.3437 5.90769 64.356 5.4663C64.352 5.06971 64.4375 4.67731 64.606 4.3183C64.7755 3.96614 65.0195 3.65497 65.321 3.4063C65.6482 3.14106 66.0209 2.93773 66.421 2.8063C66.8837 2.653 67.3686 2.57764 67.856 2.5833H69.203V8.4333C69.2312 9.00919 69.0298 9.57274 68.643 10.0003C68.3984 10.2132 68.1133 10.3745 67.8049 10.4747C67.4965 10.5748 67.1711 10.6118 66.848 10.5833ZM67.475 3.4323C67.1923 3.43696 66.9122 3.48797 66.646 3.5833C66.3789 3.67709 66.1305 3.81723 65.912 3.9973C65.698 4.17608 65.5222 4.39612 65.395 4.6443C65.2623 4.90004 65.1937 5.18418 65.195 5.4723C65.1899 5.76208 65.2515 6.04915 65.375 6.3113C65.493 6.55263 65.6639 6.76422 65.875 6.93031C66.0939 7.10198 66.3428 7.23151 66.609 7.3123C66.8978 7.40176 67.1987 7.44628 67.501 7.4443H68.356V3.6713L68.841 3.4323H67.475Z" fill="white"/>
<path d="M62.977 10.4983H47.571C47.3079 10.5064 47.0464 10.4562 46.805 10.3513C46.6032 10.2576 46.4304 10.1111 46.305 9.92735C46.29 9.90635 46.277 9.88235 46.264 9.86035L46.252 9.84035V10.4683H44.491C43.9653 10.4755 43.4438 10.3752 42.9583 10.1735C42.4728 9.97175 42.0338 9.67293 41.668 9.29535C40.9677 8.55269 40.5818 7.56802 40.591 6.54735V6.52535C40.5832 5.49947 40.9727 4.51039 41.678 3.76535C42.0456 3.38524 42.4871 3.08438 42.9754 2.88128C43.4636 2.67818 43.9882 2.57713 44.517 2.58435H46.8V8.37035C46.798 8.57097 46.8104 8.77148 46.837 8.97035C46.8537 9.11035 46.8965 9.24601 46.963 9.37035C47.019 9.46725 47.104 9.54419 47.206 9.59035C47.3332 9.64047 47.4694 9.66362 47.606 9.65835H62.136V2.58435H62.981V10.4973L62.977 10.4983ZM44.491 3.37835C44.0862 3.37799 43.6855 3.45956 43.3131 3.61814C42.9406 3.77672 42.6041 4.00904 42.3238 4.30109C42.0436 4.59315 41.8253 4.93892 41.6821 5.31756C41.539 5.69621 41.474 6.09991 41.491 6.50435V6.52635C41.479 6.93274 41.5482 7.33745 41.6946 7.71676C41.841 8.09607 42.0616 8.44236 42.3435 8.73534C42.6254 9.02832 42.9629 9.2621 43.3363 9.423C43.7097 9.58389 44.1114 9.66866 44.518 9.67235H46.166C46.1074 9.53848 46.0635 9.39867 46.035 9.25535C45.9796 8.96333 45.9531 8.66656 45.956 8.36935V3.63735L46.473 3.38435L44.491 3.37835Z" fill="white"/>
<path d="M36.3641 8.38422L36.7321 9.35022L31.3661 2.57422H30.5271V10.4512H31.4001V4.51422L30.9031 3.36622L36.5271 10.4502H37.2371V2.57422H36.3641V8.38422Z" fill="white"/>
<path d="M48.397 23.035L53.269 18.419V15.249H40.251V18.855H46.923L49.403 17.273L43.223 23.449L43.884 26.127H45.646C48.013 26.127 49.417 27.002 49.417 28.559V28.613C49.417 30.034 48.289 30.935 46.693 30.935C45.7941 30.9326 44.9076 30.7246 44.1014 30.3268C43.2953 29.929 42.5908 29.352 42.042 28.64L39.123 31.396C40.0426 32.4808 41.1969 33.3421 42.4985 33.9149C43.8002 34.4876 45.215 34.7568 46.636 34.702C50.929 34.702 53.571 32.052 53.571 28.445V28.39C53.571 24.838 51.012 23.473 48.397 23.035Z" fill="white"/>
<path d="M25.0049 10.5859C24.4607 10.5942 23.9207 10.4909 23.4179 10.2825C22.9152 10.0741 22.4605 9.76484 22.0819 9.37394C21.3588 8.60653 20.9604 7.5893 20.9699 6.53494V6.51294C20.9617 5.45318 21.3642 4.43141 22.0929 3.66194C22.4725 3.26858 22.9287 2.9572 23.4333 2.74702C23.9379 2.53684 24.4803 2.43233 25.0269 2.43994C25.5709 2.43146 26.1109 2.53444 26.6136 2.74254C27.1163 2.95063 27.571 3.25944 27.9499 3.64994C28.6733 4.41754 29.0718 5.43521 29.0619 6.48994V6.51294C29.0698 7.57235 28.6674 8.59371 27.9389 9.36294C27.5594 9.75648 27.1032 10.068 26.5986 10.2784C26.094 10.4887 25.5516 10.5934 25.0049 10.5859ZM25.0049 3.26094C24.5862 3.25976 24.1716 3.34342 23.7861 3.50685C23.4007 3.67028 23.0523 3.91011 22.762 4.21186C22.4718 4.51361 22.2457 4.87103 22.0973 5.26256C21.949 5.65409 21.8815 6.07161 21.8989 6.48994V6.51294C21.8862 6.93302 21.9576 7.35139 22.1087 7.74354C22.2599 8.13568 22.4878 8.4937 22.7792 8.79659C23.0705 9.09949 23.4194 9.34116 23.8054 9.50744C24.1913 9.67372 24.6066 9.76127 25.0269 9.76494C25.4451 9.76595 25.8593 9.68232 26.2444 9.51907C26.6294 9.35582 26.9775 9.11634 27.2676 8.81504C27.5577 8.51373 27.7838 8.15684 27.9323 7.76585C28.0809 7.37486 28.1488 6.95785 28.1319 6.53994V6.51294C28.1446 6.09294 28.0732 5.67465 27.9222 5.28257C27.7711 4.89049 27.5432 4.53252 27.252 4.22964C26.9607 3.92676 26.612 3.68506 26.2261 3.51872C25.8402 3.35238 25.4251 3.26474 25.0049 3.26094Z" fill="white"/>
<path d="M64.8751 34.7013C62.1465 34.7458 59.5107 33.7111 57.5411 31.8223C56.6209 30.9141 55.8922 29.8306 55.3982 28.6358C54.9042 27.441 54.6549 26.1592 54.6651 24.8663V24.8113C54.6562 23.5116 54.9082 22.2233 55.4064 21.0227C55.9045 19.8222 56.6386 18.7339 57.5651 17.8223C59.5419 15.9227 62.1888 14.8804 64.9301 14.9223C67.6589 14.8773 70.2951 15.9116 72.2651 17.8003C73.1852 18.7083 73.9139 19.7917 74.4079 20.9864C74.9019 22.181 75.1512 23.4626 75.1411 24.7553V24.8103C75.1494 26.1094 74.897 27.3969 74.3989 28.5967C73.9008 29.7965 73.167 30.8841 72.2411 31.7953C70.2667 33.6977 67.6206 34.7429 64.8791 34.7033L64.8751 34.7013ZM64.8751 18.8013C64.0995 18.7954 63.3308 18.9467 62.6153 19.2461C61.8998 19.5455 61.2524 19.9868 60.7122 20.5433C60.172 21.0999 59.7502 21.7601 59.4723 22.4842C59.1943 23.2083 59.066 23.9812 59.0951 24.7563V24.8113C59.0753 25.5913 59.2113 26.3674 59.4953 27.0941C59.7793 27.8208 60.2056 28.4835 60.749 29.0434C61.2925 29.6032 61.9422 30.049 62.6602 30.3544C63.3781 30.6599 64.1499 30.819 64.9301 30.8223C65.7058 30.8283 66.4746 30.6769 67.1902 30.3775C67.9057 30.078 68.5532 29.6366 69.0934 29.08C69.6336 28.5233 70.0554 27.8629 70.3332 27.1387C70.6111 26.4145 70.7393 25.6415 70.7101 24.8663V24.8113C70.7299 24.0314 70.5939 23.2553 70.3098 22.5287C70.0258 21.802 69.5996 21.1394 69.0561 20.5796C68.5126 20.0198 67.8629 19.5742 67.1449 19.2688C66.427 18.9635 65.6553 18.8045 64.8751 18.8013Z" fill="white"/>
<path d="M18.53 10.4512H19.43V2.57422H18.53V10.4512Z" fill="white"/>
<path d="M4.14705 32.1876L4.96505 31.5606L9.17505 28.3346C12.587 25.7116 14.239 24.1266 14.239 20.9346V20.8746C14.239 17.2956 11.597 14.9746 7.60705 14.9746C4.16605 14.9746 2.32205 16.3686 0.422049 18.9386L3.39505 21.3146C4.82605 19.5646 5.84505 18.7456 7.33105 18.7456C7.67062 18.7115 8.01355 18.7516 8.33611 18.8631C8.65866 18.9746 8.95314 19.1549 9.19917 19.3914C9.4452 19.6279 9.63691 19.9151 9.76104 20.233C9.88516 20.5509 9.93873 20.892 9.91805 21.2326C9.91805 22.8166 8.98205 23.8556 6.58805 25.8226L0.175049 31.0396V34.3746H14.431V30.7386H7.08505L4.14705 32.1876Z" fill="white"/>
<path d="M4.205 10.5062L7.616 2.57422H6.653L3.953 9.03022L4.039 9.89522L3.815 9.35822L1.485 3.74722L1 2.57422H0L3.412 10.5062H4.205Z" fill="white"/>
<path d="M8.83203 10.4512H9.73203V2.57422H8.83203V10.4512Z" fill="white"/>
<path d="M14.469 6.08346C12.723 5.71246 12.316 5.29546 12.316 4.55346V4.53146C12.316 3.82246 12.973 3.26246 14.003 3.26246C14.8437 3.26266 15.6562 3.56545 16.292 4.11546L16.815 3.42946C16.0352 2.77702 15.0433 2.43299 14.027 2.46246C13.7135 2.42542 13.3957 2.45217 13.0928 2.54111C12.7899 2.63005 12.5081 2.77934 12.2644 2.98C12.0207 3.18066 11.82 3.42854 11.6746 3.70874C11.5291 3.98894 11.4419 4.29566 11.418 4.61046V4.63246C11.418 5.92646 12.256 6.51146 14.081 6.90546C15.747 7.25646 16.144 7.67046 16.144 8.40546V8.42746C16.144 9.20446 15.444 9.76646 14.376 9.76646C13.8711 9.77069 13.3705 9.67407 12.9034 9.48226C12.4363 9.29045 12.0122 9.00732 11.656 8.64946L11.103 9.30146C11.9801 10.1244 13.1414 10.5762 14.344 10.5625C15.919 10.5625 17.053 9.68446 17.053 8.33446V8.31246C17.053 7.11246 16.237 6.46646 14.469 6.08346Z" fill="white"/>
<path d="M3.91406 44.4198H4.41406V43.9268H3.91406V44.4198Z" fill="white"/>
<path d="M37.3309 43.3568H31.8549C31.5977 43.3568 31.3415 43.3232 31.0929 43.2568C30.8656 43.2003 30.6509 43.1016 30.4599 42.9658C30.2784 42.8345 30.1293 42.6635 30.0239 42.4658C29.9094 42.2381 29.8531 41.9856 29.8599 41.7308C29.8583 41.5069 29.9068 41.2855 30.0019 41.0828C30.0961 40.8826 30.2326 40.7052 30.4019 40.5628C30.5886 40.4105 30.8023 40.2948 31.0319 40.2218C31.2979 40.1371 31.5758 40.0956 31.8549 40.0988H32.6169V42.8768H34.5389V40.0988H35.0229V42.8768H36.8489V40.0988H37.3319L37.3309 43.3568ZM31.6549 40.5788C31.4902 40.5789 31.3267 40.6063 31.1709 40.6598C31.018 40.712 30.8758 40.7913 30.7509 40.8938C30.6275 40.9945 30.5255 41.119 30.4509 41.2598C30.3756 41.4053 30.3371 41.567 30.3389 41.7308C30.3353 41.8973 30.3695 42.0625 30.4389 42.2138C30.5053 42.3528 30.6012 42.4757 30.7199 42.5738C30.8436 42.6742 30.9851 42.7505 31.1369 42.7988C31.3022 42.8512 31.4746 42.8772 31.6479 42.8758H32.1259V40.5788H31.6549Z" fill="white"/>
<path d="M26.9871 43.3568H27.4711V39.0498H26.9871V43.3568Z" fill="white"/>
<path d="M32.1169 39.5428H32.6169V39.0498H32.1169V39.5428Z" fill="white"/>
<path d="M36.8411 44.4139H37.3411V43.9209H36.8411V44.4139Z" fill="white"/>
<path d="M4.76001 44.4198H5.26001V43.9268H4.76001V44.4198Z" fill="white"/>
<path d="M10.785 44.6778C10.6396 44.678 10.4946 44.6612 10.353 44.6278C10.1856 44.5876 10.0206 44.5375 9.85905 44.4778L10.01 44.0148C10.1414 44.075 10.278 44.1232 10.418 44.1588C10.5494 44.1878 10.6836 44.2018 10.818 44.2008C11.0335 44.2136 11.2474 44.1568 11.428 44.0388C11.5059 43.9726 11.5664 43.8885 11.6046 43.7938C11.6427 43.699 11.6573 43.5964 11.647 43.4948V43.3568H11.359C11.1002 43.3581 10.8421 43.3269 10.591 43.2638C10.3626 43.208 10.1463 43.1107 9.95305 42.9768C9.76997 42.8472 9.62048 42.6758 9.51705 42.4768C9.40599 42.2509 9.35175 42.0014 9.35905 41.7498C9.3575 41.5226 9.40741 41.298 9.50505 41.0928C9.6006 40.8912 9.73878 40.7128 9.91005 40.5698C10.0979 40.4172 10.3121 40.3003 10.542 40.2248C10.8056 40.1382 11.0816 40.0957 11.359 40.0988H12.134V42.8768H13.808L12.959 40.8668C13.0858 40.7531 13.2194 40.6472 13.359 40.5498C13.5003 40.451 13.6498 40.3647 13.806 40.2918C13.9581 40.2212 14.116 40.164 14.278 40.1208C14.5848 40.037 14.9083 40.037 15.215 40.1208C15.3755 40.1642 15.5315 40.2224 15.681 40.2948C15.8359 40.3702 15.9853 40.4564 16.128 40.5528C16.2714 40.6493 16.4086 40.7545 16.539 40.8678L15.691 42.8778H18.231V40.3988H18.714V42.8768H19.651C19.7557 42.8776 19.8599 42.8624 19.96 42.8318C20.0557 42.8027 20.1442 42.754 20.22 42.6888C20.2985 42.6194 20.3603 42.5333 20.401 42.4368C20.4457 42.3164 20.4655 42.1881 20.459 42.0598V40.3988H20.944V42.0988C20.9474 42.2124 20.9743 42.3241 21.023 42.4268C21.0713 42.5282 21.1393 42.619 21.223 42.6938C21.3111 42.7718 21.4128 42.8328 21.523 42.8738C21.6467 42.9187 21.7775 42.9411 21.909 42.9398C22.0333 42.9489 22.158 42.9313 22.2749 42.8879C22.3917 42.8446 22.4978 42.7767 22.586 42.6888C22.7415 42.5039 22.8215 42.2671 22.81 42.0258V40.3988H23.294V41.9498C23.2965 42.1016 23.2821 42.2532 23.251 42.4018C23.3391 42.5573 23.4719 42.6827 23.632 42.7618C23.8419 42.8513 24.0692 42.8923 24.297 42.8818H25.089V39.0498H25.573V43.3568H24.173V43.3498C24.0559 43.3466 23.9394 43.3322 23.825 43.3068C23.7079 43.2799 23.595 43.2375 23.489 43.1808C23.4043 43.135 23.3278 43.0751 23.263 43.0038C23.2065 42.9421 23.1559 42.8751 23.112 42.8038C23.0103 43.0051 22.8457 43.1677 22.643 43.2668C22.4108 43.3729 22.1573 43.4245 21.902 43.4178C21.6527 43.4237 21.4058 43.3681 21.183 43.2558C20.9857 43.1512 20.8205 42.995 20.705 42.8038C20.5914 42.9713 20.4387 43.1086 20.26 43.2038C20.0675 43.3063 19.8521 43.3582 19.634 43.3548H12.133V43.4498C12.1414 43.6136 12.1173 43.7774 12.0623 43.9318C12.0072 44.0862 11.9221 44.2283 11.812 44.3498C11.6716 44.4706 11.5083 44.5618 11.3319 44.6182C11.1554 44.6745 10.9695 44.6948 10.785 44.6778ZM14.745 40.5838C14.5359 40.583 14.3283 40.6196 14.132 40.6918C13.9233 40.7718 13.7301 40.8875 13.561 41.0338L14.317 42.8758H15.179L15.935 41.0338C15.7725 40.8977 15.5887 40.7893 15.391 40.7128C15.186 40.6287 14.9667 40.5849 14.745 40.5838ZM11.16 40.5838C10.9931 40.5836 10.8274 40.6121 10.67 40.6678C10.5172 40.7215 10.375 40.8017 10.25 40.9048C10.126 41.0061 10.0239 41.1317 9.95005 41.2738C9.87655 41.4215 9.83984 41.5848 9.84305 41.7498C9.83899 41.9157 9.87321 42.0803 9.94305 42.2308C10.0099 42.3687 10.1069 42.4897 10.227 42.5848C10.3525 42.6829 10.4948 42.7571 10.647 42.8038C10.8126 42.8545 10.9849 42.8798 11.158 42.8788H11.648V40.5848L11.16 40.5838Z" fill="white"/>
<path d="M2.25806 39.5428H2.75806V39.0498H2.25806V39.5428Z" fill="white"/>
<path d="M51.1731 39.5428H51.6731V39.0498H51.1731V39.5428Z" fill="white"/>
<path d="M46.8889 43.3568H47.3729V39.0498H46.8889V43.3568Z" fill="white"/>
<path d="M31.27 39.5428H31.77V39.0498H31.27V39.5428Z" fill="white"/>
<path d="M8.59009 41.4666C8.5918 41.2875 8.56652 41.1092 8.51509 40.9376C8.4696 40.7822 8.39038 40.6388 8.28309 40.5176C8.16257 40.3822 8.01508 40.2736 7.85009 40.1986C7.66472 40.1254 7.46624 40.0914 7.26709 40.0986H6.91009V40.5786H7.33309C7.44832 40.5782 7.56215 40.6038 7.66609 40.6536C7.76592 40.7011 7.85454 40.7693 7.92609 40.8536C7.99271 40.9343 8.04115 41.0285 8.06809 41.1296C8.09658 41.2474 8.11002 41.3684 8.10809 41.4896V42.8756H5.84009V43.3556H8.59009V41.4666Z" fill="white"/>
<path d="M72.4751 43.3568H72.9591V39.0498H72.4751V43.3568Z" fill="white"/>
<path d="M52.02 39.5428H52.52V39.0498H52.02V39.5428Z" fill="white"/>
<path d="M67.3069 43.9038C67.0658 43.9053 66.8271 43.8552 66.6069 43.7568C66.3956 43.6619 66.2053 43.5259 66.0469 43.3568H63.9149C63.7522 43.5284 63.5558 43.6646 63.3379 43.7568C63.1093 43.8536 62.8632 43.9026 62.6149 43.9008C62.3738 43.9022 62.1351 43.8521 61.9149 43.7538C61.7041 43.6586 61.5141 43.5227 61.3559 43.3538H51.7559C51.499 43.3537 51.2432 43.3201 50.9949 43.2538C50.7679 43.1967 50.5536 43.0976 50.3629 42.9618C50.1815 42.8305 50.0323 42.6595 49.9269 42.4618C49.8129 42.2354 49.7566 41.9843 49.7629 41.7308C49.7615 41.5073 49.81 41.2862 49.9049 41.0838C49.999 40.8835 50.1355 40.7061 50.3049 40.5638C50.4908 40.4112 50.7039 40.2952 50.9329 40.2218C51.1986 40.1371 51.4761 40.0956 51.7549 40.0988H52.5179V42.8768H56.9929V42.1418C56.9941 42.0248 56.982 41.9081 56.9569 41.7938C56.9335 41.6916 56.8859 41.5966 56.8179 41.5168C56.7447 41.4334 56.6525 41.3689 56.5489 41.3288C56.4217 41.2787 56.2856 41.2549 56.1489 41.2588H53.6859C53.6279 41.1944 53.58 41.1216 53.5439 41.0428C53.5064 40.9567 53.4809 40.8658 53.4679 40.7728L54.3969 39.0498H54.9229L54.0129 40.7798H56.1529C56.3576 40.7726 56.5617 40.8066 56.7529 40.8798C56.9149 40.9523 57.0593 41.0591 57.1759 41.1928C57.2836 41.3142 57.3623 41.4585 57.4059 41.6148C57.455 41.7858 57.4796 41.9629 57.4789 42.1408V42.8768H59.0169V39.0498H59.5009V42.8768H61.0359C60.9912 42.7671 60.956 42.6536 60.9309 42.5378C60.904 42.4167 60.8906 42.2929 60.8909 42.1688C60.8869 41.8267 60.9841 41.491 61.1702 41.2038C61.3563 40.9167 61.623 40.6909 61.9369 40.5548C62.1506 40.4624 62.3812 40.4154 62.6139 40.4168C62.8539 40.4148 63.0919 40.4607 63.3139 40.5518C63.5225 40.6372 63.7124 40.7626 63.8729 40.9208C64.0321 41.0793 64.1585 41.2675 64.2449 41.4748C64.3362 41.6944 64.3824 41.93 64.3809 42.1678C64.3823 42.4119 64.3308 42.6535 64.2299 42.8758H65.7299C65.685 42.766 65.6496 42.6526 65.6239 42.5368C65.5976 42.4156 65.5845 42.2919 65.5849 42.1678C65.5807 41.8257 65.6777 41.4901 65.8636 41.2029C66.0495 40.9158 66.3161 40.6899 66.6299 40.5538C66.8436 40.4615 67.0742 40.4145 67.3069 40.4158C67.5469 40.4137 67.7849 40.4596 68.0069 40.5508C68.2154 40.6364 68.4053 40.7617 68.5659 40.9198C68.725 41.0784 68.8513 41.2666 68.9379 41.4738C69.0294 41.6933 69.0756 41.929 69.0739 42.1668C69.0753 42.4109 69.0238 42.6525 68.9229 42.8748H70.5859V39.0498H71.0699V43.3568H68.6099C68.4471 43.5283 68.2507 43.6645 68.0329 43.7568C67.8034 43.8544 67.5563 43.9037 67.3069 43.9018V43.9038ZM67.3069 40.8978C67.1351 40.8954 66.9647 40.9295 66.8069 40.9978C66.6604 41.0625 66.5279 41.1553 66.4169 41.2708C66.3069 41.3868 66.2197 41.5225 66.1599 41.6708C66.097 41.8265 66.0651 41.9929 66.0659 42.1608C66.0629 42.4917 66.1892 42.8107 66.4179 43.0498C66.5303 43.164 66.6638 43.2554 66.8109 43.3188C66.9666 43.3859 67.1345 43.4199 67.3039 43.4188C67.4749 43.4197 67.6445 43.3885 67.8039 43.3268C67.9557 43.2673 68.094 43.178 68.2106 43.0641C68.3272 42.9502 68.4198 42.8141 68.4829 42.6638C68.5504 42.5058 68.5845 42.3356 68.5829 42.1638C68.5839 41.9898 68.5499 41.8174 68.4829 41.6568C68.4209 41.5068 68.3294 41.3708 68.2139 41.2568C68.0984 41.1444 67.9627 41.0549 67.8139 40.9928C67.6527 40.9285 67.4805 40.8959 67.3069 40.8968V40.8978ZM62.6149 40.8978C62.449 40.8955 62.2845 40.9277 62.1316 40.9922C61.9788 41.0568 61.841 41.1523 61.7269 41.2728C61.6166 41.3888 61.5291 41.5245 61.4689 41.6728C61.4069 41.8287 61.3753 41.995 61.3759 42.1628C61.3752 42.3293 61.4068 42.4943 61.4689 42.6488C61.5296 42.7973 61.6178 42.9331 61.7289 43.0488C61.8413 43.163 61.9748 43.2544 62.1219 43.3178C62.2773 43.3847 62.4448 43.4188 62.6139 43.4178C62.7866 43.4193 62.9579 43.3881 63.1189 43.3258C63.3506 43.2332 63.5488 43.0726 63.6875 42.8652C63.8262 42.6578 63.8988 42.4133 63.8959 42.1638C63.8969 41.9898 63.8629 41.8174 63.7959 41.6568C63.7344 41.5066 63.6429 41.3704 63.5269 41.2568C63.4114 41.1444 63.2757 41.0549 63.1269 40.9928C62.9647 40.9266 62.7911 40.8927 62.6159 40.8928L62.6149 40.8978ZM51.5579 40.5788C51.3932 40.5788 51.2297 40.6062 51.0739 40.6598C50.9211 40.7121 50.7789 40.7914 50.6539 40.8938C50.5308 40.9949 50.4289 41.1192 50.3539 41.2598C50.2786 41.4053 50.2401 41.567 50.2419 41.7308C50.2384 41.8976 50.2726 42.0631 50.3419 42.2148C50.4084 42.3538 50.5043 42.4766 50.6229 42.5748C50.7466 42.6753 50.888 42.7517 51.0399 42.7998C51.2051 42.8525 51.3776 42.8789 51.5509 42.8778H52.0279V40.5778L51.5579 40.5788Z" fill="white"/>
<path d="M5.16404 43.3568H1.99504C1.73778 43.3567 1.48162 43.3231 1.23304 43.2568C1.0061 43.2 0.791758 43.1013 0.601044 42.9658C0.419558 42.8345 0.270438 42.6635 0.165044 42.4658C0.0505507 42.2381 -0.00579174 41.9856 0.00104375 41.7308C-0.000890613 41.507 0.0472867 41.2856 0.142044 41.0828C0.236318 40.8826 0.372772 40.7053 0.542044 40.5628C0.729064 40.4105 0.94314 40.2948 1.17304 40.2218C1.43873 40.1372 1.71624 40.0957 1.99504 40.0988H2.75704V42.8768H4.68004V40.0988H5.16404V43.3568ZM1.80104 40.5788C1.63635 40.5789 1.4728 40.6063 1.31704 40.6598C1.16417 40.712 1.02191 40.7913 0.897044 40.8938C0.77374 40.9947 0.671758 41.1191 0.597044 41.2598C0.521696 41.4052 0.483235 41.567 0.485044 41.7308C0.481385 41.8973 0.515578 42.0624 0.585044 42.2138C0.651577 42.3527 0.747448 42.4755 0.866044 42.5738C0.989882 42.674 1.13129 42.7503 1.28304 42.7988C1.44826 42.8512 1.62072 42.8772 1.79404 42.8758H2.27104V40.5788H1.80104Z" fill="white"/>
<path d="M35.074 44.4198H35.574V43.9268H35.074V44.4198Z" fill="white"/>
<path d="M34.2261 44.4198H34.7261V43.9268H34.2261V44.4198Z" fill="white"/>
<path d="M38.3361 44.6778C38.2033 44.6773 38.0711 44.6591 37.9431 44.6238L38.0701 44.1608C38.1133 44.1739 38.1575 44.184 38.2021 44.1908C38.2403 44.1951 38.2787 44.1971 38.3171 44.1968C38.3943 44.1999 38.4712 44.1869 38.5431 44.1588C38.6021 44.1329 38.6512 44.0887 38.6831 44.0328C38.7217 43.9621 38.7464 43.8847 38.7561 43.8048C38.771 43.6904 38.7777 43.5751 38.7761 43.4598V40.0978H39.2601V42.8768H41.0601L40.2071 40.8668C40.334 40.753 40.4676 40.6468 40.6071 40.5488C40.7487 40.45 40.8986 40.3637 41.0551 40.2908C41.2058 40.2203 41.3624 40.1631 41.5231 40.1198C41.677 40.0784 41.8357 40.0572 41.9951 40.0568C42.1525 40.0572 42.3092 40.0784 42.4611 40.1198C42.6212 40.1631 42.7769 40.2214 42.9261 40.2938C43.0814 40.3691 43.2311 40.4553 43.3741 40.5518C43.5172 40.6486 43.6545 40.7537 43.7851 40.8668L42.9431 42.8768H44.9991V39.0498H45.4831V43.3568H39.2611V43.4568C39.2628 43.6276 39.2474 43.7981 39.2151 43.9658C39.1901 44.1029 39.1377 44.2335 39.0611 44.3498C38.9892 44.4553 38.89 44.5393 38.7741 44.5928C38.6361 44.653 38.4866 44.682 38.3361 44.6778ZM41.9981 40.5848C41.789 40.584 41.5814 40.6206 41.3851 40.6928C41.1765 40.773 40.9833 40.8887 40.8141 41.0348L41.5701 42.8768H42.4341L43.1901 41.0348C43.0265 40.8986 42.8418 40.7902 42.6431 40.7138C42.4378 40.6295 42.2181 40.5857 41.9961 40.5848H41.9981Z" fill="white"/>
<path d="M1.41089 39.5428H1.91089V39.0498H1.41089V39.5428Z" fill="white"/>
<path d="M3.47412 46.5117H2.72412L1.08112 48.2357V46.5117H0.474121V49.9407H1.08112V48.9467L1.61912 48.3977L2.79912 49.9407H3.53512L2.03412 47.9847L3.47412 46.5117Z" fill="white"/>
<path d="M4.08691 49.9407H4.69391V46.5117H4.08691V49.9407Z" fill="white"/>
<path d="M8.04093 48.8827L6.19093 46.5117H5.62793V49.9407H6.22793V47.5007L8.12793 49.9407H8.63793V46.5117H8.03793L8.04093 48.8827Z" fill="white"/>
<path d="M11.152 48.5504H12.036V49.1924C11.7924 49.366 11.5001 49.4581 11.201 49.4554C11.041 49.4594 10.8819 49.43 10.734 49.3689C10.586 49.3078 10.4525 49.2165 10.3419 49.1008C10.2314 48.985 10.1463 48.8475 10.092 48.6969C10.0378 48.5463 10.0156 48.3861 10.027 48.2264V48.2164C10.0205 48.0633 10.0444 47.9105 10.0972 47.7667C10.1501 47.6228 10.2308 47.4909 10.3348 47.3783C10.4387 47.2658 10.5639 47.1749 10.7031 47.1109C10.8424 47.0469 10.9928 47.0111 11.146 47.0054C11.5041 46.9955 11.8516 47.1274 12.113 47.3724L12.501 46.9184C12.1349 46.5974 11.6583 46.4313 11.172 46.4554C10.938 46.4521 10.7057 46.4955 10.4888 46.5832C10.2718 46.6709 10.0746 46.8011 9.90871 46.9661C9.74279 47.1311 9.61152 47.3275 9.5226 47.544C9.43369 47.7604 9.38893 47.9924 9.39095 48.2264V48.2364C9.38263 48.4725 9.42343 48.7078 9.51079 48.9273C9.59815 49.1468 9.73015 49.3458 9.89843 49.5117C10.0667 49.6775 10.2676 49.8066 10.4884 49.8907C10.7091 49.9748 10.945 50.0122 11.181 50.0004C11.7101 49.9999 12.2215 49.8093 12.622 49.4634V48.0264H11.152V48.5504Z" fill="white"/>
<path d="M14.7489 49.9409H13.4609V46.5159H14.7489C14.9828 46.4995 15.2176 46.5312 15.4388 46.6091C15.6599 46.6869 15.8628 46.8093 16.0348 46.9686C16.2069 47.1279 16.3445 47.3208 16.4391 47.5353C16.5337 47.7498 16.5833 47.9815 16.5849 48.2159V48.2249C16.5849 48.4606 16.5365 48.6937 16.4427 48.9098C16.3488 49.126 16.2116 49.3205 16.0394 49.4814C15.8672 49.6423 15.6639 49.7661 15.4419 49.8452C15.2199 49.9242 14.984 49.9568 14.7489 49.9409ZM14.0689 47.0609V49.3919H14.7489C14.9053 49.4021 15.062 49.3796 15.2091 49.3259C15.3563 49.2721 15.4906 49.1882 15.6035 49.0796C15.7164 48.9711 15.8055 48.8401 15.8649 48.6952C15.9244 48.5503 15.953 48.3945 15.9489 48.2379V48.2259C15.9541 48.0685 15.9263 47.9117 15.8674 47.7656C15.8085 47.6196 15.7197 47.4874 15.6067 47.3776C15.4937 47.2679 15.3591 47.1829 15.2114 47.1282C15.0637 47.0735 14.9062 47.0502 14.7489 47.0599L14.0689 47.0609Z" fill="white"/>
<path d="M18.953 50C18.7176 50.0077 18.4832 49.9677 18.2637 49.8823C18.0443 49.7969 17.8444 49.6679 17.6762 49.5032C17.508 49.3384 17.3749 49.1413 17.285 48.9237C17.195 48.7061 17.1501 48.4725 17.153 48.237V48.227C17.1514 47.9957 17.1954 47.7663 17.2826 47.552C17.3698 47.3376 17.4983 47.1426 17.661 46.978C17.8324 46.8085 18.036 46.6749 18.2597 46.5849C18.4834 46.4949 18.7228 46.4504 18.964 46.454C19.1993 46.4464 19.4338 46.4866 19.6533 46.5721C19.8727 46.6576 20.0726 46.7867 20.2408 46.9515C20.409 47.1164 20.542 47.3136 20.632 47.5312C20.7219 47.7489 20.7668 47.9825 20.764 48.218V48.228C20.7651 48.4593 20.7205 48.6885 20.6328 48.9025C20.5452 49.1165 20.4161 49.3111 20.253 49.475C20.0818 49.6441 19.8787 49.7775 19.6555 49.8675C19.4324 49.9575 19.1936 50.0032 18.953 50ZM18.953 47.007C18.7962 47.0068 18.6409 47.0382 18.4966 47.0995C18.3523 47.1609 18.2219 47.2507 18.1132 47.3638C18.0045 47.4769 17.9199 47.6107 17.8643 47.7574C17.8088 47.904 17.7835 48.0604 17.79 48.217V48.227C17.7853 48.3846 17.8121 48.5416 17.8689 48.6887C17.9257 48.8358 18.0112 48.9701 18.1206 49.0837C18.2299 49.1974 18.3608 49.288 18.5056 49.3504C18.6505 49.4128 18.8063 49.4456 18.964 49.447C19.1209 49.4476 19.2764 49.4163 19.4209 49.3551C19.5655 49.2939 19.6962 49.2041 19.805 49.091C19.9139 48.9779 19.9987 48.8439 20.0544 48.6972C20.1101 48.5504 20.1354 48.3939 20.129 48.237V48.227C20.1357 48.0686 20.1103 47.9105 20.0542 47.7622C19.9981 47.6139 19.9124 47.4786 19.8025 47.3643C19.6926 47.2501 19.5606 47.1594 19.4146 47.0976C19.2685 47.0358 19.1115 47.0043 18.953 47.005V47.007Z" fill="white"/>
<path d="M23.219 48.1337L22.165 46.5117H21.519V49.9407H22.119V47.4917L23.197 49.0967H23.219L24.307 47.4817V49.9397H24.914V46.5117H24.267L23.219 48.1337Z" fill="white"/>
<path d="M28.932 50C28.6966 50.0077 28.4622 49.9677 28.2427 49.8823C28.0233 49.7969 27.8234 49.6679 27.6552 49.5032C27.487 49.3384 27.3539 49.1413 27.264 48.9237C27.174 48.7061 27.1291 48.4725 27.132 48.237V48.227C27.1304 47.9957 27.1744 47.7663 27.2616 47.552C27.3488 47.3376 27.4773 47.1426 27.64 46.978C27.8115 46.8085 28.015 46.6749 28.2387 46.5849C28.4624 46.4949 28.7019 46.4504 28.943 46.454C29.1783 46.4464 29.4128 46.4866 29.6323 46.5721C29.8517 46.6576 30.0516 46.7867 30.2198 46.9515C30.388 47.1164 30.521 47.3136 30.611 47.5312C30.7009 47.7489 30.7458 47.9825 30.743 48.218V48.228C30.7441 48.4593 30.6995 48.6885 30.6118 48.9025C30.5242 49.1165 30.3951 49.3111 30.232 49.475C30.0608 49.6441 29.8577 49.7775 29.6346 49.8675C29.4114 49.9575 29.1726 50.0032 28.932 50ZM28.932 47.007C28.7752 47.0068 28.6199 47.0382 28.4756 47.0995C28.3313 47.1609 28.2009 47.2507 28.0922 47.3638C27.9835 47.4769 27.8989 47.6107 27.8433 47.7574C27.7878 47.904 27.7625 48.0604 27.769 48.217V48.227C27.7643 48.3846 27.7911 48.5416 27.8479 48.6887C27.9047 48.8358 27.9902 48.9701 28.0996 49.0837C28.2089 49.1974 28.3398 49.288 28.4846 49.3504C28.6295 49.4128 28.7853 49.4456 28.943 49.447C29.0999 49.4476 29.2554 49.4163 29.3999 49.3551C29.5445 49.2939 29.6752 49.2041 29.784 49.091C29.8929 48.9779 29.9777 48.8439 30.0334 48.6972C30.0891 48.5504 30.1144 48.3939 30.108 48.237V48.227C30.1147 48.0686 30.0893 47.9105 30.0332 47.7622C29.9771 47.6139 29.8914 47.4786 29.7815 47.3643C29.6716 47.2501 29.5396 47.1594 29.3936 47.0976C29.2475 47.0358 29.0905 47.0043 28.932 47.005V47.007Z" fill="white"/>
<path d="M31.499 49.9407H32.106V48.5407H33.848V47.9967H32.106V47.0607H34.07V46.5117H31.499V49.9407Z" fill="white"/>
<path d="M37.5491 47.9518C36.8851 47.7958 36.7301 47.6778 36.7301 47.4138V47.4038C36.7301 47.1778 36.9371 46.9968 37.2921 46.9968C37.6346 47.0087 37.9639 47.1319 38.2301 47.3478L38.5561 46.8938C38.2027 46.6062 37.7586 46.4535 37.3031 46.4628C37.1594 46.4453 37.0137 46.4576 36.8749 46.4989C36.7362 46.5403 36.6075 46.6097 36.4968 46.703C36.3861 46.7962 36.2957 46.9113 36.2315 47.041C36.1672 47.1707 36.1303 47.3122 36.1231 47.4568V47.4708C36.1231 48.1028 36.5371 48.3188 37.2731 48.4948C37.9151 48.6418 38.0531 48.7738 38.0531 49.0198V49.0298C38.0531 49.2898 37.8161 49.4608 37.4411 49.4608C37.0332 49.455 36.643 49.2937 36.3501 49.0098L35.9851 49.4418C36.3804 49.7977 36.8942 49.9934 37.4261 49.9908C38.1521 49.9908 38.6601 49.6088 38.6601 48.9668V48.9568C38.6601 48.3888 38.2801 48.1298 37.5501 47.9568" fill="white"/>
<path d="M39.622 49.9413H39L40.52 46.4873H41.082L42.6 49.9403H41.96L41.609 49.1123H39.977L39.622 49.9413ZM40.791 47.2073L40.2 48.5793H41.39L40.791 47.2073Z" fill="white"/>
<path d="M45.3089 48.4867C45.3089 49.1187 44.9779 49.4397 44.4409 49.4397C43.9039 49.4397 43.5689 49.0987 43.5689 48.4617V46.5117H42.9599V48.4867C42.9361 48.6872 42.9574 48.8905 43.0223 49.0818C43.0871 49.273 43.1939 49.4473 43.3348 49.592C43.4758 49.7366 43.6472 49.8479 43.8367 49.9178C44.0261 49.9876 44.2288 50.0143 44.4299 49.9957C44.6342 50.0138 44.84 49.986 45.0322 49.9143C45.2243 49.8426 45.398 49.7287 45.5405 49.5812C45.683 49.4336 45.7907 49.2561 45.8556 49.0615C45.9206 48.8669 45.9412 48.6603 45.9159 48.4567V46.5117H45.3089V48.4867Z" fill="white"/>
<path d="M48.091 49.9409H46.803V46.5159H48.091C48.3248 46.4995 48.5596 46.5312 48.7807 46.6091C49.0018 46.687 49.2046 46.8093 49.3765 46.9686C49.5485 47.1279 49.686 47.3208 49.7805 47.5354C49.875 47.7499 49.9245 47.9815 49.926 48.2159V48.2249C49.926 48.4605 49.8776 48.6935 49.7838 48.9096C49.69 49.1257 49.5528 49.3202 49.3808 49.481C49.2087 49.6419 49.0055 49.7658 48.7836 49.8449C48.5618 49.924 48.326 49.9567 48.091 49.9409ZM47.411 47.0609V49.3919H48.091C48.2473 49.4021 48.404 49.3796 48.5512 49.3259C48.6983 49.2721 48.8326 49.1882 48.9455 49.0796C49.0585 48.9711 49.1475 48.8401 49.207 48.6952C49.2665 48.5503 49.2951 48.3945 49.291 48.2379V48.2259C49.2962 48.0685 49.2684 47.9117 49.2095 47.7656C49.1505 47.6196 49.0617 47.4874 48.9488 47.3776C48.8358 47.2679 48.7011 47.1829 48.5534 47.1282C48.4057 47.0735 48.2482 47.0502 48.091 47.0599L47.411 47.0609Z" fill="white"/>
<path d="M50.696 49.9407H51.303V46.5117H50.696V49.9407Z" fill="white"/>
<path d="M54.0329 49.9413H53.4109L54.9309 46.4873H55.4929L57.0109 49.9403H56.3709L56.0199 49.1123H54.3879L54.0329 49.9413ZM55.2019 47.2073L54.6109 48.5793H55.8009L55.2019 47.2073Z" fill="white"/>
<path d="M58.1939 49.942H57.5869V46.514H59.1259C59.4913 46.4932 59.8502 46.6163 60.1259 46.857C60.22 46.9554 60.2936 47.0715 60.3427 47.1985C60.3918 47.3254 60.4153 47.4609 60.4119 47.597V47.607C60.4182 47.8491 60.3389 48.0857 60.188 48.2751C60.0371 48.4646 59.8243 48.5948 59.5869 48.643L60.5189 49.943H59.8029L58.9539 48.743H58.1939V49.942ZM58.1939 47.061V48.214H59.0869C59.5189 48.214 59.7979 47.989 59.7979 47.641V47.631C59.7979 47.27 59.5369 47.063 59.0829 47.063L58.1939 47.061Z" fill="white"/>
<path d="M61.5871 49.9413H60.9651L62.4851 46.4873H63.0481L64.5651 49.9403H63.9251L63.5741 49.1123H61.9421L61.5871 49.9413ZM62.7561 47.2073L62.1651 48.5793H63.3551L62.7561 47.2073Z" fill="white"/>
<path d="M66.7411 49.9415H65.1411V46.5145H66.6911C67.0188 46.4927 67.342 46.6005 67.5911 46.8145C67.6669 46.888 67.7266 46.9764 67.7666 47.0742C67.8065 47.1719 67.8257 47.2769 67.8231 47.3825V47.3925C67.8267 47.5546 67.7816 47.7142 67.6935 47.8504C67.6054 47.9866 67.4785 48.0932 67.3291 48.1565C67.5231 48.1926 67.6981 48.2959 67.8236 48.4482C67.949 48.6006 68.0168 48.7922 68.0151 48.9895V48.9995C68.0181 49.5895 67.5411 49.9415 66.7411 49.9415ZM65.7411 48.4685V49.4075H66.7471C67.1701 49.4075 67.4131 49.2355 67.4131 48.9365V48.9265C67.4131 48.6265 67.1671 48.4655 66.7031 48.4655L65.7411 48.4685ZM65.7411 47.0485V47.9575H66.5701C66.9841 47.9575 67.2221 47.7875 67.2221 47.4925V47.4815C67.2221 47.2085 66.9951 47.0455 66.6141 47.0455L65.7411 47.0485Z" fill="white"/>
<path d="M68.769 49.9407H69.376V46.5117H68.769V49.9407Z" fill="white"/>
<path d="M70.5771 49.9413H69.9551L71.4751 46.4873H72.0371L73.5551 49.9403H72.9151L72.5641 49.1123H70.9321L70.5771 49.9413ZM71.7461 47.2073L71.1551 48.5793H72.3451L71.7461 47.2073Z" fill="white"/>
<path d="M25.946 13.6621L26.922 14.5921L25.985 15.5621L25.01 14.6301L25.946 13.6621Z" fill="white"/>
<path d="M28.1799 14.6301L29.1549 15.5601L30.0919 14.5921L29.1159 13.6621L28.1799 14.6301Z" fill="white"/>
<path d="M26.8059 15.8507L27.5659 16.5757L28.2949 15.8227L27.5349 15.0977L26.8059 15.8507Z" fill="white"/>
<path d="M29.5911 16.2647L30.3511 16.9907L31.0791 16.2377L30.3201 15.5117L29.5911 16.2647Z" fill="white"/>
<path d="M25.564 17.004L26.324 17.73L27.052 16.977L26.294 16.251L25.564 17.004Z" fill="white"/>
<path d="M28.1121 17.0909L28.8711 17.8169L29.6001 17.0639L28.8411 16.3379L28.1121 17.0909Z" fill="white"/>
<path d="M27.116 17.9597L27.65 18.4687L28.163 17.9377L27.629 17.4287L27.116 17.9597Z" fill="white"/>
<path d="M29.1321 18.3591L29.6661 18.8681L30.1801 18.3381L29.6451 17.8291L29.1321 18.3591Z" fill="white"/>
<path d="M33.5339 14.3225L33.8339 15.9695L35.4899 15.6695L35.1899 14.0225L33.5339 14.3225Z" fill="white"/>
<path d="M31.3711 15.0125L31.6141 16.3325L32.9441 16.0905L32.7011 14.7705L31.3711 15.0125Z" fill="white"/>
<path d="M33.9409 16.8543L34.1839 18.1753L35.5139 17.9333L35.2709 16.6133L33.9409 16.8543Z" fill="white"/>
<path d="M32.1069 17.0464L32.2959 18.0744L33.3319 17.8864L33.1419 16.8584L32.1069 17.0464Z" fill="white"/>
<path d="M34.1221 18.9985L34.3111 20.0265L35.3471 19.8385L35.1571 18.8105L34.1221 18.9985Z" fill="white"/>
<path d="M30.5549 17.4653L30.7439 18.4933L31.7799 18.3053L31.5909 17.2773L30.5549 17.4653Z" fill="white"/>
<path d="M32.4351 18.811L32.6241 19.839L33.6601 19.651L33.4701 18.623L32.4351 18.811Z" fill="white"/>
<path d="M31.116 18.9347L31.249 19.6587L31.978 19.5257L31.845 18.8027L31.116 18.9347Z" fill="white"/>
<path d="M32.5149 20.4308L32.6479 21.1538L33.3759 21.0218L33.2429 20.2988L32.5149 20.4308Z" fill="white"/>
<path d="M38.463 19.7158L37.739 21.2268L39.261 21.9448L39.985 20.4348L38.463 19.7158Z" fill="white"/>
<path d="M36.3029 19.0166L35.7219 20.2286L36.9429 20.8046L37.5219 19.5926L36.3029 19.0166Z" fill="white"/>
<path d="M37.3019 22.0029L36.7209 23.2159L37.9419 23.7919L38.5209 22.5789L37.3019 22.0029Z" fill="white"/>
<path d="M35.702 21.0938L35.25 22.0378L36.203 22.4868L36.65 21.5428L35.702 21.0938Z" fill="white"/>
<path d="M36.1839 23.8477L35.7319 24.7917L36.6829 25.2407L37.1319 24.2967L36.1839 23.8477Z" fill="white"/>
<path d="M34.1971 20.5322L33.7451 21.4762L34.6981 21.9252L35.1451 20.9812L34.1971 20.5322Z" fill="white"/>
<path d="M34.9281 22.7158L34.4761 23.6598L35.4271 24.1088L35.8761 23.1648L34.9281 22.7158Z" fill="white"/>
<path d="M33.7851 22.0508L33.4661 22.7148L34.1351 23.0308L34.4531 22.3668L33.7851 22.0508Z" fill="white"/>
<path d="M34.038 24.0762L33.72 24.7402L34.388 25.0562L34.707 24.3922L34.038 24.0762Z" fill="white"/>
<path d="M39.2839 26.9512L37.8059 27.7512L38.6159 29.2232L40.0939 28.4232L39.2839 26.9512Z" fill="white"/>
<path d="M37.9431 25.1299L36.7581 25.7759L37.4101 26.9519L38.5931 26.3059L37.9431 25.1299Z" fill="white"/>
<path d="M36.9951 28.1318L35.8091 28.7778L36.4611 29.9548L37.6451 29.3088L36.9951 28.1318Z" fill="white"/>
<path d="M36.2321 26.4648L35.3091 26.9648L35.8151 27.8818L36.7391 27.3818L36.2321 26.4648Z" fill="white"/>
<path d="M34.9999 28.9785L34.0769 29.4785L34.5829 30.3955L35.5059 29.8955L34.9999 28.9785Z" fill="white"/>
<path d="M35.3419 25.1348L34.4189 25.6348L34.9249 26.5528L35.8489 26.0528L35.3419 25.1348Z" fill="white"/>
<path d="M34.6481 27.3311L33.7251 27.8311L34.2311 28.7481L35.1541 28.2481L34.6481 27.3311Z" fill="white"/>
<path d="M34.1141 26.127L33.4641 26.478L33.8201 27.127L34.4641 26.772L34.1141 26.127Z" fill="white"/>
<path d="M33.1261 27.916L32.4761 28.27L32.8321 28.916L33.4761 28.561L33.1261 27.916Z" fill="white"/>
<path d="M35.6849 33.2949L34.0119 33.0889L33.8049 34.7499L35.4779 34.9559L35.6849 33.2949Z" fill="white"/>
<path d="M35.6711 31.04L34.3291 30.874L34.1631 32.206L35.5051 32.374L35.6711 31.04Z" fill="white"/>
<path d="M33.131 32.9228L31.79 32.7568L31.623 34.0888L32.965 34.2568L33.131 32.9228Z" fill="white"/>
<path d="M33.496 31.128L32.451 31L32.322 32.038L33.367 32.166L33.496 31.128Z" fill="white"/>
<path d="M31.0161 32.4512L29.9711 32.3232L29.8411 33.3612L30.8861 33.4892L31.0161 32.4512Z" fill="white"/>
<path d="M33.559 29.5333L32.514 29.4043L32.385 30.4423L33.43 30.5703L33.559 29.5333Z" fill="white"/>
<path d="M31.7011 30.9112L30.6561 30.7822L30.5271 31.8202L31.5721 31.9482L31.7011 30.9112Z" fill="white"/>
<path d="M31.9769 29.6232L31.2419 29.5332L31.1509 30.2632L31.8859 30.3532L31.9769 29.6232Z" fill="white"/>
<path d="M30.1219 30.5002L29.3869 30.4102L29.2959 31.1402L30.0309 31.2302L30.1219 30.5002Z" fill="white"/>
<path d="M29.027 36.349L27.791 35.21L26.645 36.436L27.88 37.575L29.027 36.349Z" fill="white"/>
<path d="M28.799 12.9115L27.563 11.7725L26.417 12.9985L27.652 14.1375L28.799 12.9115Z" fill="white"/>
<path d="M30.3451 34.5107L29.3541 33.5977L28.4341 34.5817L29.4251 35.4977L30.3451 34.5107Z" fill="white"/>
<path d="M27.1769 34.5644L26.1849 33.6514L25.2649 34.6354L26.2559 35.5514L27.1769 34.5644Z" fill="white"/>
<path d="M28.529 33.3204L27.757 32.6094L27.041 33.3754L27.812 34.0864L28.529 33.3204Z" fill="white"/>
<path d="M25.738 32.9532L24.966 32.2422L24.25 33.0082L25.022 33.7192L25.738 32.9532Z" fill="white"/>
<path d="M29.52 32.0635L28.748 31.3525L28.032 32.1185L28.803 32.8295L29.52 32.0635Z" fill="white"/>
<path d="M27.2021 32.1016L26.4301 31.3906L25.7141 32.1566L26.4851 32.8676L27.2021 32.1016Z" fill="white"/>
<path d="M28.1849 31.2168L27.6379 30.7168L27.1379 31.2558L27.6809 31.7558L28.1849 31.2168Z" fill="white"/>
<path d="M26.162 30.8506L25.615 30.3506L25.115 30.8886L25.657 31.3886L26.162 30.8506Z" fill="white"/>
<path d="M21.827 34.9594L21.497 33.3184L19.844 33.6464L20.175 35.2874L21.827 34.9594Z" fill="white"/>
<path d="M23.9789 34.235L23.7139 32.918L22.3879 33.182L22.6529 34.498L23.9789 34.235Z" fill="white"/>
<path d="M21.3781 32.4361L21.1131 31.1191L19.7871 31.3831L20.0521 32.6991L21.3781 32.4361Z" fill="white"/>
<path d="M23.208 32.2135L23.002 31.1885L21.969 31.3885L22.176 32.4185L23.208 32.2135Z" fill="white"/>
<path d="M24.7529 31.7701L24.5469 30.7451L23.5139 30.9451L23.7209 31.9751L24.7529 31.7701Z" fill="white"/>
<path d="M22.8511 30.4547L22.6441 29.4297L21.6121 29.6347L21.8181 30.6597L22.8511 30.4547Z" fill="white"/>
<path d="M24.1681 30.3089L24.0231 29.5879L23.2971 29.7319L23.4421 30.4529L24.1681 30.3089Z" fill="white"/>
<path d="M22.744 28.8362L22.599 28.1152L21.873 28.2592L22.018 28.9802L22.744 28.8362Z" fill="white"/>
<path d="M16.8089 29.6486L17.5089 28.1266L15.9749 27.4326L15.2749 28.9546L16.8089 29.6486Z" fill="white"/>
<path d="M18.981 30.3122L19.541 29.0902L18.311 28.5342L17.75 29.7552L18.981 30.3122Z" fill="white"/>
<path d="M17.9309 27.3415L18.4919 26.1205L17.2609 25.5635L16.7009 26.7855L17.9309 27.3415Z" fill="white"/>
<path d="M19.5471 28.2258L19.9831 27.2718L19.0261 26.8408L18.5891 27.7938L19.5471 28.2258Z" fill="white"/>
<path d="M20.8281 30.6027L21.2651 29.6497L20.3071 29.2188L19.8701 30.1718L20.8281 30.6027Z" fill="white"/>
<path d="M19.0181 25.4797L19.4541 24.5257L18.4971 24.0947L18.0601 25.0477L19.0181 25.4797Z" fill="white"/>
<path d="M21.0601 28.7629L21.4961 27.8089L20.5391 27.3779L20.1021 28.3309L21.0601 28.7629Z" fill="white"/>
<path d="M20.293 26.5911L20.729 25.6371L19.772 25.2061L19.335 26.1591L20.293 26.5911Z" fill="white"/>
<path d="M21.4479 27.2377L21.7549 26.5687L21.0809 26.2637L20.7739 26.9327L21.4479 27.2377Z" fill="white"/>
<path d="M21.1611 25.2172L21.4681 24.5482L20.7941 24.2432L20.4871 24.9122L21.1611 25.2172Z" fill="white"/>
<path d="M15.867 22.4275L17.332 21.6005L16.496 20.1455L15.032 20.9745L15.867 22.4275Z" fill="white"/>
<path d="M17.2391 24.2265L18.4141 23.5615L17.7431 22.3955L16.5691 23.0605L17.2391 24.2265Z" fill="white"/>
<path d="M18.138 21.2099L19.313 20.5449L18.642 19.3789L17.468 20.0439L18.138 21.2099Z" fill="white"/>
<path d="M18.927 22.8635L19.841 22.3455L19.32 21.4375L18.405 21.9555L18.927 22.8635Z" fill="white"/>
<path d="M20.1179 20.3303L21.0319 19.8123L20.5109 18.9043L19.5959 19.4223L20.1179 20.3303Z" fill="white"/>
<path d="M19.8379 24.1789L20.7529 23.6609L20.2319 22.7529L19.3169 23.2709L19.8379 24.1789Z" fill="white"/>
<path d="M20.4961 21.9719L21.4111 21.4539L20.8901 20.5459L19.9751 21.0639L20.4961 21.9719Z" fill="white"/>
<path d="M21.0511 23.1641L21.6941 22.8031L21.3271 22.1641L20.6841 22.5281L21.0511 23.1641Z" fill="white"/>
<path d="M22.0091 21.3594L22.6531 20.9984L22.2861 20.3594L21.6421 20.7234L22.0091 21.3594Z" fill="white"/>
<path d="M19.3611 16.0273L21.0371 16.2053L21.2171 14.5413L19.5411 14.3633L19.3611 16.0273Z" fill="white"/>
<path d="M19.4121 18.2813L20.7571 18.4243L20.9001 17.0893L19.5551 16.9463L19.4121 18.2813Z" fill="white"/>
<path d="M21.9199 16.3565L23.2649 16.4995L23.4079 15.1645L22.0629 15.0215L21.9199 16.3565Z" fill="white"/>
<path d="M21.585 18.1562L22.632 18.2672L22.744 17.2282L21.697 17.1172L21.585 18.1562Z" fill="white"/>
<path d="M24.043 16.7929L25.09 16.9039L25.201 15.8649L24.155 15.7529L24.043 16.7929Z" fill="white"/>
<path d="M21.5491 19.7519L22.5961 19.8629L22.7081 18.8239L21.6611 18.7129L21.5491 19.7519Z" fill="white"/>
<path d="M23.3831 18.3437L24.4301 18.4547L24.5421 17.4157L23.4951 17.3047L23.3831 18.3437Z" fill="white"/>
<path d="M23.1289 19.6363L23.8649 19.7143L23.9439 18.9843L23.2079 18.9053L23.1289 19.6363Z" fill="white"/>
<path d="M24.97 18.7281L25.707 18.8061L25.785 18.0751L25.049 17.9971L24.97 18.7281Z" fill="white"/>
<path d="M32.923 25.7021C32.711 25.5834 32.4871 25.4872 32.255 25.4151C31.661 25.2284 31.0316 25.1828 30.417 25.2821C30.1447 25.324 29.8769 25.391 29.617 25.4821L29.538 25.5101C29.3945 25.5651 29.254 25.6275 29.117 25.6971C28.997 25.7578 28.8773 25.8245 28.758 25.8971C28.4812 26.0642 28.2141 26.2468 27.958 26.4441C27.7523 25.0362 27.7245 23.608 27.875 22.1931C27.8755 22.1923 27.8763 22.1916 27.8771 22.1912C27.878 22.1907 27.879 22.1905 27.88 22.1905C27.881 22.1905 27.8819 22.1907 27.8828 22.1912C27.8837 22.1916 27.8844 22.1923 27.885 22.1931C28.52 22.5931 28.342 23.7011 28.209 24.0181C28.209 24.0251 28.216 24.0291 28.221 24.0241C28.483 23.7238 28.6467 23.3504 28.6902 22.9543C28.7336 22.5581 28.6547 22.1581 28.464 21.8081C28.464 21.8021 28.464 21.7961 28.474 21.8001C28.58 21.886 28.6759 21.9837 28.76 22.0911C28.9712 22.3625 29.0963 22.691 29.119 23.0341C29.1298 23.1759 29.1298 23.3184 29.119 23.4601C29.119 23.4931 29.114 23.5251 29.111 23.5541C29.111 23.5591 29.111 23.5601 29.119 23.5591C29.2521 23.302 29.3215 23.0167 29.3215 22.7271C29.3215 22.4376 29.2521 22.1523 29.119 21.8951C29.0239 21.7155 28.9029 21.5507 28.76 21.4061C28.715 21.3601 28.668 21.3151 28.617 21.2711C28.6163 21.2708 28.6156 21.2704 28.6151 21.2698C28.6145 21.2692 28.6141 21.2685 28.6138 21.2678C28.6135 21.267 28.6134 21.2662 28.6134 21.2654C28.6135 21.2647 28.6136 21.2639 28.614 21.2631C28.6143 21.2624 28.6148 21.2618 28.6154 21.2612C28.6159 21.2607 28.6166 21.2603 28.6174 21.26C28.6181 21.2597 28.6189 21.2596 28.6197 21.2596C28.6205 21.2596 28.6213 21.2598 28.622 21.2601C28.6687 21.2714 28.7147 21.2851 28.76 21.3011C28.8884 21.3454 29.0095 21.4087 29.119 21.4891C29.3465 21.6603 29.52 21.8932 29.619 22.1601C29.6954 22.3555 29.7348 22.5634 29.735 22.7731C29.735 22.7749 29.7357 22.7765 29.7369 22.7777C29.7381 22.779 29.7398 22.7796 29.7415 22.7796C29.7432 22.7796 29.7449 22.779 29.7461 22.7777C29.7473 22.7765 29.748 22.7749 29.748 22.7731C29.8184 22.5667 29.8436 22.3475 29.8219 22.1304C29.8001 21.9134 29.732 21.7035 29.622 21.5151C29.4958 21.3174 29.3244 21.1525 29.122 21.0341C29.0094 20.9662 28.8888 20.9125 28.763 20.8741C28.7068 20.8566 28.6493 20.8439 28.591 20.8361C28.584 20.8361 28.585 20.8251 28.591 20.8231C28.6503 20.8178 28.7073 20.8148 28.762 20.8141C28.8823 20.8116 29.0026 20.8213 29.121 20.8431C29.2997 20.8746 29.4699 20.9427 29.621 21.0431C29.7598 21.1338 29.8749 21.2561 29.957 21.4001C29.957 21.4061 29.97 21.4001 29.969 21.4001C29.9457 21.1394 29.8212 20.8981 29.622 20.7281C29.4766 20.6051 29.3059 20.5156 29.122 20.4661C29.0049 20.4344 28.8843 20.4176 28.763 20.4161C28.6094 20.4123 28.4567 20.4395 28.314 20.4961C28.309 20.4961 28.303 20.4961 28.307 20.4861C28.4172 20.3294 28.5772 20.2145 28.761 20.1601C28.8776 20.1251 28.9994 20.1109 29.121 20.1181C29.2224 20.1221 29.3221 20.1452 29.415 20.1861C29.4163 20.1871 29.4179 20.1874 29.4195 20.1872C29.4211 20.1869 29.4225 20.186 29.4235 20.1846C29.4244 20.1833 29.4248 20.1817 29.4245 20.1801C29.4242 20.1785 29.4233 20.1771 29.422 20.1761C29.3368 20.0784 29.2353 19.9962 29.122 19.9331C29.0108 19.8712 28.8884 19.8318 28.762 19.8171C28.5917 19.7986 28.4197 19.829 28.2661 19.9048C28.1125 19.9806 27.9838 20.0987 27.895 20.2451C27.8943 20.246 27.8935 20.2467 27.8925 20.2471C27.8916 20.2476 27.8905 20.2478 27.8895 20.2478C27.8884 20.2478 27.8874 20.2476 27.8864 20.2471C27.8855 20.2467 27.8846 20.246 27.884 20.2451C27.845 20.1691 27.805 20.0871 27.767 20.0011C27.6748 19.7935 27.6076 19.5757 27.567 19.3521C27.5674 19.3512 27.5675 19.3502 27.5675 19.3492C27.5674 19.3483 27.567 19.3473 27.5665 19.3465C27.566 19.3456 27.5652 19.3449 27.5643 19.3445C27.5635 19.344 27.5625 19.3438 27.5615 19.3438C27.5605 19.3438 27.5595 19.344 27.5586 19.3445C27.5577 19.3449 27.557 19.3456 27.5565 19.3465C27.5559 19.3473 27.5556 19.3483 27.5555 19.3492C27.5554 19.3502 27.5556 19.3512 27.556 19.3521C27.5154 19.5766 27.4482 19.7955 27.356 20.0041C27.3231 20.0863 27.286 20.1667 27.245 20.2451C27.2445 20.2462 27.2437 20.2471 27.2428 20.2478C27.2418 20.2484 27.2406 20.2487 27.2395 20.2487C27.2383 20.2487 27.2372 20.2484 27.2362 20.2478C27.2352 20.2471 27.2344 20.2462 27.234 20.2451C27.1542 20.1179 27.0447 20.012 26.9149 19.9364C26.7852 19.8607 26.6391 19.8177 26.4891 19.8109C26.339 19.8041 26.1896 19.8338 26.0536 19.8974C25.9175 19.961 25.799 20.0567 25.708 20.1761C25.7067 20.1771 25.7057 20.1785 25.7055 20.1801C25.7052 20.1817 25.7055 20.1833 25.7065 20.1846C25.7074 20.186 25.7088 20.1869 25.7104 20.1872C25.712 20.1874 25.7137 20.1871 25.715 20.1861C25.9065 20.1071 26.1187 20.093 26.3191 20.1461C26.5194 20.1992 26.6968 20.3165 26.824 20.4801C26.8246 20.4807 26.8252 20.4813 26.8256 20.4821C26.826 20.4828 26.8262 20.4836 26.8263 20.4844C26.8264 20.4853 26.8264 20.4861 26.8261 20.4869C26.8259 20.4877 26.8255 20.4885 26.825 20.4891C26.8245 20.4898 26.8238 20.4904 26.8231 20.4908C26.8223 20.4912 26.8215 20.4914 26.8207 20.4915C26.8198 20.4916 26.819 20.4915 26.8182 20.4913C26.8174 20.4911 26.8166 20.4907 26.816 20.4901C26.5705 20.4031 26.3047 20.3903 26.052 20.4535C25.7992 20.5166 25.5707 20.6528 25.395 20.8451C25.2607 21.0013 25.1779 21.1952 25.158 21.4001C25.158 21.4071 25.167 21.4111 25.17 21.4001C25.227 21.298 25.3019 21.2069 25.391 21.1311C25.5497 21.0031 25.7335 20.9097 25.9306 20.857C26.1276 20.8042 26.3335 20.7934 26.535 20.8251C26.5367 20.8251 26.5384 20.8258 26.5396 20.8271C26.5408 20.8283 26.5415 20.8299 26.5415 20.8316C26.5415 20.8334 26.5408 20.835 26.5396 20.8362C26.5384 20.8375 26.5367 20.8381 26.535 20.8381C26.2822 20.8809 26.0444 20.9871 25.8438 21.1468C25.6432 21.3065 25.4864 21.5144 25.388 21.7511C25.274 22.0808 25.2691 22.4384 25.374 22.7711C25.374 22.7727 25.3746 22.7743 25.3757 22.7754C25.3769 22.7765 25.3784 22.7771 25.38 22.7771C25.3816 22.7771 25.3831 22.7765 25.3842 22.7754C25.3853 22.7743 25.386 22.7727 25.386 22.7711V22.7451C25.3798 22.4078 25.4865 22.0781 25.6893 21.8085C25.8921 21.5389 26.1792 21.3448 26.505 21.2571C26.5063 21.2571 26.5076 21.2574 26.5087 21.2581C26.5098 21.2587 26.5108 21.2596 26.5114 21.2608C26.512 21.2619 26.5123 21.2632 26.5122 21.2645C26.5122 21.2658 26.5117 21.2671 26.511 21.2681C26.175 21.5312 25.9408 21.9027 25.8483 22.3193C25.7558 22.7359 25.8109 23.1716 26.004 23.5521C26.004 23.5537 26.0046 23.5553 26.0057 23.5564C26.0069 23.5575 26.0084 23.5581 26.01 23.5581C26.0116 23.5581 26.0131 23.5575 26.0142 23.5564C26.0153 23.5553 26.016 23.5537 26.016 23.5521C25.959 23.2292 25.988 22.897 26.1 22.5888C26.2119 22.2806 26.403 22.0072 26.654 21.7961C26.66 21.7961 26.668 21.7961 26.664 21.8041C26.4737 22.1536 26.3948 22.5528 26.4379 22.9484C26.481 23.3439 26.6439 23.7169 26.905 24.0171C26.905 24.0221 26.919 24.0171 26.917 24.0111C26.784 23.6931 26.606 22.5831 27.241 22.1861C27.2415 22.1853 27.2423 22.1846 27.2431 22.1842C27.244 22.1837 27.245 22.1835 27.246 22.1835C27.247 22.1835 27.2479 22.1837 27.2488 22.1842C27.2497 22.1846 27.2504 22.1853 27.251 22.1861C27.4025 23.6037 27.3746 25.0346 27.168 26.4451C26.6873 26.0614 26.1547 25.7476 25.586 25.5131C25.52 25.4861 25.455 25.4641 25.395 25.4451C24.912 25.2839 24.4037 25.2118 23.895 25.2321C23.3594 25.2534 22.834 25.3856 22.352 25.6201C22.292 25.6501 22.242 25.6771 22.201 25.7001C22.1976 25.702 22.195 25.7051 22.1938 25.7087C22.1927 25.7124 22.1929 25.7164 22.1946 25.7198C22.1963 25.7233 22.1992 25.726 22.2028 25.7274C22.2064 25.7287 22.2104 25.7287 22.214 25.7271C22.26 25.7121 22.306 25.7001 22.351 25.6871C22.8523 25.5437 23.3755 25.4929 23.895 25.5371C24.4123 25.5855 24.9177 25.7207 25.39 25.9371C26.0322 26.2405 26.6306 26.629 27.169 27.0921C26.6083 27.6305 26.0159 28.1347 25.395 28.6021L25.338 28.6331C25.2912 28.5689 25.227 28.5194 25.1531 28.4904C25.0791 28.4614 24.9984 28.4542 24.9204 28.4695C24.8425 28.4849 24.7705 28.5222 24.713 28.577C24.6556 28.6319 24.6149 28.702 24.596 28.7791C24.5801 28.8408 24.5792 28.9054 24.5932 28.9675C24.6073 29.0296 24.636 29.0874 24.677 29.1361C24.7693 29.2286 24.8893 29.2884 25.0187 29.3065C25.1481 29.3245 25.2799 29.2998 25.394 29.2361C26.117 28.7816 26.7779 28.235 27.36 27.6101L27.56 27.4281L27.76 27.6091C28.122 27.9381 28.453 28.2591 28.755 28.5321C28.88 28.6441 28.999 28.7491 29.114 28.8421C29.2692 28.9729 29.4366 29.0884 29.614 29.1871C29.7304 29.2735 29.8722 29.3186 30.0171 29.3153C30.1619 29.312 30.3016 29.2606 30.414 29.1691C30.427 29.1581 30.439 29.1481 30.451 29.1361C30.4882 29.0854 30.5147 29.0275 30.5286 28.9661C30.5425 28.9047 30.5437 28.841 30.532 28.7791C30.5133 28.7023 30.4722 28.6327 30.414 28.5791C30.3614 28.5279 30.2962 28.4917 30.225 28.4741C30.1454 28.4561 30.0623 28.4617 29.9859 28.4903C29.9095 28.5189 29.8431 28.5693 29.795 28.6351C29.7353 28.6038 29.6778 28.5684 29.623 28.5291C29.4491 28.4051 29.2822 28.2715 29.123 28.1291C29.01 28.0291 28.89 27.9231 28.764 27.8091C28.518 27.5871 28.248 27.3401 27.964 27.0921C28.2203 26.8787 28.4873 26.6785 28.764 26.4921C28.8813 26.4135 29.001 26.3375 29.123 26.2641C29.2856 26.1681 29.4523 26.0791 29.623 25.9971C29.8808 25.875 30.1484 25.7746 30.423 25.6971C31.0199 25.5246 31.6475 25.4861 32.261 25.5841C32.4827 25.6192 32.7016 25.6704 32.916 25.7371C32.9195 25.7387 32.9235 25.7387 32.9271 25.7374C32.9307 25.736 32.9337 25.7333 32.9354 25.7298C32.937 25.7264 32.9373 25.7224 32.9361 25.7187C32.9349 25.7151 32.9324 25.712 32.929 25.7101" fill="white"/>
</g>
</g>
</g>
</g>
<defs>
<clipPath id="clip0_3012_1679">
<rect width="75.14" height="50" fill="white"/>
</clipPath>
<clipPath id="clip1_3012_1679">
<rect width="75.14" height="50" fill="white"/>
</clipPath>
<clipPath id="clip2_3012_1679">
<rect width="75.14" height="50" fill="white"/>
</clipPath>
</defs>
</svg>
