<svg width="20" height="18" viewBox="0 0 20 18" fill="none" xmlns="http://www.w3.org/2000/svg">
<path d="M9.9999 11.85C11.5739 11.85 12.8499 10.574 12.8499 9C12.8499 7.42599 11.5739 6.15 9.9999 6.15C8.42589 6.15 7.1499 7.42599 7.1499 9C7.1499 10.574 8.42589 11.85 9.9999 11.85Z" fill="black"/>
<path opacity="0.3" d="M9.9999 11.85C11.5739 11.85 12.8499 10.574 12.8499 9C12.8499 7.42599 11.5739 6.15 9.9999 6.15C8.42589 6.15 7.1499 7.42599 7.1499 9C7.1499 10.574 8.42589 11.85 9.9999 11.85Z" fill="black"/>
<path opacity="0.3" d="M10 0.44C5.27 0.44 0 5.06 0 9C0 12.76 5.27 17.56 10 17.56C15 17.56 20 12.97 20 9C20 5.18 14.73 0.44 10 0.44ZM10 13.35C9.13965 13.35 8.29862 13.0949 7.58327 12.6169C6.86792 12.1389 6.31037 11.4595 5.98112 10.6647C5.65188 9.86981 5.56574 8.99517 5.73358 8.15136C5.90143 7.30754 6.31573 6.53244 6.92409 5.92409C7.53244 5.31573 8.30754 4.90143 9.15136 4.73358C9.99517 4.56574 10.8698 4.65188 11.6647 4.98112C12.4595 5.31037 13.1389 5.86792 13.6169 6.58327C14.0949 7.29862 14.35 8.13965 14.35 9C14.35 10.1537 13.8917 11.2601 13.0759 12.0759C12.2601 12.8917 11.1537 13.35 10 13.35Z" fill="black"/>
</svg>
