<svg width="24" height="24" viewBox="0 0 24 24" fill="none" xmlns="http://www.w3.org/2000/svg">
<rect width="24" height="24" fill="white"/>
<path d="M2.87984 21.84C2.67837 21.8382 2.4852 21.7595 2.33984 21.62C2.19877 21.4777 2.11963 21.2854 2.11963 21.085C2.11963 20.8846 2.19877 20.6923 2.33984 20.55L20.5998 2.38C20.6633 2.28744 20.7468 2.21031 20.8441 2.15431C20.9414 2.09831 21.05 2.06486 21.162 2.05644C21.2739 2.04801 21.3863 2.06482 21.4909 2.10563C21.5955 2.14644 21.6896 2.2102 21.7662 2.29222C21.8429 2.37423 21.9001 2.47241 21.9338 2.57951C21.9674 2.6866 21.9766 2.79989 21.9606 2.911C21.9447 3.02212 21.904 3.12823 21.8415 3.22152C21.7791 3.31481 21.6965 3.39289 21.5998 3.45L3.39984 21.62C3.26239 21.7592 3.07543 21.8383 2.87984 21.84Z" fill="black"/>
<path d="M9.14993 12.61C9.15256 11.8549 9.45368 11.1316 9.98758 10.5977C10.5215 10.0637 11.2449 9.76264 11.9999 9.76C12.4251 9.7602 12.8448 9.85655 13.2275 10.0418C13.6102 10.2271 13.9461 10.4966 14.2099 10.83L10.2099 14.83C9.87756 14.5636 9.60962 14.2256 9.42608 13.8412C9.24255 13.4568 9.14815 13.036 9.14993 12.61ZM11.7099 15.43C11.8065 15.4349 11.9033 15.4349 11.9999 15.43C12.7558 15.43 13.4807 15.1297 14.0152 14.5953C14.5497 14.0608 14.8499 13.3359 14.8499 12.58C14.8548 12.4901 14.8548 12.3999 14.8499 12.31L11.7099 15.43Z" fill="black"/>
<path opacity="0.3" d="M6.05 19L9.15 15.91C8.70449 15.5188 8.34405 15.0404 8.09102 14.5042C7.838 13.968 7.69777 13.3856 7.67903 12.7931C7.66029 12.2005 7.76343 11.6104 7.98208 11.0593C8.20072 10.5083 8.5302 10.0079 8.95011 9.58942C9.37001 9.17089 9.87139 8.84305 10.4232 8.62621C10.975 8.40937 11.5654 8.30815 12.1579 8.32883C12.7504 8.34951 13.3323 8.49165 13.8677 8.74643C14.403 9.00121 14.8803 9.36321 15.27 9.81L18.43 6.66C16.6374 5.09785 14.3743 4.17924 12 4.05C7.27 4.05 2 8.67 2 12.61C2 14.75 3.71 17.22 6.05 19Z" fill="black"/>
<path opacity="0.3" d="M16.0601 11.1C16.2484 11.5813 16.3467 12.0932 16.3501 12.61C16.3552 13.3146 16.1879 14.0098 15.8628 14.6349C15.5377 15.26 15.0646 15.7961 14.4848 16.1965C13.905 16.5968 13.236 16.8493 12.5362 16.9318C11.8365 17.0143 11.1271 16.9245 10.4701 16.67L7.33008 19.79C8.74153 20.6454 10.3504 21.1208 12.0001 21.17C17.0001 21.17 22.0001 16.58 22.0001 12.61C21.8378 10.6933 20.9595 8.90812 19.5401 7.61L16.0601 11.1Z" fill="black"/>
</svg>
