<svg width="20" height="20" viewBox="0 0 20 20" fill="none" xmlns="http://www.w3.org/2000/svg">
<path d="M0.880082 19.84C0.678613 19.8382 0.485442 19.7595 0.340081 19.62C0.199017 19.4777 0.119873 19.2854 0.119873 19.085C0.119873 18.8846 0.199017 18.6923 0.340081 18.55L18.6001 0.38C18.6636 0.287435 18.7471 0.210308 18.8444 0.154307C18.9417 0.0983064 19.0503 0.0648602 19.1622 0.0564353C19.2742 0.0480104 19.3866 0.0648221 19.4911 0.10563C19.5957 0.146438 19.6898 0.210201 19.7665 0.292217C19.8431 0.374233 19.9004 0.472409 19.934 0.579505C19.9677 0.686602 19.9769 0.799886 19.9609 0.911002C19.9449 1.02212 19.9042 1.12823 19.8418 1.22152C19.7793 1.31481 19.6967 1.39289 19.6001 1.45L1.40008 19.62C1.26264 19.7592 1.07568 19.8383 0.880082 19.84Z" fill="black"/>
<path d="M7.14993 10.61C7.15256 9.85494 7.45368 9.13157 7.98758 8.59766C8.52149 8.06375 9.24487 7.76264 9.99993 7.76C10.4251 7.7602 10.8448 7.85655 11.2275 8.04184C11.6102 8.22713 11.9461 8.49657 12.2099 8.83L8.20993 12.83C7.87756 12.5636 7.60962 12.2256 7.42608 11.8412C7.24255 11.4568 7.14815 11.036 7.14993 10.61ZM9.70993 13.43C9.80653 13.4349 9.90332 13.4349 9.99993 13.43C10.7558 13.43 11.4807 13.1297 12.0152 12.5953C12.5497 12.0608 12.8499 11.3359 12.8499 10.58C12.8548 10.4901 12.8548 10.3999 12.8499 10.31L9.70993 13.43Z" fill="black"/>
<path opacity="0.3" d="M4.05 17L7.15 13.91C6.70449 13.5188 6.34405 13.0404 6.09102 12.5042C5.838 11.968 5.69777 11.3856 5.67903 10.7931C5.66029 10.2005 5.76343 9.6104 5.98208 9.05933C6.20072 8.50825 6.5302 8.00795 6.95011 7.58942C7.37001 7.17089 7.87139 6.84305 8.42317 6.62621C8.97496 6.40937 9.5654 6.30815 10.1579 6.32883C10.7504 6.34951 11.3323 6.49165 11.8677 6.74643C12.403 7.00121 12.8803 7.36321 13.27 7.81L16.43 4.66C14.6374 3.09785 12.3743 2.17924 10 2.05C5.27 2.05 0 6.67 0 10.61C0 12.75 1.71 15.22 4.05 17Z" fill="black"/>
<path opacity="0.3" d="M14.0601 9.1C14.2484 9.58133 14.3467 10.0932 14.3501 10.61C14.3552 11.3146 14.1879 12.0098 13.8628 12.6349C13.5377 13.26 13.0646 13.7961 12.4848 14.1965C11.905 14.5968 11.236 14.8493 10.5362 14.9318C9.83647 15.0143 9.12714 14.9245 8.47008 14.67L5.33008 17.79C6.74153 18.6454 8.35039 19.1208 10.0001 19.17C15.0001 19.17 20.0001 14.58 20.0001 10.61C19.8378 8.69333 18.9595 6.90812 17.5401 5.61L14.0601 9.1Z" fill="black"/>
</svg>
