<svg width="18" height="18" viewBox="0 0 18 18" fill="none" xmlns="http://www.w3.org/2000/svg">
<path d="M4.76367 11.3782L7.25784 8.13737L10.1028 10.3707L12.5437 7.2207" stroke="#223042" stroke-width="1.5" stroke-linecap="round" stroke-linejoin="round"/>
<path fill-rule="evenodd" clip-rule="evenodd" d="M15.3888 0.958008C16.2738 0.958008 16.9904 1.67467 16.9904 2.55967C16.9904 3.44384 16.2738 4.16134 15.3888 4.16134C14.5038 4.16134 13.7871 3.44384 13.7871 2.55967C13.7871 1.67467 14.5038 0.958008 15.3888 0.958008Z" stroke="#223042" stroke-width="1.5" stroke-linecap="round" stroke-linejoin="round"/>
<path d="M16.296 6.72395C16.4068 7.46978 16.4577 8.30978 16.4577 9.25228C16.4577 15.0339 14.531 16.9606 8.74935 16.9606C2.96852 16.9606 1.04102 15.0339 1.04102 9.25228C1.04102 3.47145 2.96852 1.54395 8.74935 1.54395C9.67435 1.54395 10.5002 1.59311 11.2352 1.69978" stroke="#223042" stroke-width="1.5" stroke-linecap="round" stroke-linejoin="round"/>
</svg>
