<svg width="20" height="20" viewBox="0 0 20 20" fill="none" xmlns="http://www.w3.org/2000/svg">
<path opacity="0.3" d="M18.7083 16.8016L15.8025 14.0516C15.25 14.7629 14.5878 15.3818 13.8408 15.885L16.8292 18.7266C16.9548 18.8734 17.1102 18.9918 17.285 19.0741C17.4598 19.1564 17.6501 19.2006 17.8432 19.204C18.0364 19.2073 18.2281 19.1696 18.4056 19.0933C18.5832 19.0171 18.7425 18.904 18.8731 18.7617C19.0037 18.6193 19.1026 18.4508 19.1633 18.2674C19.224 18.084 19.2451 17.8898 19.2252 17.6976C19.2053 17.5054 19.1449 17.3197 19.0479 17.1526C18.9509 16.9855 18.8195 16.8409 18.6625 16.7283L18.7083 16.8016Z" fill="#2E3D52"/>
<path d="M9.21192 0.833313C7.58022 0.833313 5.98517 1.31717 4.62846 2.22369C3.27176 3.13021 2.21433 4.41868 1.58991 5.92617C0.965489 7.43367 0.802111 9.09246 1.12044 10.6928C1.43877 12.2932 2.2245 13.7632 3.37829 14.9169C4.53207 16.0707 6.00208 16.8565 7.60242 17.1748C9.20277 17.4931 10.8616 17.3297 12.3691 16.7053C13.8765 16.0809 15.165 15.0235 16.0715 13.6668C16.9781 12.3101 17.4619 10.715 17.4619 9.08331C17.4619 6.89528 16.5927 4.79686 15.0455 3.24968C13.4984 1.70251 11.4 0.833313 9.21192 0.833313ZM9.21192 14.9133C8.06106 14.9133 6.93602 14.5722 5.97899 13.933C5.02196 13.2938 4.27588 12.3852 3.83505 11.3221C3.39422 10.259 3.27841 9.08914 3.50227 7.96026C3.72612 6.83138 4.2796 5.79419 5.09274 4.97977C5.90588 4.16535 6.94219 3.61024 8.07072 3.38461C9.19925 3.15898 10.3693 3.27294 11.4331 3.7121C12.4969 4.15126 13.4066 4.89591 14.0473 5.85193C14.688 6.80796 15.0309 7.93245 15.0328 9.08331C15.0352 9.84883 14.8863 10.6073 14.5948 11.3151C14.3032 12.0229 13.8747 12.6662 13.3338 13.2079C12.7929 13.7496 12.1504 14.1791 11.443 14.4718C10.7356 14.7645 9.97743 14.9145 9.21192 14.9133Z" fill="#2E3D52"/>
</svg>
