<svg width="30" height="42" viewBox="0 0 30 42" fill="none" xmlns="http://www.w3.org/2000/svg">
<g clip-path="url(#clip0_2253_22274)">
<path d="M9.61426 41.118V30.3016L11.6193 30.0328L14.4577 32.2574C14.6155 32.381 14.8086 32.448 15.0073 32.448C15.206 32.448 15.3992 32.381 15.557 32.2574L18.3974 30.0321L20.4025 30.3009V41.1173L15.494 37.9309C15.3492 37.8369 15.1812 37.787 15.0097 37.787C14.8382 37.787 14.6702 37.8369 14.5254 37.9309L9.61701 41.1187L9.61426 41.118Z" fill="#E3AD57"/>
<path d="M25.9788 19.4131L27.9613 16.7664L25.9829 14.1197C25.9107 14.0234 25.8579 13.9135 25.8272 13.7963C25.7966 13.6791 25.7889 13.5568 25.8045 13.4365L26.227 10.1325L23.219 8.85711C22.9975 8.76292 22.8215 8.5827 22.7295 8.35591L21.4847 5.27589L18.258 5.7085C18.0208 5.73999 17.781 5.67434 17.5907 5.52581L15.006 3.5L12.424 5.53C12.2337 5.67846 11.994 5.74412 11.7568 5.71271L8.53002 5.2801L7.28453 8.3601C7.19255 8.58688 7.0165 8.76711 6.79502 8.8613L3.78707 10.136L4.20958 13.44C4.24063 13.6829 4.17649 13.9286 4.03116 14.1232L2.05273 16.7699L4.03116 19.4166C4.10329 19.5129 4.15618 19.6228 4.1868 19.74C4.21741 19.8572 4.22514 19.9795 4.20958 20.0998L3.78707 23.4038L6.79502 24.6785C6.90477 24.725 7.00452 24.7932 7.08851 24.8792C7.1725 24.9652 7.23911 25.0673 7.28453 25.1797L8.53002 28.2597L11.7568 27.8271C11.7957 27.8217 11.835 27.8192 11.8744 27.8194C12.0721 27.8196 12.2643 27.8866 12.4212 28.0098L15.0033 30.0349L17.588 28.0091C17.682 27.9352 17.7894 27.8811 17.9039 27.8497C18.0183 27.8184 18.1378 27.8105 18.2553 27.8264L21.4819 28.259L22.7275 25.179C22.8193 24.9521 22.9953 24.7718 23.2169 24.6778L26.2249 23.4031L25.8025 20.0991C25.7862 19.9785 25.7935 19.8558 25.8237 19.7381C25.854 19.6203 25.9067 19.5099 25.9788 19.4131Z" fill="#E3AD57"/>
<path d="M15.3822 24.5C20.1016 24.5 23.9274 20.5825 23.9274 15.75C23.9274 10.9175 20.1016 7 15.3822 7C10.6628 7 6.83691 10.9175 6.83691 15.75C6.83691 20.5825 10.6628 24.5 15.3822 24.5Z" fill="white"/>
<path d="M29.8146 14.7968L27.642 11.8911L28.1062 8.2623C28.132 8.06024 28.092 7.8551 27.9924 7.67868C27.8928 7.50226 27.7391 7.36442 27.5552 7.2865L24.2526 5.8865L22.8854 2.5048C22.8093 2.3165 22.6747 2.15915 22.5024 2.05715C22.3301 1.95515 22.1298 1.91418 21.9324 1.9406L18.3872 2.4152L15.5508 0.191301C15.393 0.0676643 15.1999 0.000671387 15.0012 0.000671387C14.8025 0.000671387 14.6094 0.0676643 14.4516 0.191301L11.6132 2.4152L8.06929 1.9399C7.87195 1.91348 7.67162 1.95445 7.49933 2.05645C7.32704 2.15845 7.19242 2.3158 7.11632 2.5041L5.74908 5.8858L2.44651 7.2858C2.26262 7.36372 2.10895 7.50156 2.00934 7.67798C1.90972 7.8544 1.86971 8.05954 1.89551 8.2616L2.35969 11.8911L0.187143 14.7968C0.0663993 14.9584 0.000976562 15.1562 0.000976562 15.3596C0.000976562 15.563 0.0663993 15.7608 0.187143 15.9224L2.35969 18.8302L1.89551 22.459C1.86971 22.6611 1.90972 22.8662 2.00934 23.0426C2.10895 23.219 2.26262 23.3569 2.44651 23.4348L5.74908 24.8348L7.11632 28.2165C7.17455 28.3615 7.26784 28.489 7.38743 28.587C7.50701 28.685 7.64897 28.7502 7.79994 28.7765V41.0741C7.79994 41.24 7.84344 41.4028 7.9259 41.5455C8.00835 41.6883 8.12674 41.8058 8.26869 41.8857C8.41064 41.9656 8.57094 42.005 8.73284 41.9998C8.89474 41.9945 9.0523 41.9449 9.18906 41.856L14.9998 38.0809L20.8106 41.856C20.9474 41.9449 21.1049 41.9945 21.2668 41.9998C21.4287 42.005 21.589 41.9656 21.731 41.8857C21.8729 41.8058 21.9913 41.6883 22.0738 41.5455C22.1562 41.4028 22.1997 41.24 22.1997 41.0741V28.7702C22.3506 28.7437 22.4925 28.6784 22.6121 28.5805C22.7316 28.4825 22.825 28.3551 22.8833 28.2102L24.2506 24.8285L27.5532 23.4285C27.7371 23.3506 27.8907 23.2127 27.9903 23.0363C28.0899 22.8599 28.13 22.6548 28.1042 22.4527L27.64 18.8232L29.8125 15.9175C29.9324 15.7566 29.9975 15.5599 29.9979 15.3575C29.9983 15.1551 29.9339 14.9582 29.8146 14.7968ZM15.4852 36.2021C15.3404 36.108 15.1724 36.0581 15.0009 36.0581C14.8293 36.0581 14.6614 36.108 14.5165 36.2021L9.60812 39.3899V28.5728L11.6132 28.304L14.4509 30.5286C14.6087 30.6522 14.8018 30.7192 15.0005 30.7192C15.1992 30.7192 15.3924 30.6522 15.5501 30.5286L18.3872 28.304L20.3922 28.5728V39.3899L15.4852 36.2021ZM25.9754 18.0063C25.83 18.2009 25.7658 18.4466 25.7969 18.6895L26.2194 21.9935L23.2115 23.2682C22.9899 23.3622 22.8138 23.5425 22.722 23.7694L21.4765 26.8494L18.2498 26.4168C18.0125 26.385 17.7726 26.4507 17.5826 26.5995L14.9978 28.6253L12.4157 26.6002C12.2587 26.4772 12.0666 26.4103 11.8689 26.4098C11.8295 26.4098 11.7903 26.4123 11.7513 26.4175L8.52458 26.8501L7.27902 23.7701C7.18717 23.5432 7.01112 23.363 6.78955 23.2689L3.78162 21.9942L4.2041 18.6902C4.2353 18.4473 4.17114 18.2016 4.02567 18.007L2.04727 15.3603L4.02567 12.7136C4.17107 12.519 4.23523 12.2733 4.2041 12.0304L3.78162 8.7264L6.78955 7.4517C7.01116 7.35771 7.18723 7.17742 7.27902 6.9505L8.52458 3.8705L11.7513 4.3031C11.9885 4.33497 12.2284 4.26928 12.4185 4.1204L15.0005 2.0932L17.5853 4.119C17.7753 4.26788 18.0152 4.33357 18.2525 4.3017L21.4792 3.8691L22.7241 6.9491C22.8159 7.17602 22.9919 7.35631 23.2135 7.4503L26.2215 8.7257L25.799 12.0297C25.7678 12.2726 25.8319 12.5183 25.9774 12.7129L27.9558 15.3596L25.9754 18.0063Z" fill="#3F5372"/>
<path d="M15.2017 6.5961C13.4121 6.5961 11.6627 7.13949 10.1747 8.15757C8.6867 9.17564 7.52694 10.6227 6.84209 12.3157C6.15724 14.0087 5.97805 15.8716 6.32719 17.6689C6.67632 19.4661 7.5381 21.117 8.80354 22.4128C10.069 23.7085 11.6813 24.591 13.4365 24.9485C15.1917 25.306 17.011 25.1225 18.6644 24.4212C20.3178 23.72 21.7309 22.5324 22.7252 21.0088C23.7194 19.4851 24.2501 17.6938 24.2501 15.8613C24.2501 13.404 23.2968 11.0474 21.5999 9.30981C19.903 7.57225 17.6015 6.5961 15.2017 6.5961ZM15.6803 10.5462C16.1371 10.643 16.5563 10.8748 16.886 11.2127C17.2157 11.5507 17.4415 11.9802 17.5356 12.4481H15.6782L15.6803 10.5462ZM14.7252 12.4481H12.8685C12.9627 11.9799 13.1889 11.5503 13.519 11.2122C13.8491 10.8742 14.2687 10.6427 14.7259 10.5462L14.7252 12.4481ZM12.3442 13.4232H18.0593C18.1258 13.4164 18.193 13.4239 18.2565 13.4453C18.3201 13.4667 18.3785 13.5014 18.4281 13.5474C18.4777 13.5933 18.5173 13.6494 18.5444 13.712C18.5716 13.7746 18.5856 13.8423 18.5856 13.9107C18.5856 13.9792 18.5716 14.0469 18.5444 14.1095C18.5173 14.1721 18.4777 14.2282 18.4281 14.2741C18.3785 14.3201 18.3201 14.3548 18.2565 14.3762C18.193 14.3976 18.1258 14.4051 18.0593 14.3983H12.3442C12.2261 14.3862 12.1167 14.3296 12.0371 14.2395C11.9575 14.1494 11.9135 14.0322 11.9135 13.9107C11.9135 13.7893 11.9575 13.6721 12.0371 13.582C12.1167 13.4919 12.2261 13.4353 12.3442 13.4232ZM12.8227 15.3741H17.5848V16.8371C17.5848 17.2251 17.4343 17.5972 17.1664 17.8716C16.8984 18.146 16.535 18.3001 16.1561 18.3001H14.2494C13.8705 18.3001 13.5071 18.146 13.2392 17.8716C12.9712 17.5972 12.8207 17.2251 12.8207 16.8371L12.8227 15.3741ZM18.5378 23.4073C18.2286 23.5536 17.9105 23.6794 17.5855 23.7839V19.3648C17.8623 19.4657 18.1019 19.6515 18.2718 19.8969C18.4417 20.1422 18.5337 20.4353 18.5351 20.7361L18.5378 23.4073ZM13.7757 19.2773H16.6332V20.2524H13.7757V19.2773ZM12.8234 19.3669V23.7867C12.4984 23.6822 12.1803 23.5564 11.8711 23.4101V20.7361C11.8723 20.4346 11.9644 20.1408 12.1349 19.895C12.3053 19.6492 12.5458 19.4632 12.8234 19.3627V19.3669ZM13.7757 24.0163V21.2261H16.6332V24.0149C15.6891 24.1976 14.7198 24.1976 13.7757 24.0149V24.0163ZM19.4908 22.8858V20.7361C19.4894 20.2372 19.3384 19.7507 19.0582 19.3425C18.7779 18.9344 18.382 18.6242 17.9239 18.4541C18.3177 18.0108 18.537 17.4336 18.5392 16.8343V15.2838C18.8196 15.1836 19.0622 14.996 19.233 14.7472C19.4038 14.4984 19.4941 14.2011 19.4913 13.897C19.4884 13.5929 19.3925 13.2974 19.217 13.0521C19.0416 12.8067 18.7954 12.6239 18.5132 12.5293C18.4132 11.7031 18.0218 10.9427 17.4125 10.3914C16.8033 9.84008 16.0182 9.53578 15.2051 9.53578C14.3921 9.53578 13.607 9.84008 12.9978 10.3914C12.3885 10.9427 11.9971 11.7031 11.8971 12.5293C11.6149 12.6239 11.3687 12.8067 11.1933 13.0521C11.0178 13.2974 10.9219 13.5929 10.919 13.897C10.9162 14.2011 11.0065 14.4984 11.1773 14.7472C11.3481 14.996 11.5907 15.1836 11.8711 15.2838V16.8364C11.8733 17.4357 12.0925 18.0129 12.4864 18.4562C12.0283 18.6263 11.6324 18.9365 11.3521 19.3446C11.0719 19.7528 10.9209 20.2393 10.9195 20.7382V22.8837C9.42766 21.9305 8.27944 20.5058 7.64848 18.8251C7.01752 17.1444 6.93812 15.299 7.42229 13.568C7.90647 11.837 8.92788 10.3144 10.3321 9.23055C11.7363 8.14668 13.447 7.56043 15.2055 7.56043C16.964 7.56043 18.6746 8.14668 20.0789 9.23055C21.4831 10.3144 22.5045 11.837 22.9887 13.568C23.4728 15.299 23.3934 17.1444 22.7625 18.8251C22.1315 20.5058 20.9833 21.9305 19.4914 22.8837L19.4908 22.8858Z" fill="#3F5372"/>
</g>
<defs>
<clipPath id="clip0_2253_22274">
<rect width="30" height="42" fill="white"/>
</clipPath>
</defs>
</svg>
