<svg width="24" height="24" viewBox="0 0 24 24" fill="none" xmlns="http://www.w3.org/2000/svg">
<path opacity="0.3" d="M2.80001 10.86V16.54C2.79474 17.2551 2.93103 17.9642 3.20105 18.6264C3.47107 19.2886 3.86946 19.8909 4.37328 20.3984C4.8771 20.9059 5.47638 21.3088 6.13659 21.5836C6.79679 21.8585 7.50487 22 8.22001 22H15.78C16.4918 22 17.1966 21.8598 17.8542 21.5874C18.5117 21.3151 19.1092 20.9158 19.6125 20.4125C20.1158 19.9092 20.5151 19.3117 20.7874 18.6542C21.0598 17.9966 21.2 17.2918 21.2 16.58V10.86C21.2 10.6425 21.1136 10.434 20.9598 10.2802C20.8061 10.1264 20.5975 10.04 20.38 10.04H3.62001C3.40254 10.04 3.19397 10.1264 3.04019 10.2802C2.88641 10.434 2.80001 10.6425 2.80001 10.86Z" fill="#E3AD56"/>
<path d="M20.85 7.55001C20.897 7.67435 20.9131 7.80827 20.8968 7.94021C20.8806 8.07215 20.8325 8.19816 20.7567 8.30739C20.681 8.41663 20.5798 8.5058 20.4619 8.56722C20.344 8.62865 20.2129 8.66049 20.08 8.66001H4.07999C3.91956 8.65634 3.76236 8.61412 3.62169 8.5369C3.48101 8.45969 3.36098 8.34975 3.27174 8.21638C3.18249 8.083 3.12666 7.93011 3.10895 7.77062C3.09124 7.61112 3.11218 7.44971 3.16999 7.30001C3.47018 6.5769 3.9232 5.92726 4.49798 5.39564C5.07276 4.86401 5.7557 4.46297 6.49999 4.22001V2.65001C6.50773 2.47491 6.58277 2.30956 6.70946 2.18845C6.83616 2.06735 7.00472 1.99984 7.17999 2.00001C7.36299 2.00001 7.5385 2.0727 7.6679 2.2021C7.7973 2.3315 7.86999 2.50701 7.86999 2.69001V4.00001C7.97999 4.00001 8.07999 4.00001 8.18999 4.00001H11.46V2.65001C11.46 2.46701 11.5327 2.2915 11.6621 2.1621C11.7915 2.0327 11.967 1.96001 12.15 1.96001C12.333 1.96001 12.5085 2.0327 12.6379 2.1621C12.7673 2.2915 12.84 2.46701 12.84 2.65001V3.93001H15.74C15.85 3.93001 15.95 3.93001 16.06 3.93001V2.65001C16.0677 2.47491 16.1428 2.30956 16.2695 2.18845C16.3962 2.06735 16.5647 1.99984 16.74 2.00001C16.923 2.00001 17.0985 2.0727 17.2279 2.2021C17.3573 2.3315 17.43 2.50701 17.43 2.69001V4.22001C18.2164 4.4772 18.9335 4.91103 19.5263 5.48824C20.1191 6.06545 20.5719 6.77073 20.85 7.55001Z" fill="#E3AD56"/>
<path d="M8.72999 14.66C9.20496 14.66 9.59 14.2794 9.59 13.81C9.59 13.3406 9.20496 12.96 8.72999 12.96C8.25503 12.96 7.87 13.3406 7.87 13.81C7.87 14.2794 8.25503 14.66 8.72999 14.66Z" fill="black"/>
<path d="M11.94 14.66C12.415 14.66 12.8 14.2794 12.8 13.81C12.8 13.3406 12.415 12.96 11.94 12.96C11.4651 12.96 11.08 13.3406 11.08 13.81C11.08 14.2794 11.4651 14.66 11.94 14.66Z" fill="black"/>
<path d="M8.71999 17.86C9.19495 17.86 9.57999 17.4794 9.57999 17.01C9.57999 16.5406 9.19495 16.16 8.71999 16.16C8.24502 16.16 7.85999 16.5406 7.85999 17.01C7.85999 17.4794 8.24502 17.86 8.71999 17.86Z" fill="black"/>
</svg>
