<svg width="24" height="24" viewBox="0 0 24 24" fill="none" xmlns="http://www.w3.org/2000/svg">
<g opacity="0.3">
<path d="M18 5.17999H6.05C5.46715 5.18093 4.891 5.30433 4.35889 5.5422C3.82679 5.78008 3.35061 6.12711 2.96122 6.56081C2.57183 6.99451 2.27793 7.5052 2.09856 8.05977C1.91919 8.61434 1.85835 9.20041 1.92 9.77999L2.81 18.12C2.92082 19.1384 3.40351 20.0801 4.1656 20.7647C4.92769 21.4493 5.91558 21.8286 6.94 21.83H17.17C18.2061 21.8318 19.2055 21.446 19.9716 20.7484C20.7377 20.0508 21.2151 19.0918 21.31 18.06L22.09 9.72999C22.1424 9.15797 22.0761 8.5813 21.8952 8.03612C21.7142 7.49094 21.4226 6.98902 21.0386 6.56182C20.6546 6.13463 20.1865 5.79138 19.6636 5.55359C19.1407 5.31581 18.5744 5.18862 18 5.17999ZM13.83 13.85C13.83 14.0294 13.7945 14.2071 13.7255 14.3728C13.6566 14.5384 13.5555 14.6888 13.4281 14.8152C13.3008 14.9416 13.1497 15.0416 12.9835 15.1094C12.8174 15.1771 12.6394 15.2113 12.46 15.21H11.3C11.1206 15.2113 10.9426 15.1771 10.7765 15.1094C10.6103 15.0416 10.4592 14.9416 10.3319 14.8152C10.2045 14.6888 10.1034 14.5384 10.0345 14.3728C9.9655 14.2071 9.93 14.0294 9.93 13.85V11.47H13.78L13.83 13.85Z" fill="#E3AD56"/>
</g>
<path d="M22.09 9.73C22.1424 9.15798 22.0761 8.5813 21.8952 8.03612C21.7142 7.49095 21.4226 6.98902 21.0386 6.56183C20.6546 6.13464 20.1865 5.79139 19.6636 5.5536C19.1407 5.31582 18.5744 5.18863 18 5.18H16.39V4.18C16.39 3.46126 16.1045 2.77197 15.5963 2.26374C15.088 1.75552 14.3987 1.47 13.68 1.47H10.29C9.57985 1.46988 8.89802 1.74852 8.39121 2.24598C7.8844 2.74344 7.59311 3.41997 7.58 4.13V5.13H6.05C5.46715 5.13094 4.891 5.25434 4.35889 5.49221C3.82679 5.73009 3.35061 6.07712 2.96122 6.51082C2.57183 6.94452 2.27793 7.45521 2.09856 8.00978C1.91919 8.56435 1.85835 9.15042 1.92 9.73L2.07 11.17C4.15431 12.7278 6.61475 13.7043 9.2 14C9.23047 14.5378 9.4645 15.0438 9.85454 15.4152C10.2446 15.7867 10.7614 15.9958 11.3 16H12.41C12.9343 15.9976 13.439 15.8011 13.8269 15.4484C14.2147 15.0956 14.4581 14.6117 14.51 14.09C17.2514 13.7998 19.8514 12.7271 22 11L22.09 9.73ZM9.09 4.13C9.09 3.80909 9.21748 3.50132 9.4444 3.2744C9.67132 3.04748 9.97909 2.92 10.3 2.92H13.69C14.0109 2.92 14.3187 3.04748 14.5456 3.2744C14.7725 3.50132 14.9 3.80909 14.9 4.13V5.13H9.08L9.09 4.13ZM13 13.85C13 13.931 12.9839 14.0111 12.9526 14.0858C12.9214 14.1604 12.8755 14.2281 12.8178 14.2849C12.7601 14.3417 12.6917 14.3864 12.6165 14.4165C12.5413 14.4465 12.4609 14.4613 12.38 14.46H11.3C11.2191 14.4613 11.1387 14.4465 11.0635 14.4165C10.9883 14.3864 10.9199 14.3417 10.8622 14.2849C10.8045 14.2281 10.7587 14.1604 10.7274 14.0858C10.6961 14.0111 10.68 13.931 10.68 13.85V12.22H13V13.85Z" fill="#E3AD56"/>
</svg>
