<svg width="24" height="24" viewBox="0 0 24 24" fill="none" xmlns="http://www.w3.org/2000/svg">
<path opacity="0.3" d="M17.28 21.8H6.36998C5.51771 21.8016 4.69431 21.4913 4.05508 20.9276C3.41585 20.3639 3.00499 19.5858 2.89998 18.74L1.99998 11.23C1.93525 10.6317 2.02542 10.0269 2.26183 9.47351C2.49824 8.92013 2.87295 8.43683 3.34998 8.07001L9.99998 2.91001C10.6323 2.41319 11.4171 2.15067 12.2211 2.16708C13.025 2.18348 13.7985 2.47781 14.41 3.00001L20.76 8.34001C21.2352 8.72401 21.6003 9.227 21.8181 9.79785C22.0359 10.3687 22.0986 10.987 22 11.59L20.7 18.91C20.5611 19.7172 20.1421 20.4495 19.5165 20.9781C18.8909 21.5067 18.099 21.7977 17.28 21.8Z" fill="#E3AD56"/>
<path d="M12 15.67C13.4194 15.67 14.57 14.5194 14.57 13.1C14.57 11.6806 13.4194 10.53 12 10.53C10.5806 10.53 9.42999 11.6806 9.42999 13.1C9.42999 14.5194 10.5806 15.67 12 15.67Z" fill="#E3AD56"/>
</svg>
