<svg width="24" height="24" viewBox="0 0 24 24" fill="none" xmlns="http://www.w3.org/2000/svg">
<path opacity="0.3" d="M9.02998 11.4C11.6478 11.4 13.77 9.29574 13.77 6.7C13.77 4.10426 11.6478 2 9.02998 2C6.41215 2 4.28998 4.10426 4.28998 6.7C4.28998 9.29574 6.41215 11.4 9.02998 11.4Z" fill="#E3AD56"/>
<path d="M9.03 22C12.9126 22 16.06 19.8957 16.06 17.3C16.06 14.7043 12.9126 12.6 9.03 12.6C5.14744 12.6 2 14.7043 2 17.3C2 19.8957 5.14744 22 9.03 22Z" fill="#E3AD56"/>
<g opacity="0.3">
<path d="M16.39 4C15.8399 4.00063 15.2968 4.1236 14.8 4.36C15.2191 5.37715 15.3549 6.48884 15.1929 7.57698C15.031 8.66511 14.5772 9.68904 13.88 10.54C14.3324 10.9519 14.8784 11.2472 15.4708 11.4003C16.0631 11.5534 16.6839 11.5596 17.2792 11.4185C17.8745 11.2773 18.4263 10.993 18.8869 10.5902C19.3474 10.1874 19.7027 9.67837 19.9219 9.10718C20.1411 8.53599 20.2177 7.91993 20.1449 7.31247C20.072 6.705 19.8521 6.12448 19.5041 5.62127C19.1561 5.11807 18.6906 4.70738 18.1479 4.42486C17.6052 4.14233 17.0018 3.99649 16.39 4Z" fill="#E3AD56"/>
</g>
<path d="M16.39 12.5C15.829 12.4995 15.2694 12.5565 14.72 12.67C15.546 13.1379 16.2393 13.8085 16.7345 14.6186C17.2296 15.4286 17.5102 16.3514 17.55 17.3C17.5455 18.2621 17.2568 19.2015 16.72 20C19.66 19.89 22 18.26 22 16.26C22 14.26 19.49 12.5 16.39 12.5Z" fill="#E3AD56"/>
</svg>
