<svg width="21" height="20" viewBox="0 0 21 20" fill="none" xmlns="http://www.w3.org/2000/svg">
<path opacity="0.3" d="M19.25 16.52L11 19.8C10.3399 20.0701 9.60011 20.0701 8.94 19.8L0.749998 16.52C0.526802 16.4312 0.335392 16.2774 0.200537 16.0787C0.0656829 15.8799 -0.00640869 15.6452 -0.00640869 15.405C-0.00640869 15.1648 0.0656829 14.9301 0.200537 14.7313C0.335392 14.5325 0.526802 14.3788 0.749998 14.29L2 13.78L8.19 16.26C9.33338 16.7133 10.6066 16.7133 11.75 16.26L18 13.78L19.28 14.29C19.502 14.3817 19.6914 14.538 19.8237 14.7386C19.9559 14.9392 20.0248 15.1749 20.0216 15.4152C20.0184 15.6554 19.9431 15.8891 19.8055 16.0861C19.668 16.2831 19.4744 16.4342 19.25 16.52ZM11 14.4L19.22 11.11C19.4401 11.0196 19.6283 10.8658 19.7608 10.6681C19.8933 10.4705 19.964 10.2379 19.964 9.99998C19.964 9.76204 19.8933 9.52947 19.7608 9.33183C19.6283 9.13418 19.4401 8.98039 19.22 8.88998L11 5.59998C10.3557 5.35563 9.64428 5.35563 9 5.59998L0.749998 8.88998C0.529905 8.98039 0.341657 9.13418 0.209175 9.33183C0.0766936 9.52947 0.00595844 9.76204 0.00595844 9.99998C0.00595844 10.2379 0.0766936 10.4705 0.209175 10.6681C0.341657 10.8658 0.529905 11.0196 0.749998 11.11L9 14.4C9.64428 14.6443 10.3557 14.6443 11 14.4Z" fill="#E3AD56"/>
<path d="M9 8.99998L0.749998 5.70999C0.526802 5.62119 0.335392 5.46745 0.200537 5.26866C0.0656829 5.06988 -0.00640869 4.8352 -0.00640869 4.59499C-0.00640869 4.35477 0.0656829 4.12009 0.200537 3.92131C0.335392 3.72252 0.526802 3.56878 0.749998 3.47998L9 0.199985C9.64247 -0.0540071 10.3575 -0.0540071 11 0.199985L19.22 3.47998C19.4432 3.56878 19.6346 3.72252 19.7695 3.92131C19.9043 4.12009 19.9764 4.35477 19.9764 4.59499C19.9764 4.8352 19.9043 5.06988 19.7695 5.26866C19.6346 5.46745 19.4432 5.62119 19.22 5.70999L11 8.99998C10.3557 9.24433 9.64428 9.24433 9 8.99998Z" fill="#E3AD56"/>
</svg>
