<svg width="24" height="24" viewBox="0 0 24 24" fill="none" xmlns="http://www.w3.org/2000/svg">
<path opacity="0.3" d="M12 22C17.5228 22 22 17.5228 22 12C22 6.47715 17.5228 2 12 2C6.47715 2 2 6.47715 2 12C2 17.5228 6.47715 22 12 22Z" fill="#E3AD56"/>
<path d="M16.25 12.75H12C11.8019 12.7474 11.6126 12.6676 11.4725 12.5275C11.3324 12.3874 11.2526 12.1981 11.25 12V6C11.25 5.80109 11.329 5.61032 11.4697 5.46967C11.6103 5.32902 11.8011 5.25 12 5.25C12.1989 5.25 12.3897 5.32902 12.5303 5.46967C12.671 5.61032 12.75 5.80109 12.75 6V11.27H16.25C16.4489 11.27 16.6397 11.349 16.7803 11.4897C16.921 11.6303 17 11.8211 17 12.02C17 12.2189 16.921 12.4097 16.7803 12.5503C16.6397 12.691 16.4489 12.77 16.25 12.77V12.75Z" fill="#E3AD56"/>
</svg>
