      <svg
                  width="33"
                  height="33"
                  viewBox="0 0 33 33"
                  fill="none"
                  xmlns="http://www.w3.org/2000/svg"
                >
                  <path
                    d="M1.68994 16.5C1.68994 8.49187 8.18181 2 16.1899 2C24.1981 2 30.6899 8.49187 30.6899 16.5C30.6899 24.5081 24.1981 31 16.1899 31C8.18181 31 1.68994 24.5081 1.68994 16.5Z"
                    fill="#223042"
                  />
                  <path
                    d="M11.6899 18L12.5574 19.8488C13.2449 21.3139 15.2972 21.3983 16.1027 19.9946L20.6899 12M16.1899 31C8.18181 31 1.68994 24.5081 1.68994 16.5C1.68994 8.49187 8.18181 2 16.1899 2C24.1981 2 30.6899 8.49187 30.6899 16.5C30.6899 24.5081 24.1981 31 16.1899 31Z"
                    stroke="#E3AD56"
                    stroke-width="3"
                    stroke-linecap="round"
                    stroke-linejoin="round"
                  />
                </svg>
