<svg width="24" height="24" viewBox="0 0 50 50" fill="none" xmlns="http://www.w3.org/2000/svg">
<path d="M25 2.5C37.4264 2.5 47.5 12.5736 47.5 25C47.5 37.4264 37.4264 47.5 25 47.5C12.5736 47.5 2.5 37.4264 2.5 25C2.5 12.5736 12.5736 2.5 25 2.5Z" fill="white"/>
<path d="M25 2.5C37.4264 2.5 47.5 12.5736 47.5 25C47.5 37.4264 37.4264 47.5 25 47.5C12.5736 47.5 2.5 37.4264 2.5 25C2.5 12.5736 12.5736 2.5 25 2.5Z" stroke="#F8ECDA" stroke-width="5"/>
<path fill-rule="evenodd" clip-rule="evenodd" d="M20.6686 17.4686C20.0438 18.0935 20.0438 19.1065 20.6686 19.7314L25.9372 25L20.6686 30.2686C20.0438 30.8935 20.0438 31.9065 20.6686 32.5314C21.2935 33.1562 22.3065 33.1562 22.9314 32.5314L29.3314 26.1314C29.9562 25.5065 29.9562 24.4935 29.3314 23.8686L22.9314 17.4686C22.3065 16.8438 21.2935 16.8438 20.6686 17.4686Z" fill="#223042"/>
</svg>
