<svg width="17" height="21" viewBox="0 0 17 21" fill="none" xmlns="http://www.w3.org/2000/svg">
<path d="M16.825 8.39887C16.825 8.13787 16.812 7.88087 16.789 7.62587C14.15 5.80987 12.299 5.36287 10.295 5.48687C12.1801 4.91938 14.1613 4.74311 16.117 4.96887C15.6444 3.87233 14.9435 2.88915 14.061 2.08487C12.3326 2.45025 10.7562 3.33262 9.54098 4.61487C10.1667 3.41018 10.6445 2.13425 10.964 0.814868C9.53599 0.39895 8.01898 0.39895 6.59098 0.814868C6.91044 2.13425 7.38824 3.41018 8.01398 4.61487C6.79879 3.33262 5.22238 2.45025 3.49398 2.08487C2.61146 2.88915 1.91055 3.87233 1.43798 4.96887C3.39367 4.74311 5.37487 4.91938 7.25998 5.48687C5.25998 5.36287 3.40498 5.81087 0.76598 7.62587C0.74298 7.88087 0.729984 8.13787 0.729984 8.39887C0.729016 9.42259 0.909818 10.4384 1.26398 11.3989C2.99138 9.68347 4.86924 8.12655 6.87498 6.74687C5.74828 7.62939 4.80914 8.72801 4.11265 9.97829C3.41616 11.2286 2.97634 12.6054 2.81898 14.0279C3.71151 15.0573 4.84927 15.8449 6.12698 16.3179C6.32925 13.0782 7.03784 9.8902 8.22698 6.86987C8.27698 10.5629 7.80798 16.7139 7.62198 19.6829L8.79699 20.5009L9.93498 19.7089C9.74998 16.7599 9.27798 10.5769 9.32798 6.86987C10.5171 9.89021 11.2257 13.0782 11.428 16.3179C12.7057 15.8449 13.8435 15.0573 14.736 14.0279C14.5786 12.6054 14.1388 11.2286 13.4423 9.97829C12.7458 8.72801 11.8067 7.62939 10.68 6.74687C12.6853 8.12597 14.5628 9.68221 16.29 11.3969C16.6443 10.437 16.8254 9.42198 16.825 8.39887Z" fill="#E3AD56"/>
</svg>
