<svg width="18" height="21" viewBox="0 0 18 21" fill="none" xmlns="http://www.w3.org/2000/svg">
<path d="M11.4588 14.2576V16.6162C11.4588 17.1159 11.3188 17.3657 11.019 17.3657C10.8291 17.3557 10.6392 17.2658 10.5193 17.1159V13.7579C10.6492 13.608 10.8291 13.528 11.019 13.508C11.3088 13.508 11.4588 13.7579 11.4588 14.2576ZM15.2265 14.2676V14.7773H14.2271V14.2676C14.2271 13.7579 14.397 13.508 14.7268 13.508C15.0566 13.508 15.2265 13.7579 15.2265 14.2676ZM4.45298 11.8391H5.64227V10.7897H2.17436V11.8391H3.34365V18.1852H4.46298V11.8391H4.45298ZM7.66105 18.1852H8.65045V12.6785H7.66105V16.896C7.44118 17.2058 7.22131 17.3657 7.02143 17.3657C6.89151 17.3657 6.81156 17.2858 6.79157 17.1359C6.78158 17.0059 6.77158 16.876 6.78158 16.7461V12.6885H5.79218V17.0459C5.78218 17.3157 5.81216 17.5956 5.88212 17.8554C5.97207 18.1253 6.2419 18.3052 6.52174 18.2652C6.98146 18.2152 7.4012 17.9654 7.66105 17.5856V18.1852ZM12.4482 16.5362V14.3375C12.4681 13.9678 12.4282 13.598 12.3482 13.2382C12.2783 12.8584 11.9385 12.5986 11.5587 12.6186C11.1389 12.6486 10.7492 12.8684 10.5193 13.2182V10.7997H9.52992V18.1952H10.5193V17.6555C10.7492 18.0053 11.1389 18.2352 11.5587 18.2652C11.9385 18.2852 12.2683 18.0253 12.3482 17.6555C12.4282 17.2858 12.4681 16.916 12.4482 16.5362ZM16.2159 16.4263V16.2864H15.2065C15.2065 16.5162 15.2065 16.7361 15.1865 16.966C15.1765 17.1958 14.9766 17.3757 14.7368 17.3657C14.397 17.3657 14.2271 17.1059 14.2271 16.5962V15.6268H16.2259V14.4775C16.2559 14.0277 16.1559 13.578 15.9261 13.1882C15.6462 12.8185 15.2065 12.5986 14.7468 12.6186C14.2771 12.5986 13.8373 12.8085 13.5575 13.1882C13.3176 13.578 13.2077 14.0277 13.2477 14.4875V16.4163C13.2077 16.876 13.3176 17.3257 13.5675 17.7155C13.8473 18.0953 14.297 18.3051 14.7668 18.2852C15.2465 18.3151 15.7062 18.0853 15.976 17.6955C16.1059 17.5156 16.1859 17.3157 16.2059 17.0959C16.2259 16.876 16.2359 16.6661 16.2259 16.4463L16.2159 16.4263ZM9.43997 6.24243V3.90385C9.43997 3.39415 9.28007 3.13431 8.96026 3.13431C8.64046 3.13431 8.48055 3.39415 8.48055 3.90385V6.24243C8.48055 6.76212 8.64046 7.02197 8.96026 7.02197C9.28007 7.02197 9.43997 6.76212 9.43997 6.24243ZM17.4551 14.6174C17.4951 15.9266 17.3952 17.2258 17.1653 18.515C17.0654 18.9348 16.8455 19.3245 16.5157 19.6144C16.2059 19.9042 15.8061 20.0841 15.3764 20.1241C13.3176 20.3139 11.2489 20.3839 9.19012 20.3539C7.12137 20.3839 5.06262 20.3039 3.00386 20.1241C2.57412 20.0841 2.17436 19.9042 1.86455 19.6144C1.53475 19.3245 1.31488 18.9448 1.22493 18.515C0.995073 17.2258 0.895133 15.9266 0.935109 14.6174C0.895133 13.3082 0.995073 11.999 1.22493 10.7097C1.32487 10.29 1.54474 9.90023 1.87454 9.6104C2.19435 9.32058 2.59411 9.13069 3.02385 9.08072C4.38303 8.93081 6.44178 8.86085 9.20012 8.86085C11.9585 8.86085 14.0272 8.93081 15.3864 9.08072C15.8161 9.13069 16.2159 9.31058 16.5257 9.6104C16.8555 9.90023 17.0754 10.28 17.1653 10.7097C17.3952 11.999 17.4951 13.3082 17.4551 14.6174ZM6.32186 0.385971H7.46117L6.11198 4.83328V7.86146H4.99266V4.83328C4.81277 4.03377 4.5929 3.24424 4.31307 2.46472C4.03324 1.69518 3.79338 1.0056 3.58351 0.375977H4.7628L5.55232 3.30421L6.31186 0.375977L6.32186 0.385971ZM10.4494 4.10372V6.05255C10.4893 6.51227 10.3794 6.97199 10.1396 7.37175C9.86971 7.75152 9.41998 7.9614 8.96026 7.94141C8.50054 7.9614 8.06081 7.74153 7.79097 7.37175C7.55111 6.97199 7.44118 6.51227 7.48116 6.05255V4.10372C7.44118 3.644 7.55111 3.19427 7.79097 2.79451C8.06081 2.42474 8.50054 2.20487 8.96026 2.22486C9.41998 2.20487 9.86971 2.41474 10.1396 2.79451C10.3794 3.18428 10.4893 3.644 10.4494 4.10372ZM14.1871 2.29482V7.86146H13.1777V7.25183C12.9179 7.64159 12.4981 7.89144 12.0284 7.94141C11.7386 7.97139 11.4687 7.80149 11.3688 7.53166C11.2989 7.26182 11.2689 6.97199 11.2789 6.69216V2.29482H12.2982V6.39234C12.2982 6.52227 12.2982 6.65219 12.3082 6.78211C12.3282 6.94201 12.4082 7.03196 12.5381 7.03196C12.738 7.03196 12.9479 6.87205 13.1777 6.55225V2.30481H14.1871V2.29482Z" fill="#2E3D52"/>
</svg>
